<svg width="176" height="40" viewBox="0 0 176 40" fill="none" xmlns="http://www.w3.org/2000/svg">
<path d="M9.57953 7.73591C10.9883 6.58608 12.6234 5.74583 14.3784 5.26987C16.1334 4.79391 17.969 4.69291 19.7656 4.97344C21.5622 5.25398 23.2797 5.90976 24.806 6.89809C26.3324 7.88641 27.6335 9.18513 28.6246 10.7097C29.6158 12.2342 30.2747 13.9504 30.5586 15.7466C30.8424 17.5427 30.7448 19.3784 30.2721 21.1343C29.7993 22.8902 28.9621 24.5269 27.8149 25.9377C26.6676 27.3485 25.2361 28.5019 23.6135 29.3228L22.6561 27.4304C24.013 26.744 25.2101 25.7795 26.1694 24.5997C27.1287 23.4199 27.8289 22.0513 28.2242 20.583C28.6195 19.1147 28.7011 17.5796 28.4638 16.0776C28.2264 14.5756 27.6754 13.1405 26.8466 11.8656C26.0178 10.5908 24.9297 9.50475 23.6533 8.67829C22.377 7.85182 20.9408 7.30344 19.4384 7.06886C17.936 6.83427 16.4011 6.91872 14.9335 7.31673C13.4659 7.71474 12.0986 8.41738 10.9206 9.37889L9.57953 7.73591Z" fill="#4A4A4A"/>
<path d="M2.82247 8.15897C4.1718 6.06028 5.948 4.26931 8.03543 2.90265C10.1229 1.53598 12.4747 0.624276 14.9379 0.226883C17.4011 -0.17051 19.9203 -0.0446784 22.3317 0.596185C24.743 1.23705 26.9923 2.37857 28.9332 3.94644C30.874 5.51431 32.4629 7.47336 33.5964 9.69606C34.7299 11.9188 35.3825 14.3553 35.5119 16.8469C35.6412 19.3386 35.2443 21.8296 34.347 24.1577C33.4498 26.4858 32.0722 28.5988 30.3041 30.3592L28.251 28.2971C29.7295 26.825 30.8815 25.058 31.6318 23.1112C32.3821 21.1644 32.714 19.0814 32.6058 16.9978C32.4977 14.9142 31.9519 12.8767 31.0041 11.018C30.0562 9.15936 28.7276 7.52115 27.1046 6.21006C25.4816 4.89897 23.6006 3.9444 21.5842 3.40849C19.5678 2.87259 17.4612 2.76736 15.4014 3.09967C13.3416 3.43198 11.3749 4.19437 9.62936 5.33721C7.8838 6.48005 6.3985 7.97771 5.27016 9.73268L2.82247 8.15897Z" fill="#E41636"/>
<path d="M35.1228 30.9908C33.7735 33.0894 31.9973 34.8804 29.9099 36.2471C27.8224 37.6137 25.4706 38.5254 23.0074 38.9228C20.5442 39.3202 18.025 39.1944 15.6137 38.5535C13.2023 37.9127 10.953 36.7711 9.01216 35.2033C7.0713 33.6354 5.4824 31.6764 4.34892 29.4537C3.21544 27.231 2.56279 24.7945 2.43346 22.3028C2.30412 19.8111 2.70101 17.3201 3.59828 14.992C4.49555 12.6639 5.87309 10.5509 7.64119 8.79052L9.69432 10.8527C8.21579 12.3247 7.06386 14.0917 6.31354 16.0385C5.56322 17.9853 5.23133 20.0684 5.33948 22.152C5.44763 24.2355 5.9934 26.273 6.94124 28.1317C7.88908 29.9904 9.21776 31.6286 10.8408 32.9397C12.4638 34.2507 14.3447 35.2053 16.3611 35.7412C18.3775 36.2771 20.4842 36.3824 22.5439 36.05C24.6037 35.7177 26.5704 34.9553 28.3159 33.8125C30.0615 32.6697 31.5468 31.172 32.6752 29.417L35.1228 30.9908Z" fill="#4A4A4A"/>
<path d="M28.3658 30.8114C26.9571 31.9612 25.322 32.8015 23.5669 33.2774C21.8119 33.7534 19.9764 33.8544 18.1797 33.5739C16.3831 33.2933 14.6657 32.6375 13.1393 31.6492C11.6129 30.6609 10.3118 29.3622 9.32067 27.8376C8.32953 26.3131 7.67059 24.5969 7.38675 22.8007C7.10291 21.0046 7.20053 19.1689 7.67326 17.413C8.14599 15.6571 8.98323 14.0204 10.1305 12.6096C11.2777 11.1988 12.7092 10.0454 14.3318 9.22449L15.2892 11.1169C13.9323 11.8033 12.7353 12.7678 11.7759 13.9476C10.8166 15.1274 10.1165 16.496 9.72114 17.9643C9.32584 19.4326 9.2442 20.9677 9.48156 22.4697C9.71891 23.9717 10.2699 25.4068 11.0987 26.6817C11.9276 27.9565 13.0156 29.0426 14.292 29.869C15.5684 30.6955 17.0045 31.2439 18.5069 31.4784C20.0093 31.713 21.5443 31.6286 23.0118 31.2306C24.4794 30.8326 25.8467 30.1299 27.0247 29.1684L28.3658 30.8114Z" fill="#E41636"/>
<path d="M55.8114 15.079H58.3047C58.2383 15.9615 57.9934 16.7443 57.5703 17.4273C57.1472 18.1043 56.5579 18.6362 55.8023 19.0231C55.0467 19.4099 54.131 19.6034 53.0551 19.6034C52.227 19.6034 51.4805 19.4583 50.8156 19.1681C50.1567 18.872 49.5915 18.4519 49.1201 17.9079C48.6546 17.3578 48.298 16.699 48.0502 15.9313C47.8024 15.1576 47.6785 14.2902 47.6785 13.3291V12.3227C47.6785 11.3616 47.8054 10.4942 48.0593 9.72054C48.3131 8.94684 48.6758 8.28799 49.1473 7.74398C49.6248 7.19393 50.196 6.77081 50.8609 6.47463C51.5318 6.17844 52.2814 6.03035 53.1095 6.03035C54.1854 6.03035 55.0951 6.22982 55.8386 6.62876C56.582 7.02166 57.1593 7.56264 57.5703 8.25172C57.9814 8.9408 58.2292 9.73263 58.3138 10.6272H55.8204C55.7721 10.0711 55.6512 9.59965 55.4578 9.2128C55.2704 8.82595 54.9863 8.53279 54.6055 8.33332C54.2307 8.12781 53.7321 8.02505 53.1095 8.02505C52.6259 8.02505 52.1998 8.11572 51.831 8.29705C51.4684 8.47839 51.1661 8.75039 50.9244 9.11307C50.6826 9.46969 50.5012 9.91699 50.3804 10.455C50.2595 10.9869 50.199 11.6034 50.199 12.3046V13.3291C50.199 14.0001 50.2534 14.6015 50.3622 15.1334C50.471 15.6653 50.6403 16.1157 50.87 16.4844C51.0997 16.8531 51.3958 17.1342 51.7585 17.3276C52.1212 17.521 52.5534 17.6177 53.0551 17.6177C53.6656 17.6177 54.1612 17.521 54.542 17.3276C54.9289 17.1342 55.222 16.8501 55.4215 16.4753C55.627 16.1005 55.757 15.6351 55.8114 15.079ZM77.6105 12.4859V13.1659C77.6105 14.1633 77.4775 15.0609 77.2116 15.8588C76.9456 16.6506 76.5678 17.3246 76.0782 17.8807C75.5886 18.4368 75.0053 18.8629 74.3283 19.1591C73.6513 19.4553 72.8988 19.6034 72.0707 19.6034C71.2547 19.6034 70.5051 19.4553 69.8221 19.1591C69.1451 18.8629 68.5588 18.4368 68.0632 17.8807C67.5675 17.3246 67.1837 16.6506 66.9117 15.8588C66.6397 15.0609 66.5037 14.1633 66.5037 13.1659V12.4859C66.5037 11.4825 66.6397 10.5849 66.9117 9.79308C67.1837 9.00124 67.5645 8.32728 68.0541 7.77118C68.5437 7.20904 69.127 6.77988 69.804 6.48369C70.487 6.18751 71.2365 6.03942 72.0526 6.03942C72.8807 6.03942 73.6332 6.18751 74.3102 6.48369C74.9872 6.77988 75.5705 7.20904 76.0601 7.77118C76.5557 8.32728 76.9365 9.00124 77.2025 9.79308C77.4745 10.5849 77.6105 11.4825 77.6105 12.4859ZM75.0899 13.1659V12.4678C75.0899 11.7485 75.0234 11.1168 74.8905 10.5728C74.7575 10.0228 74.561 9.56036 74.3011 9.1856C74.0412 8.81084 73.7208 8.52977 73.34 8.34239C72.9592 8.14896 72.5301 8.05225 72.0526 8.05225C71.569 8.05225 71.1398 8.14896 70.7651 8.34239C70.3963 8.52977 70.082 8.81084 69.8221 9.1856C69.5622 9.56036 69.3627 10.0228 69.2237 10.5728C69.0907 11.1168 69.0242 11.7485 69.0242 12.4678V13.1659C69.0242 13.8792 69.0907 14.5108 69.2237 15.0609C69.3627 15.6109 69.5622 16.0764 69.8221 16.4572C70.0881 16.8319 70.4084 17.116 70.7832 17.3095C71.158 17.5029 71.5871 17.5996 72.0707 17.5996C72.5542 17.5996 72.9834 17.5029 73.3582 17.3095C73.7329 17.116 74.0472 16.8319 74.3011 16.4572C74.561 16.0764 74.7575 15.6109 74.8905 15.0609C75.0234 14.5108 75.0899 13.8792 75.0899 13.1659ZM87.4959 6.22076H89.6537L93.2623 16.158L96.8619 6.22076H99.0288L94.1237 19.422H92.3919L87.4959 6.22076ZM86.4078 6.22076H88.5204L88.9012 15.351V19.422H86.4078V6.22076ZM97.9952 6.22076H100.117V19.422H97.6235V15.351L97.9952 6.22076ZM114.418 14.6075H111.018V12.6491H114.418C114.974 12.6491 115.424 12.5585 115.769 12.3771C116.119 12.1897 116.376 11.9359 116.539 11.6155C116.703 11.2891 116.784 10.9174 116.784 10.5003C116.784 10.0953 116.703 9.71752 116.539 9.36694C116.376 9.01635 116.119 8.73226 115.769 8.51466C115.424 8.29705 114.974 8.18825 114.418 8.18825H111.834V19.422H109.34V6.22076H114.418C115.445 6.22076 116.322 6.40511 117.047 6.77383C117.778 7.1365 118.335 7.64122 118.715 8.28799C119.102 8.92871 119.296 9.6601 119.296 10.4822C119.296 11.3344 119.102 12.0688 118.715 12.6854C118.335 13.3019 117.778 13.7764 117.047 14.1089C116.322 14.4413 115.445 14.6075 114.418 14.6075ZM131.756 8.22452L127.993 19.422H125.355L130.287 6.22076H131.974L131.756 8.22452ZM134.902 19.422L131.121 8.22452L130.895 6.22076H132.59L137.55 19.422H134.902ZM134.73 14.5169V16.4844H127.649V14.5169H134.73ZM156.203 6.22076V19.422H153.7L148.088 10.2645V19.422H145.594V6.22076H148.088L153.718 15.3873V6.22076H156.203ZM166.714 6.22076L169.615 12.3771L172.534 6.22076H175.273L170.884 14.5894V19.422H168.355V14.5894L163.957 6.22076H166.714Z" fill="#E41636"/>
<path d="M49.6132 25.4807V31.2203H48.8642V25.4807H49.6132ZM51.4581 25.4807V26.1035H47.0233V25.4807H51.4581ZM57.0255 25.9892L55.1254 31.2203H54.3488L56.5366 25.4807H57.0373L57.0255 25.9892ZM58.6181 31.2203L56.714 25.9892L56.7022 25.4807H57.2028L59.3986 31.2203H58.6181ZM58.5195 29.0955V29.7184H55.2949V29.0955H58.5195ZM67.2681 28.3623V30.4634C67.1971 30.5686 67.0841 30.6868 66.9291 30.8182C66.774 30.947 66.5598 31.06 66.2865 31.1573C66.0158 31.2519 65.6663 31.2992 65.2379 31.2992C64.8884 31.2992 64.5665 31.2387 64.2721 31.1178C63.9804 30.9943 63.7268 30.8156 63.5113 30.5817C63.2984 30.3452 63.1329 30.0587 63.0146 29.7223C62.899 29.3833 62.8411 28.9996 62.8411 28.5712V28.1258C62.8411 27.6974 62.8911 27.315 62.9909 26.9786C63.0934 26.6423 63.2432 26.3571 63.4403 26.1232C63.6374 25.8867 63.8792 25.708 64.1657 25.5871C64.4521 25.4636 64.7806 25.4018 65.1512 25.4018C65.5901 25.4018 65.9567 25.478 66.251 25.6304C66.548 25.7802 66.7793 25.9879 66.9449 26.2533C67.113 26.5187 67.2208 26.821 67.2681 27.16H66.5073C66.4731 26.9524 66.4048 26.7631 66.3023 26.5923C66.2024 26.4215 66.0592 26.2848 65.8726 26.1823C65.686 26.0772 65.4455 26.0247 65.1512 26.0247C64.8858 26.0247 64.6558 26.0733 64.4613 26.1705C64.2669 26.2678 64.1065 26.407 63.9804 26.5884C63.8543 26.7697 63.7596 26.9892 63.6966 27.2467C63.6361 27.5043 63.6059 27.7947 63.6059 28.1179V28.5712C63.6059 28.9024 63.644 29.198 63.7202 29.4582C63.7991 29.7184 63.9108 29.9405 64.0553 30.1244C64.1998 30.3058 64.372 30.4437 64.5717 30.5383C64.7741 30.633 64.9975 30.6803 65.2419 30.6803C65.5126 30.6803 65.732 30.6579 65.9002 30.6132C66.0684 30.5659 66.1998 30.5108 66.2944 30.4477C66.389 30.382 66.4613 30.3202 66.5112 30.2624V28.9773H65.1827V28.3623H67.2681ZM74.9169 30.6014V31.2203H72.047V30.6014H74.9169ZM72.1968 25.4807V31.2203H71.436V25.4807H72.1968ZM79.5105 25.4807V31.2203H78.7497V25.4807H79.5105ZM88.2157 25.4807V31.2203H87.451L84.5614 26.7934V31.2203H83.8006V25.4807H84.5614L87.4628 29.9194V25.4807H88.2157ZM96.1168 30.6014V31.2203H93.0774V30.6014H96.1168ZM93.2312 25.4807V31.2203H92.4703V25.4807H93.2312ZM95.7147 27.9484V28.5673H93.0774V27.9484H95.7147ZM96.0773 25.4807V26.1035H93.0774V25.4807H96.0773ZM109.116 28.3623V30.4634C109.045 30.5686 108.932 30.6868 108.777 30.8182C108.622 30.947 108.408 31.06 108.134 31.1573C107.864 31.2519 107.514 31.2992 107.086 31.2992C106.736 31.2992 106.414 31.2387 106.12 31.1178C105.828 30.9943 105.575 30.8156 105.359 30.5817C105.146 30.3452 104.981 30.0587 104.863 29.7223C104.747 29.3833 104.689 28.9996 104.689 28.5712V28.1258C104.689 27.6974 104.739 27.315 104.839 26.9786C104.941 26.6423 105.091 26.3571 105.288 26.1232C105.485 25.8867 105.727 25.708 106.014 25.5871C106.3 25.4636 106.629 25.4018 106.999 25.4018C107.438 25.4018 107.805 25.478 108.099 25.6304C108.396 25.7802 108.627 25.9879 108.793 26.2533C108.961 26.5187 109.069 26.821 109.116 27.16H108.355C108.321 26.9524 108.253 26.7631 108.15 26.5923C108.05 26.4215 107.907 26.2848 107.721 26.1823C107.534 26.0772 107.293 26.0247 106.999 26.0247C106.734 26.0247 106.504 26.0733 106.309 26.1705C106.115 26.2678 105.954 26.407 105.828 26.5884C105.702 26.7697 105.608 26.9892 105.545 27.2467C105.484 27.5043 105.454 27.7947 105.454 28.1179V28.5712C105.454 28.9024 105.492 29.198 105.568 29.4582C105.647 29.7184 105.759 29.9405 105.903 30.1244C106.048 30.3058 106.22 30.4437 106.42 30.5383C106.622 30.633 106.845 30.6803 107.09 30.6803C107.36 30.6803 107.58 30.6579 107.748 30.6132C107.916 30.5659 108.048 30.5108 108.142 30.4477C108.237 30.382 108.309 30.3202 108.359 30.2624V28.9773H107.031V28.3623H109.116ZM117.703 28.1692V28.5318C117.703 28.9628 117.649 29.3492 117.541 29.6908C117.434 30.0324 117.279 30.3228 117.076 30.562C116.874 30.8012 116.631 30.9838 116.347 31.11C116.066 31.2361 115.75 31.2992 115.401 31.2992C115.062 31.2992 114.75 31.2361 114.467 31.11C114.185 30.9838 113.941 30.8012 113.733 30.562C113.528 30.3228 113.369 30.0324 113.256 29.6908C113.143 29.3492 113.087 28.9628 113.087 28.5318V28.1692C113.087 27.7382 113.142 27.3531 113.252 27.0141C113.365 26.6725 113.524 26.3821 113.729 26.1429C113.934 25.9011 114.177 25.7172 114.459 25.591C114.742 25.4649 115.054 25.4018 115.393 25.4018C115.742 25.4018 116.058 25.4649 116.339 25.591C116.623 25.7172 116.866 25.9011 117.068 26.1429C117.273 26.3821 117.43 26.6725 117.537 27.0141C117.648 27.3531 117.703 27.7382 117.703 28.1692ZM116.95 28.5318V28.1613C116.95 27.8196 116.915 27.5174 116.844 27.2546C116.775 26.9918 116.674 26.771 116.54 26.5923C116.406 26.4136 116.242 26.2783 116.047 26.1863C115.855 26.0943 115.637 26.0483 115.393 26.0483C115.156 26.0483 114.942 26.0943 114.75 26.1863C114.561 26.2783 114.398 26.4136 114.262 26.5923C114.128 26.771 114.024 26.9918 113.95 27.2546C113.877 27.5174 113.84 27.8196 113.84 28.1613V28.5318C113.84 28.8761 113.877 29.181 113.95 29.4464C114.024 29.7092 114.129 29.9313 114.266 30.1126C114.405 30.2913 114.569 30.4267 114.758 30.5186C114.95 30.6106 115.164 30.6566 115.401 30.6566C115.648 30.6566 115.867 30.6106 116.059 30.5186C116.251 30.4267 116.413 30.2913 116.544 30.1126C116.678 29.9313 116.779 29.7092 116.848 29.4464C116.916 29.181 116.95 28.8761 116.95 28.5318ZM125.395 30.6014V31.2203H122.356V30.6014H125.395ZM122.51 25.4807V31.2203H121.749V25.4807H122.51ZM124.993 27.9484V28.5673H122.356V27.9484H124.993ZM125.356 25.4807V26.1035H122.356V25.4807H125.356ZM132.303 29.7696C132.303 29.6356 132.282 29.5173 132.24 29.4149C132.2 29.3097 132.129 29.2151 132.027 29.131C131.927 29.0469 131.788 28.9668 131.609 28.8906C131.433 28.8143 131.209 28.7368 130.939 28.658C130.655 28.5739 130.399 28.4806 130.17 28.3781C129.941 28.273 129.746 28.1534 129.583 28.0194C129.42 27.8853 129.295 27.7316 129.208 27.5581C129.121 27.3847 129.078 27.1863 129.078 26.9629C129.078 26.7395 129.124 26.5332 129.216 26.344C129.308 26.1547 129.439 25.9905 129.61 25.8512C129.784 25.7093 129.99 25.5989 130.229 25.5201C130.468 25.4412 130.735 25.4018 131.029 25.4018C131.46 25.4018 131.826 25.4846 132.125 25.6502C132.428 25.8131 132.658 26.0273 132.815 26.2927C132.973 26.5555 133.052 26.8367 133.052 27.1363H132.295C132.295 26.9208 132.249 26.7303 132.157 26.5647C132.065 26.3965 131.926 26.2651 131.739 26.1705C131.552 26.0733 131.316 26.0247 131.029 26.0247C130.759 26.0247 130.535 26.0654 130.359 26.1469C130.183 26.2283 130.052 26.3387 129.965 26.478C129.881 26.6173 129.839 26.7763 129.839 26.955C129.839 27.0759 129.864 27.1863 129.914 27.2861C129.966 27.3834 130.047 27.474 130.154 27.5581C130.265 27.6422 130.404 27.7198 130.572 27.7907C130.743 27.8617 130.947 27.93 131.183 27.9957C131.509 28.0877 131.79 28.1902 132.027 28.3032C132.263 28.4162 132.458 28.5437 132.61 28.6856C132.765 28.8249 132.88 28.9839 132.953 29.1626C133.029 29.3386 133.068 29.5384 133.068 29.7618C133.068 29.9957 133.02 30.2072 132.926 30.3964C132.831 30.5857 132.696 30.7473 132.52 30.8813C132.343 31.0153 132.132 31.1191 131.885 31.1927C131.64 31.2637 131.367 31.2992 131.065 31.2992C130.8 31.2992 130.538 31.2624 130.28 31.1888C130.026 31.1152 129.793 31.0048 129.583 30.8577C129.375 30.7105 129.208 30.5291 129.082 30.3136C128.959 30.0955 128.897 29.8432 128.897 29.5568H129.654C129.654 29.7539 129.692 29.9234 129.768 30.0653C129.844 30.2046 129.948 30.3202 130.079 30.4122C130.213 30.5042 130.365 30.5725 130.533 30.6172C130.704 30.6592 130.881 30.6803 131.065 30.6803C131.33 30.6803 131.555 30.6435 131.739 30.5699C131.923 30.4963 132.062 30.3912 132.157 30.2545C132.254 30.1179 132.303 29.9562 132.303 29.7696ZM150.511 27.9484V28.5673H147.404V27.9484H150.511ZM147.523 25.4807V31.2203H146.762V25.4807H147.523ZM151.173 25.4807V31.2203H150.416V25.4807H151.173ZM159.078 30.6014V31.2203H156.039V30.6014H159.078ZM156.192 25.4807V31.2203H155.431V25.4807H156.192ZM158.676 27.9484V28.5673H156.039V27.9484H158.676ZM159.038 25.4807V26.1035H156.039V25.4807H159.038ZM162.926 25.4807H164.827C165.258 25.4807 165.622 25.5464 165.919 25.6778C166.218 25.8092 166.445 26.0036 166.6 26.2612C166.758 26.5161 166.837 26.8302 166.837 27.2033C166.837 27.4661 166.783 27.7066 166.675 27.9247C166.57 28.1402 166.418 28.3242 166.218 28.4766C166.021 28.6264 165.784 28.7381 165.509 28.8117L165.296 28.8945H163.51L163.502 28.2756H164.85C165.124 28.2756 165.351 28.2283 165.532 28.1337C165.714 28.0364 165.85 27.9063 165.942 27.7434C166.034 27.5805 166.08 27.4004 166.08 27.2033C166.08 26.9826 166.037 26.7894 165.95 26.6239C165.863 26.4583 165.727 26.3308 165.54 26.2415C165.356 26.1495 165.118 26.1035 164.827 26.1035H163.687V31.2203H162.926V25.4807ZM166.281 31.2203L164.886 28.6186L165.678 28.6146L167.093 31.173V31.2203H166.281ZM174.454 30.6014V31.2203H171.415V30.6014H174.454ZM171.569 25.4807V31.2203H170.808V25.4807H171.569ZM174.052 27.9484V28.5673H171.415V27.9484H174.052ZM174.415 25.4807V26.1035H171.415V25.4807H174.415Z" fill="#4A4A4A"/>
</svg>
