<svg width="38" height="40" viewBox="0 0 38 40" fill="none" xmlns="http://www.w3.org/2000/svg">
<path d="M9.57958 7.73591C10.9883 6.58608 12.6234 5.74583 14.3784 5.26987C16.1334 4.79391 17.969 4.69291 19.7656 4.97344C21.5623 5.25398 23.2797 5.90976 24.8061 6.89809C26.3325 7.88641 27.6336 9.18513 28.6247 10.7097C29.6158 12.2342 30.2748 13.9504 30.5586 15.7466C30.8425 17.5427 30.7448 19.3784 30.2721 21.1343C29.7994 22.8902 28.9621 24.5269 27.8149 25.9377C26.6677 27.3485 25.2362 28.5019 23.6136 29.3228L22.6562 27.4304C24.013 26.744 25.2101 25.7795 26.1694 24.5997C27.1288 23.4199 27.8289 22.0513 28.2242 20.583C28.6195 19.1147 28.7012 17.5796 28.4638 16.0776C28.2265 14.5756 27.6754 13.1405 26.8466 11.8656C26.0178 10.5908 24.9298 9.50475 23.6534 8.67829C22.377 7.85182 20.9409 7.30344 19.4385 7.06886C17.9361 6.83427 16.4011 6.91872 14.9335 7.31673C13.4659 7.71474 12.0986 8.41738 10.9206 9.37889L9.57958 7.73591Z" fill="#4A4A4A"/>
<path d="M2.82247 8.15897C4.1718 6.06028 5.948 4.26931 8.03544 2.90265C10.1229 1.53598 12.4747 0.624276 14.9379 0.226883C17.4011 -0.17051 19.9203 -0.0446784 22.3317 0.596185C24.743 1.23705 26.9923 2.37857 28.9332 3.94644C30.874 5.51431 32.4629 7.47336 33.5964 9.69606C34.7299 11.9188 35.3825 14.3553 35.5119 16.8469C35.6412 19.3386 35.2443 21.8296 34.347 24.1577C33.4498 26.4858 32.0722 28.5988 30.3041 30.3592L28.251 28.2971C29.7295 26.825 30.8815 25.058 31.6318 23.1112C32.3821 21.1644 32.714 19.0814 32.6058 16.9978C32.4977 14.9142 31.9519 12.8767 31.0041 11.018C30.0562 9.15936 28.7276 7.52115 27.1046 6.21006C25.4816 4.89897 23.6006 3.9444 21.5842 3.40849C19.5678 2.87259 17.4612 2.76736 15.4014 3.09967C13.3416 3.43198 11.3749 4.19437 9.62937 5.33721C7.8838 6.48005 6.3985 7.97771 5.27016 9.73268L2.82247 8.15897Z" fill="#E41636"/>
<path d="M35.1225 30.9908C33.7732 33.0894 31.997 34.8804 29.9095 36.2471C27.8221 37.6137 25.4702 38.5254 23.007 38.9228C20.5439 39.3202 18.0246 39.1944 15.6133 38.5535C13.202 37.9127 10.9527 36.7711 9.0118 35.2033C7.07093 33.6354 5.48204 31.6764 4.34856 29.4537C3.21508 27.231 2.56242 24.7945 2.4331 22.3028C2.30376 19.8111 2.70065 17.3201 3.59792 14.992C4.49519 12.6639 5.87273 10.5509 7.64083 8.79052L9.69396 10.8527C8.21542 12.3247 7.0635 14.0917 6.31318 16.0385C5.56286 17.9853 5.23097 20.0684 5.33912 22.152C5.44727 24.2355 5.99303 26.273 6.94088 28.1317C7.88872 29.9904 9.2174 31.6286 10.8404 32.9397C12.4634 34.2507 14.3443 35.2053 16.3607 35.7412C18.3771 36.2771 20.4838 36.3824 22.5436 36.05C24.6033 35.7177 26.57 34.9553 28.3156 33.8125C30.0612 32.6697 31.5465 31.172 32.6748 29.417L35.1225 30.9908Z" fill="#4A4A4A"/>
<path d="M28.3654 30.8114C26.9567 31.9612 25.3216 32.8015 23.5665 33.2774C21.8115 33.7534 19.9759 33.8544 18.1793 33.5739C16.3827 33.2933 14.6653 32.6375 13.1389 31.6492C11.6125 30.6609 10.3114 29.3622 9.32026 27.8376C8.32913 26.3131 7.67019 24.5969 7.38635 22.8007C7.10251 21.0046 7.20013 19.1689 7.67286 17.413C8.14559 15.6571 8.98282 14.0204 10.1301 12.6096C11.2773 11.1988 12.7088 10.0454 14.3314 9.22449L15.2888 11.1169C13.9319 11.8033 12.7349 12.7678 11.7755 13.9476C10.8162 15.1274 10.116 16.496 9.72074 17.9643C9.32543 19.4326 9.2438 20.9677 9.48115 22.4697C9.71851 23.9717 10.2695 25.4068 11.0983 26.6817C11.9272 27.9565 13.0152 29.0426 14.2916 29.869C15.568 30.6955 17.0041 31.2439 18.5065 31.4784C20.0089 31.713 21.5438 31.6286 23.0114 31.2306C24.479 30.8326 25.8463 30.1299 27.0243 29.1684L28.3654 30.8114Z" fill="#E41636"/>
</svg>
