<svg width="24" height="21" viewBox="0 0 24 21" fill="none" xmlns="http://www.w3.org/2000/svg">
<path d="M6.92831 21C5.078 21 3.31348 20.2684 2.02232 18.9772C0.731587 17.6861 0 15.922 0 14.0717C0 12.221 0.731587 10.4564 2.02232 9.1657L10.6725 0.515554C10.8876 0.300432 11.232 0.300432 11.4467 0.515554C11.6623 0.730677 11.6623 1.07513 11.4467 1.29026L2.75433 9.89686C1.63518 11.016 1.0325 12.4792 1.0325 14.0282C1.0325 15.5775 1.63518 17.0838 2.75433 18.1599C3.87305 19.2786 5.33623 19.8809 6.8852 19.8809C8.43459 19.8809 9.94088 19.2786 11.0169 18.1599L18.2035 11.0591C18.4186 10.844 18.7626 10.844 18.9777 11.0591C19.1929 11.2742 19.1929 11.6187 18.9777 11.8338L11.8343 18.9341C10.5004 20.2684 8.77862 21 6.92831 21Z" fill="#E41636"/>
<path d="M18.5889 11.9622C18.46 11.9622 18.3307 11.9191 18.2018 11.7902C17.9867 11.5751 17.9867 11.2306 18.2018 11.0155L22.0749 7.14244C22.634 6.58287 22.9354 5.76549 22.8491 4.86189C22.7633 3.91476 22.3331 3.01116 21.6442 2.32268C20.1814 0.859506 18.0294 0.68749 16.7813 1.89243C16.5662 2.10755 16.2222 2.10755 16.007 1.89243C15.7919 1.67731 15.7919 1.33286 16.007 1.11774C17.6422 -0.517448 20.4824 -0.345432 22.3758 1.54799C23.2794 2.45201 23.839 3.61384 23.9252 4.77567C24.011 5.98061 23.6238 7.09934 22.8065 7.91715L18.933 11.7902C18.8472 11.9191 18.7178 11.9622 18.5889 11.9622Z" fill="#E41636"/>
<path d="M6.92745 16.6964C6.19587 16.6964 5.55051 16.4386 5.03404 15.9222C4.51758 15.4057 4.25977 14.7603 4.25977 14.0283C4.25977 13.2972 4.51758 12.6514 5.03404 12.1349L16.051 1.11842C16.2661 0.903296 16.6101 0.903296 16.8252 1.11842C17.0403 1.33354 17.0403 1.67799 16.8252 1.89311L5.80873 12.9096C5.50739 13.2109 5.33538 13.5981 5.33538 14.0283C5.33538 14.459 5.50739 14.8461 5.80873 15.1475C6.10965 15.4484 6.49721 15.6208 6.92745 15.6208C7.3577 15.6208 7.74526 15.4484 8.0466 15.1475L19.0631 4.17367C19.2782 3.95855 19.6227 3.95855 19.8378 4.17367C20.0529 4.38922 20.0529 4.73324 19.8378 4.94837L8.82131 15.9222C8.30484 16.4386 7.61593 16.6964 6.92745 16.6964Z" fill="#E41636"/>
</svg>
