<svg width="21" height="21" viewBox="0 0 21 21" fill="none" xmlns="http://www.w3.org/2000/svg">
<path d="M0.336914 0.336914C0.825298 -0.15147 1.51881 -0.0232966 2.13184 0.188477C2.78896 0.415506 3.65713 0.850051 4.75195 1.39746L18.0811 8.0625C18.8463 8.44511 19.4728 8.75627 19.9004 9.05469C20.3249 9.35102 20.6992 9.7342 20.6992 10.2988C20.699 10.8632 20.3248 11.2457 19.9004 11.542C19.4728 11.8404 18.8463 12.1516 18.0811 12.5342L4.75195 19.1992C3.65713 19.7466 2.78897 20.1812 2.13184 20.4082C1.55709 20.6068 0.911506 20.7324 0.430664 20.3447L0.336914 20.2598C-0.151095 19.7715 -0.0231721 19.0786 0.188477 18.4658C0.41551 17.8086 0.849962 16.9397 1.39746 15.8447L3.83594 10.9688C4.07727 10.4861 4.11122 10.389 4.11133 10.2988C4.11133 10.2085 4.07769 10.1114 3.83594 9.62793L1.39746 4.75195C0.850071 3.65717 0.41553 2.78896 0.188477 2.13184C-0.0232755 1.51888 -0.151298 0.825291 0.336914 0.336914ZM1.80566 1.13281C1.18213 0.917433 1.06521 1.02269 1.04395 1.04395C1.02235 1.06559 0.917844 1.18339 1.13281 1.80566C1.33306 2.38517 1.73128 3.1813 2.29297 4.30469L4.73047 9.17969C4.92747 9.57368 5.11328 9.91701 5.11328 10.2988C5.11315 10.6804 4.92737 11.0232 4.73047 11.417L2.29297 16.292C1.73131 17.4153 1.33307 18.2115 1.13281 18.791C0.91807 19.4126 1.0222 19.5309 1.04395 19.5527C1.06521 19.574 1.18209 19.6793 1.80566 19.4639C2.38513 19.2636 3.18143 18.8663 4.30469 18.3047L17.6338 11.6396C18.4293 11.2419 18.9752 10.9689 19.3281 10.7227C19.6831 10.4749 19.6991 10.3524 19.6992 10.2988C19.6992 10.2455 19.6841 10.1225 19.3281 9.87402C18.9752 9.62776 18.4293 9.35479 17.6338 8.95703L4.30469 2.29199C3.18145 1.73038 2.38512 1.33304 1.80566 1.13281Z" fill="#222222"/>
<path d="M12.4805 10.7986C12.7566 10.7986 12.9805 10.5747 12.9805 10.2986C12.9805 10.0224 12.7566 9.79858 12.4805 9.79858V10.2986V10.7986ZM12.4805 10.2986V9.79858L4.48047 9.79858V10.2986V10.7986L12.4805 10.7986V10.2986Z" fill="#222222"/>
</svg>
