<svg width="20" height="20" viewBox="0 0 20 20" fill="none" xmlns="http://www.w3.org/2000/svg">
<path d="M5 8H11M8.5 6L7.5 10" stroke="#DD0033" stroke-width="1.5" stroke-linecap="round" stroke-linejoin="round"/>
<path d="M8 13.7887V14.8771C8 15.2399 8.24927 15.9437 9.24635 15.8566C10.2434 15.7695 13.2875 15.5301 14.685 15.4213L16.3845 16.945C16.4601 17.0175 16.6338 17.0756 16.7244 16.7273C16.8151 16.379 16.9133 15.5664 16.951 15.2036L18.1974 15.0948C18.4995 15.0585 19.0812 14.7465 18.9905 13.7887C18.8999 12.831 18.8624 11.1404 18.8246 10.306C18.7491 9.97952 18.5373 9.23581 17.7442 9.10884C17.0643 9 16.2712 9.03628 15.9313 9" stroke="#DD0033" stroke-width="1.5" stroke-linecap="round" stroke-linejoin="round"/>
<path d="M4.33575 15L6.71358 12.7679C8.81397 12.9637 13.2288 13.3788 14.0848 13.4728C14.9408 13.5667 15.3133 12.7287 15.3926 12.298C15.6304 10.1442 16.0822 5.53126 15.987 4.30949C15.8919 3.08771 14.6792 2.93891 14.0848 3.01723C10.5577 3.48714 3.31323 4.45046 2.55232 4.54444C1.79142 4.63842 1.52193 5.28847 1.4823 5.60175L1.00679 10.7708C0.911679 11.8046 1.83903 12.2197 2.3146 12.298L3.97908 12.533L4.33575 15Z" stroke="#DD0033" stroke-width="1.5" stroke-linecap="round" stroke-linejoin="round"/>
</svg>
