<svg width="22" height="22" viewBox="0 0 22 22" fill="none" xmlns="http://www.w3.org/2000/svg">
<path d="M20.2376 8.91669L18.7457 8.95508C18.5192 8.01999 18.1683 7.30918 17.7103 6.61249L17.7144 6.58471L18.7421 5.49119C18.9706 5.25066 18.9608 4.86476 18.7202 4.63622L16.8384 2.84569C16.5977 2.61715 16.2176 2.6255 15.989 2.86617L14.9788 3.9468C14.2357 3.52023 13.5862 3.21824 12.6411 3.05268L12.6408 3.04585L12.6026 1.55382C12.5941 1.22209 12.2837 0.99173 11.9522 1.00023L9.35737 1.06685C9.02564 1.07535 8.90833 1.31663 8.91683 1.64836L8.95507 3.14024C8.01998 3.36681 7.28202 3.71842 6.58533 4.17625L6.54405 4.17246L5.44371 3.14509C5.20333 2.91655 4.81394 2.92657 4.58541 3.1671L2.79323 5.04898C2.56469 5.28951 2.57228 5.6698 2.81265 5.89834L3.89463 6.96485C3.46791 7.70813 3.16699 8.41394 3.00143 9.35905L2.9946 9.3592L1.50258 9.39744C1.17085 9.40609 0.991791 9.60231 1.00029 9.93404L1.06691 12.5289C1.0754 12.8604 1.26555 13.0919 1.59712 13.0834L3.08899 13.045C3.31555 13.9801 3.66564 14.6617 4.12362 15.3584L4.11908 15.3716L3.09111 16.4579C2.86273 16.6984 2.87244 17.0807 3.11297 17.3092L4.99498 19.0979C5.23551 19.3264 5.61564 19.3172 5.84418 19.0765L6.93785 17.9932C7.68097 18.4199 8.41393 18.7191 9.35903 18.8847L9.35918 18.8917L9.39758 20.3837C9.40608 20.7151 9.551 21.0083 9.88257 20.9998L12.4775 20.9334C12.8089 20.9247 13.0918 20.6207 13.0833 20.289L13.0451 18.7971C13.98 18.5706 14.6345 18.2212 15.3312 17.7632L15.3309 17.7681L16.4103 18.7961C16.6508 19.0246 17.0297 19.0151 17.2583 18.7744L19.0451 16.8926C19.2737 16.6521 19.2637 16.2718 19.0231 16.0434L17.9407 15.0061C18.3674 14.2628 18.6629 13.3981 18.8333 12.641L18.84 12.6408L20.3321 12.6026C20.6637 12.5941 21.0083 12.3351 20.9998 12.0035L20.9332 9.40867C20.9247 9.07694 20.5692 8.90834 20.2376 8.91669Z" stroke="#DD0033" stroke-miterlimit="10" stroke-linejoin="round"/>
<path d="M8.15625 12.4082C8.15625 12.4082 8.16532 12.427 8.1788 12.4553C8.19357 12.483 8.20782 12.5227 8.23114 12.5575C8.27429 12.6291 8.31757 12.7007 8.31757 12.7007C8.31757 12.7007 8.32832 12.7186 8.34452 12.7454C8.36007 12.7727 8.38236 12.808 8.4084 12.8407C8.45829 12.9078 8.50804 12.9748 8.50804 12.9748C8.50092 12.9808 8.72573 13.2277 8.72573 13.2277C8.72573 13.2277 8.73959 13.2432 8.76058 13.2665C8.78365 13.2877 8.81423 13.316 8.84494 13.3443C8.90648 13.4006 8.96803 13.4568 8.96803 13.4568C8.96803 13.4568 8.98215 13.4725 9.00781 13.4905C9.03269 13.5094 9.06612 13.5344 9.09942 13.5594C9.16602 13.6096 9.23262 13.6597 9.23262 13.6597C9.23262 13.6597 9.30362 13.7034 9.3745 13.7471C9.41013 13.7688 9.44564 13.7905 9.47233 13.8068C9.4985 13.8239 9.51768 13.8323 9.51768 13.8323C9.51768 13.8323 9.59258 13.8686 9.6676 13.905C9.70505 13.9231 9.74249 13.9413 9.77061 13.9549C9.79924 13.9674 9.81907 13.9737 9.81907 13.9737C9.81907 13.9737 10.1304 14.0925 10.1334 14.0828C10.1334 14.0828 10.4554 14.1678 10.4573 14.1582C10.4573 14.1582 10.5396 14.1708 10.6218 14.1835C10.663 14.19 10.7041 14.1968 10.7353 14.1968C10.7665 14.1983 10.7872 14.1994 10.7872 14.1994C10.7872 14.1994 10.8703 14.2035 10.9534 14.2078C10.995 14.2107 11.0365 14.2119 11.0676 14.2089C11.0989 14.2073 11.1196 14.2063 11.1196 14.2063C11.1196 14.2063 11.2027 14.202 11.2857 14.1978C11.3274 14.197 11.3688 14.1927 11.3995 14.1867C11.4303 14.1819 11.4509 14.1788 11.4509 14.1788C11.4509 14.1788 11.5331 14.1661 11.6153 14.1535C11.6568 14.1488 11.697 14.1378 11.7272 14.1297C11.7574 14.1219 11.7774 14.1167 11.7774 14.1167C11.7774 14.1167 11.858 14.0958 11.9386 14.075C11.9795 14.0665 12.0173 14.0481 12.047 14.0386C12.0762 14.0278 12.0958 14.0206 12.0958 14.0206C12.0958 14.0206 12.1739 13.9918 12.2521 13.963C12.3279 13.9288 12.4024 13.8914 12.4024 13.8914C12.4024 13.8914 12.4771 13.8546 12.5518 13.8179C12.6229 13.7743 12.6939 13.7309 12.6939 13.7309C12.6939 13.7309 12.7118 13.7201 12.7384 13.7038C12.7645 13.6867 12.802 13.6677 12.8342 13.6411C12.9008 13.591 12.9674 13.5408 12.9674 13.5408C12.9674 13.5408 12.9842 13.5283 13.0092 13.5095C13.035 13.4916 13.067 13.465 13.097 13.436C13.1586 13.3796 13.2201 13.3233 13.2201 13.3233C13.2267 13.33 13.4492 13.0808 13.4492 13.0808C13.4492 13.0808 13.4631 13.0653 13.4841 13.0421C13.5027 13.0169 13.5276 12.9834 13.5526 12.9499C13.6024 12.8829 13.6522 12.8158 13.6522 12.8158C13.6522 12.8158 13.6659 12.7998 13.6813 12.7724C13.6975 12.7456 13.719 12.7098 13.7406 12.6741C13.7838 12.6025 13.827 12.5309 13.827 12.5309C13.827 12.5309 13.8632 12.4556 13.8992 12.3801C13.9174 12.3424 13.9354 12.3047 13.9488 12.2764C13.9632 12.2485 13.9694 12.2284 13.9694 12.2284C13.9694 12.2284 13.9979 12.1498 14.0266 12.0712C14.0408 12.0319 14.0552 11.9926 14.066 11.9631C14.0753 11.9332 14.0797 11.9128 14.0797 11.9128C14.0797 11.9128 14.1004 11.8317 14.1212 11.7506C14.1311 11.7099 14.1427 11.6696 14.1488 11.639C14.1536 11.6079 14.1567 11.5872 14.1567 11.5872C14.1567 11.5872 14.2095 11.2564 14.1996 11.2555C14.1996 11.2555 14.2184 10.921 14.2084 10.921C14.2084 10.921 14.1928 10.5865 14.1831 10.5874C14.1831 10.5874 14.1707 10.5047 14.1581 10.4219C14.1524 10.3805 14.1457 10.3391 14.1365 10.309C14.1287 10.2786 14.1235 10.2584 14.1235 10.2584C14.1235 10.2584 14.1028 10.1773 14.082 10.0962C14.0731 10.0551 14.059 10.0159 14.0477 9.98657C14.0369 9.9571 14.0298 9.93741 14.0298 9.93741C14.0298 9.93741 14.0012 9.85879 13.9727 9.78016C13.9602 9.74013 13.9383 9.70402 13.9259 9.6752C13.9124 9.64704 13.9034 9.62813 13.9034 9.62813C13.9034 9.62813 13.8672 9.55277 13.8311 9.47727C13.7883 9.40556 13.7455 9.33372 13.7455 9.33372C13.7455 9.33372 13.7036 9.26135 13.6578 9.1916C13.6081 9.12445 13.5582 9.05743 13.5582 9.05743C13.5582 9.05743 13.5457 9.04074 13.5271 9.01557C13.508 8.99067 13.4848 8.95585 13.4556 8.926C13.3996 8.86393 13.3436 8.802 13.3436 8.802C13.3436 8.802 13.3296 8.78661 13.3086 8.76327C13.2887 8.73915 13.2583 8.71047 13.2271 8.68283C13.1656 8.6265 13.1039 8.57017 13.1039 8.57017C13.11 8.56274 12.8418 8.36429 12.8418 8.36429C12.8418 8.36429 12.825 8.35203 12.7998 8.33352C12.7731 8.31722 12.7376 8.29557 12.7021 8.2738C12.6309 8.23025 12.5598 8.18683 12.5598 8.18683C12.5598 8.18683 12.5424 8.17523 12.5139 8.16232C12.4858 8.14876 12.4484 8.13064 12.4109 8.11238C12.3359 8.07626 12.2609 8.04002 12.2609 8.04002C12.2609 8.04002 12.1827 8.0112 12.1046 7.98238C12.0656 7.96804 12.0265 7.9537 11.9972 7.94288C11.9683 7.93114 11.9477 7.9271 11.9477 7.9271C11.9477 7.9271 11.8671 7.90624 11.7866 7.88538C11.7463 7.87494 11.7061 7.86452 11.6759 7.85669C11.6454 7.84965 11.6247 7.84756 11.6247 7.84756C11.6247 7.84756 11.5424 7.83505 11.4601 7.8224C11.419 7.81614 11.378 7.80976 11.3471 7.80506C11.3159 7.8035 11.2952 7.80245 11.2952 7.80245C11.2952 7.80245 11.2121 7.79815 11.1289 7.79398C11.0875 7.79202 11.0459 7.79006 11.0148 7.78863C10.9835 7.78941 10.9628 7.78993 10.9628 7.78993C10.9628 7.78993 10.942 7.79046 10.9109 7.79124C10.8796 7.7915 10.838 7.79333 10.7966 7.79724C10.7135 7.80206 10.631 7.81314 10.631 7.81314C10.631 7.81314 10.548 7.82123 10.4665 7.83779C10.3843 7.85082 10.3034 7.87103 10.3034 7.87103C10.3034 7.87103 10.222 7.88825 10.1424 7.91276C10.0619 7.93388 9.98376 7.96296 9.98376 7.96296C9.98376 7.96296 9.96225 7.97026 9.92467 7.98304C9.88787 7.99777 9.83513 8.01876 9.77203 8.04393C9.64712 8.09804 9.48451 8.17927 9.33084 8.27628C9.17651 8.37198 9.03256 8.48372 8.93071 8.57434C8.87862 8.61828 8.8382 8.65831 8.80956 8.68582C8.7808 8.71334 8.76447 8.72911 8.76447 8.72911" stroke="#DD0033" stroke-miterlimit="10"/>
<path d="M7.6635 11.9674C7.6358 11.8647 7.66389 11.7597 7.71052 11.683C7.7586 11.6055 7.83279 11.5545 7.92071 11.5423C8.00862 11.5302 8.09367 11.5572 8.15924 11.6055C8.22652 11.6539 8.26636 11.7255 8.28987 11.8089C8.30986 11.893 8.29249 11.9794 8.25016 12.0556C8.21045 12.1306 8.14827 12.1944 8.06388 12.2261C7.98054 12.2573 7.88988 12.2484 7.81581 12.2018C7.74449 12.1549 7.6874 12.071 7.6635 11.9674ZM8.69248 11.7069C8.66805 11.6256 8.64689 11.5474 8.59647 11.4788C8.57308 11.444 8.54408 11.4113 8.51404 11.3797C8.48647 11.3478 8.45525 11.3176 8.42064 11.2895C8.28256 11.1782 8.09419 11.0928 7.89184 11.0917C7.68936 11.0907 7.50935 11.1853 7.3846 11.3647C7.35338 11.4093 7.32568 11.4587 7.30217 11.5123C7.28101 11.5655 7.26664 11.6227 7.2558 11.6832C7.23751 11.8031 7.22588 11.9383 7.26089 12.0694C7.29289 12.201 7.33705 12.3234 7.40824 12.4202C7.47944 12.5171 7.56252 12.5938 7.65096 12.6454C7.76865 12.711 7.89706 12.7313 8.02169 12.7113C8.03018 12.7308 8.03553 12.7431 8.03553 12.7431L8.22103 12.6432L8.40666 12.5433C8.40666 12.5433 8.40104 12.5305 8.39333 12.5131C8.48621 12.4246 8.55976 12.3206 8.61201 12.2132C8.65486 12.128 8.68399 12.0421 8.69509 11.9585C8.70607 11.8749 8.7143 11.7886 8.69248 11.7069Z" fill="#DD0033"/>
<path d="M6.13586 6.85655C6.13586 6.85655 6.11964 6.87585 6.09554 6.90487C6.07158 6.93374 6.03854 6.97172 6.00973 7.01294C5.95001 7.09384 5.89028 7.17488 5.89028 7.17488C5.89028 7.17488 5.87527 7.19511 5.85298 7.22537C5.82979 7.25516 5.80129 7.29669 5.77446 7.3393C5.71958 7.42374 5.6647 7.50804 5.6647 7.50804C5.6647 7.50804 5.60755 7.5911 5.5598 7.68002C5.51008 7.76755 5.4602 7.85509 5.4602 7.85509C5.4602 7.85509 5.40942 7.94216 5.36667 8.03371C5.3221 8.12417 5.27753 8.21464 5.27753 8.21464C5.27753 8.21464 5.26646 8.23733 5.24979 8.2713C5.23508 8.30603 5.21553 8.35266 5.19582 8.39913C5.15686 8.49222 5.11775 8.58531 5.11775 8.58531C5.11775 8.58531 5.10699 8.60816 5.0941 8.64382C5.08167 8.67964 5.06484 8.72719 5.04817 8.77489C5.01466 8.87014 4.98131 8.96555 4.98131 8.96555C4.98131 8.96555 4.97176 8.98902 4.96221 9.02576C4.95175 9.06219 4.93796 9.11082 4.92416 9.1593C4.89657 9.25656 4.86883 9.35382 4.86883 9.35382C4.86883 9.35382 4.86171 9.37806 4.85428 9.41526C4.84609 9.45231 4.83533 9.50171 4.82441 9.55111C4.80273 9.64992 4.78106 9.74872 4.78106 9.74872L4.7183 10.1486L4.68055 10.5515L4.66797 10.9563C4.66797 10.9563 4.66948 11.0574 4.671 11.1587C4.67403 11.2598 4.6804 11.3609 4.6804 11.3609C4.6804 11.3609 4.68585 11.4619 4.69571 11.5627C4.70435 11.6635 4.71709 11.764 4.71709 11.764C4.71709 11.764 4.76802 12.2032 4.88429 12.6289C4.99375 13.0563 5.16671 13.4621 5.16671 13.4621" stroke="#DD0033" stroke-miterlimit="10"/>
<path d="M6.97728 6.62311C6.90068 6.69506 6.79995 6.72672 6.69826 6.72396C6.59915 6.72331 6.49696 6.68596 6.41826 6.60914C6.33956 6.53216 6.30005 6.42904 6.30231 6.32218C6.30669 6.21792 6.35511 6.11253 6.44158 6.03166C6.61583 5.86796 6.88335 5.89296 7.01695 6.06365C7.15493 6.2392 7.12837 6.48036 6.97728 6.62311ZM7.43314 5.75038C7.29193 5.54235 7.07671 5.41697 6.82927 5.39343C6.70473 5.37978 6.57615 5.3957 6.45211 5.44036C6.32758 5.48453 6.20126 5.55031 6.0973 5.65148C5.88046 5.84506 5.77326 6.11204 5.76953 6.35596C5.76969 6.51723 5.81504 6.66988 5.8986 6.80126C5.88386 6.81847 5.87301 6.83131 5.87301 6.83131L6.06928 6.99614C6.06928 6.99614 6.06928 6.99614 6.06944 6.99614L6.26571 7.16114C6.26571 7.16114 6.27689 7.14815 6.29163 7.13061C6.43154 7.19362 6.58004 7.22512 6.72255 7.2235C6.9504 7.22463 7.15687 7.14993 7.32173 7.00345C7.40027 6.9255 7.46763 6.843 7.51265 6.74442C7.55702 6.64536 7.58553 6.53769 7.59881 6.42823C7.62196 6.20672 7.57435 5.95857 7.43314 5.75038Z" fill="#DD0033"/>
<path d="M9.25586 17.0859C9.25586 17.0859 9.34933 17.1105 9.4428 17.1352C9.53703 17.1569 9.63127 17.1783 9.63127 17.1783C9.63127 17.1783 9.7261 17.1969 9.82094 17.2155C9.91623 17.2311 10.0117 17.2468 10.0117 17.2468C10.0117 17.2468 10.1071 17.2614 10.2032 17.272C10.2991 17.2853 10.3954 17.2917 10.3954 17.2917C10.3954 17.2917 10.4916 17.3018 10.5883 17.3053C10.6848 17.3115 10.7813 17.3132 10.7813 17.3132C10.7813 17.3132 10.8779 17.3171 10.9746 17.3142C11.0711 17.3097 11.1676 17.3053 11.1676 17.3053C11.1676 17.3053 11.2641 17.3008 11.3606 17.2964C11.4089 17.2941 11.4572 17.292 11.4933 17.2903C11.5297 17.2897 11.5534 17.2842 11.5534 17.2842L11.9363 17.2311C11.9363 17.2311 11.9602 17.2277 11.9961 17.2228C12.0319 17.217 12.0803 17.2134 12.127 17.2004C12.2211 17.1785 12.3153 17.1566 12.3153 17.1566C12.3153 17.1566 12.4094 17.1346 12.5035 17.1127C12.5506 17.1016 12.5976 17.0906 12.633 17.0822C12.6674 17.0709 12.6903 17.0633 12.6903 17.0633L13.0575 16.9419C13.0575 16.9419 13.0804 16.9343 13.1149 16.9228C13.1499 16.9129 13.1941 16.8934 13.2384 16.8739C13.3272 16.8355 13.4159 16.7971 13.4159 16.7971C13.4159 16.7971 13.5047 16.7588 13.5933 16.7202C13.638 16.7016 13.6821 16.6818 13.7135 16.6632C13.7453 16.6459 13.7667 16.6344 13.7667 16.6344L14.1068 16.4499C14.1068 16.4499 14.1286 16.4393 14.1595 16.4202C14.1898 16.4003 14.2301 16.3736 14.2705 16.3469C14.3513 16.2934 14.432 16.2401 14.432 16.2401C14.432 16.2401 14.5128 16.1866 14.5935 16.1333C14.6711 16.0754 14.7461 16.014 14.7461 16.014C14.7461 16.014 14.822 15.9538 14.8979 15.8937C14.9357 15.8636 14.9736 15.8335 15.0021 15.8109C15.031 15.789 15.0485 15.7721 15.0485 15.7721L15.3302 15.5061C15.3302 15.5061 15.348 15.4895 15.3743 15.4645C15.4007 15.4395 15.4369 15.4072 15.468 15.3699C15.5325 15.2975 15.5969 15.2251 15.5969 15.2251C15.5969 15.2251 15.8567 14.9372 15.8491 14.9308L16.0814 14.6201C16.0814 14.6201 16.0959 14.6008 16.1177 14.5717C16.1385 14.5416 16.1629 14.4997 16.1889 14.4588C16.24 14.3763 16.2912 14.2939 16.2912 14.2939C16.2912 14.2939 16.3424 14.2115 16.3936 14.1291C16.421 14.0888 16.4393 14.0434 16.4568 14.0116C16.4733 13.9791 16.4842 13.9575 16.4842 13.9575L16.6596 13.6112C16.6596 13.6112 16.6993 13.5131 16.7585 13.3659C16.7881 13.2923 16.8225 13.2064 16.8594 13.1142C16.8928 13.0209 16.9197 12.9184 16.9512 12.8174C16.9805 12.7158 17.015 12.6155 17.0381 12.5191C17.0581 12.4219 17.0767 12.3312 17.0926 12.2534C17.1246 12.098 17.1458 11.9942 17.1458 11.9942" stroke="#DD0033" stroke-miterlimit="10"/>
<path d="M8.36934 17.1819C8.15673 17.0976 8.07036 16.8751 8.17062 16.6975C8.27087 16.5199 8.4985 16.443 8.68318 16.5161C8.86819 16.5882 8.96376 16.7913 8.89128 16.9804C8.81928 17.1685 8.58244 17.2648 8.36934 17.1819ZM9.37204 17.1205L9.44033 16.8962C9.44033 16.8962 9.4258 16.8923 9.40643 16.887C9.40723 16.747 9.37382 16.6116 9.31602 16.4946C9.22626 16.3094 9.08049 16.1651 8.88482 16.0882C8.68964 16.0106 8.47315 16.0152 8.26473 16.0819C8.05793 16.1488 7.85758 16.2804 7.72795 16.4763C7.59896 16.6713 7.57087 16.8981 7.64836 17.1087C7.72472 17.3181 7.90908 17.5075 8.16755 17.6098C8.42649 17.7116 8.70498 17.7015 8.92373 17.6091C9.06628 17.548 9.17993 17.452 9.26307 17.3342C9.28793 17.3408 9.30359 17.3451 9.30359 17.3451L9.37204 17.1208V17.1206V17.1205Z" fill="#DD0033"/>
<path d="M16.4123 7.77399C16.4123 7.77399 16.3616 7.68996 16.311 7.60593C16.2856 7.56384 16.2604 7.52191 16.2414 7.4903C16.222 7.45915 16.2067 7.43985 16.2067 7.43985L15.9783 7.12122C15.9783 7.12122 15.964 7.10131 15.9425 7.07138C15.9189 7.04327 15.8874 7.00573 15.856 6.9682C15.7928 6.89344 15.7295 6.81869 15.7295 6.81869C15.7295 6.81869 15.6659 6.74424 15.6023 6.66978C15.5333 6.60034 15.4644 6.5309 15.4644 6.5309C15.4644 6.5309 15.1897 6.25177 15.1835 6.25861L14.8865 6.0041C14.8865 6.0041 14.8683 5.98769 14.8381 5.96672C14.8084 5.94529 14.7689 5.91658 14.7293 5.88786C14.6504 5.83042 14.5713 5.77298 14.5713 5.77298C14.5713 5.77298 14.5514 5.7587 14.5218 5.73712C14.4923 5.71539 14.4531 5.68622 14.4105 5.66206C14.3272 5.61131 14.2438 5.56056 14.2438 5.56056C14.2438 5.56056 14.1604 5.50966 14.077 5.45891C14.0361 5.43217 13.9923 5.41059 13.9594 5.39448C13.9268 5.37807 13.905 5.36713 13.905 5.36713C13.905 5.36713 13.8177 5.32337 13.7307 5.27961C13.687 5.25773 13.6434 5.23585 13.6107 5.21929C13.5783 5.20227 13.5556 5.1933 13.5556 5.1933L13.1938 5.04758C13.1938 5.04758 13.1048 5.00732 13.0105 4.98194C12.9174 4.95322 12.8242 4.9245 12.8242 4.9245C12.8242 4.9245 12.7311 4.89579 12.638 4.86707C12.5918 4.85081 12.5433 4.84473 12.5078 4.83562C12.4721 4.82787 12.4484 4.8227 12.4484 4.8227C12.4484 4.8227 12.3532 4.80188 12.258 4.78122C12.2105 4.77089 12.1628 4.76055 12.1271 4.7528C12.0917 4.74399 12.0673 4.74202 12.0673 4.74202L11.681 4.69188C11.681 4.69188 11.5762 4.67364 11.4169 4.6709C11.2579 4.66665 11.0461 4.64765 10.8339 4.65753C10.409 4.66802 9.99023 4.74247 9.99023 4.74247" stroke="#DD0033" stroke-miterlimit="10"/>
<path d="M16.8113 8.73297C16.6271 8.80147 16.4149 8.70473 16.3461 8.51416C16.2826 8.32084 16.3495 8.09587 16.5296 7.99555C16.7048 7.898 16.9373 7.98435 17.0118 8.2064C17.0913 8.4257 17.004 8.66106 16.8113 8.73297ZM16.9488 9.22513C17.1687 9.1615 17.3401 9.00194 17.434 8.77875C17.4809 8.66772 17.5091 8.54127 17.5147 8.40833C17.5128 8.27815 17.4883 8.14164 17.4397 8.00854C17.4154 7.94199 17.3862 7.87966 17.3531 7.82219C17.3172 7.76603 17.2754 7.71587 17.232 7.67059C17.1446 7.5805 17.046 7.51249 16.9432 7.47044C16.7387 7.38474 16.5025 7.41558 16.3097 7.54203C16.1115 7.67189 15.9891 7.86748 15.9161 8.07996C15.8806 8.18611 15.862 8.29471 15.8633 8.40021C15.8638 8.45313 15.8702 8.50475 15.8804 8.55637C15.8874 8.60945 15.8999 8.66139 15.9182 8.71187C15.9548 8.81299 16.0116 8.89967 16.0837 8.97288C16.1486 9.04868 16.2288 9.11117 16.3203 9.15841C16.5028 9.25207 16.729 9.28875 16.9488 9.22513Z" fill="#DD0033"/>
<path d="M7 15.4883C7 15.7646 6.77617 15.9884 6.49987 15.9884C6.22383 15.9884 6 15.7646 6 15.4883C6 15.2122 6.22383 14.9884 6.49987 14.9884C6.77617 14.9884 7 15.2122 7 15.4883Z" fill="#DD0033"/>
<path d="M17.5366 10.5183C17.5366 10.8044 17.3047 11.0366 17.0183 11.0366C16.7322 11.0366 16.5 10.8044 16.5 10.5183C16.5 10.232 16.7322 10 17.0183 10C17.3047 10 17.5366 10.232 17.5366 10.5183Z" fill="#DD0033"/>
<path d="M8.99995 5.01367C8.99995 5.28988 8.77619 5.51364 8.49998 5.51364C8.22402 5.51364 8 5.28988 8 5.01367C8 4.73771 8.22402 4.51396 8.49998 4.51396C8.77619 4.51396 8.99995 4.73771 8.99995 5.01367Z" fill="#DD0033"/>
<path d="M8.71021 9.90527C8.71021 10.2393 8.43933 10.5102 8.10495 10.5102C7.77088 10.5102 7.5 10.2393 7.5 9.90527C7.5 9.57089 7.77088 9.3 8.10495 9.3C8.43933 9.3 8.71021 9.57089 8.71021 9.90527Z" fill="#DD0033"/>
</svg>
