<svg width="20" height="20" viewBox="0 0 20 20" fill="none" xmlns="http://www.w3.org/2000/svg">
<rect x="0.25" y="0.25" width="19.5" height="19.5" rx="2.75" fill="#FFF4F4" stroke="#FFD9D9" stroke-width="0.5"/>
<path d="M10.0003 11.3333L9.52892 11.8047L10.0003 12.2762L10.4717 11.8047L10.0003 11.3333ZM10.667 5.33334C10.667 4.96515 10.3685 4.66668 10.0003 4.66668C9.63214 4.66668 9.33366 4.96515 9.33366 5.33334L10.0003 5.33334L10.667 5.33334ZM6.66699 8.00001L6.19559 8.47141L9.52892 11.8047L10.0003 11.3333L10.4717 10.8619L7.1384 7.52861L6.66699 8.00001ZM10.0003 11.3333L10.4717 11.8047L13.8051 8.47141L13.3337 8.00001L12.8623 7.52861L9.52892 10.8619L10.0003 11.3333ZM10.0003 11.3333L10.667 11.3333L10.667 5.33334L10.0003 5.33334L9.33366 5.33334L9.33366 11.3333L10.0003 11.3333Z" fill="#DD0033"/>
<path d="M5.33301 12.6667L5.33301 13.3333C5.33301 14.0697 5.92996 14.6667 6.66634 14.6667L13.333 14.6667C14.0694 14.6667 14.6663 14.0697 14.6663 13.3333V12.6667" stroke="#DD0033" stroke-width="1.33333"/>
</svg>
