<svg width="20" height="20" viewBox="0 0 20 20" fill="none" xmlns="http://www.w3.org/2000/svg">
<rect x="0.25" y="0.25" width="19.5" height="19.5" rx="2.75" fill="#FFF4F4" stroke="#FFD9D9" stroke-width="0.5"/>
<path d="M11.75 11.75V11.25H11.25V11.75H11.75ZM14.8964 15.6036C15.0917 15.7988 15.4083 15.7988 15.6036 15.6036C15.7988 15.4083 15.7988 15.0917 15.6036 14.8964L15.25 15.25L14.8964 15.6036ZM11.75 8.25H11.25V8.75H11.75V8.25ZM15.6036 5.10355C15.7988 4.90829 15.7988 4.59171 15.6036 4.39645C15.4083 4.20118 15.0917 4.20118 14.8964 4.39645L15.25 4.75L15.6036 5.10355ZM8.25 11.75H8.75V11.25H8.25V11.75ZM4.39645 14.8964C4.20118 15.0917 4.20118 15.4083 4.39645 15.6036C4.59171 15.7988 4.90829 15.7988 5.10355 15.6036L4.75 15.25L4.39645 14.8964ZM8.25 8.25V8.75H8.75V8.25H8.25ZM5.10355 4.39645C4.90829 4.20118 4.59171 4.20118 4.39645 4.39645C4.20118 4.59171 4.20118 4.90829 4.39645 5.10355L4.75 4.75L5.10355 4.39645ZM11.75 14.6667H12.25V11.75H11.75H11.25V14.6667H11.75ZM11.75 11.75V12.25H14.6667V11.75V11.25H11.75V11.75ZM11.75 11.75L11.3964 12.1036L14.8964 15.6036L15.25 15.25L15.6036 14.8964L12.1036 11.3964L11.75 11.75ZM11.75 5.33333H11.25V8.25H11.75H12.25V5.33333H11.75ZM11.75 8.25V8.75H14.6667V8.25V7.75H11.75V8.25ZM11.75 8.25L12.1036 8.60355L15.6036 5.10355L15.25 4.75L14.8964 4.39645L11.3964 7.89645L11.75 8.25ZM8.25 14.6667H8.75V11.75H8.25H7.75V14.6667H8.25ZM8.25 11.75V11.25H5.33333V11.75V12.25H8.25V11.75ZM8.25 11.75L7.89645 11.3964L4.39645 14.8964L4.75 15.25L5.10355 15.6036L8.60355 12.1036L8.25 11.75ZM8.25 5.33333H7.75V8.25H8.25H8.75V5.33333H8.25ZM8.25 8.25V7.75H5.33333V8.25V8.75H8.25V8.25ZM8.25 8.25L8.60355 7.89645L5.10355 4.39645L4.75 4.75L4.39645 5.10355L7.89645 8.60355L8.25 8.25Z" fill="#DD0033"/>
</svg>
