<svg width="20" height="20" viewBox="0 0 20 20" fill="none" xmlns="http://www.w3.org/2000/svg">
<rect x="0.25" y="0.25" width="19.5" height="19.5" rx="2.75" fill="#FFF4F4" stroke="#FFD9D9" stroke-width="0.5"/>
<path d="M15.333 15.3333V16H15.9997V15.3333H15.333ZM12.4711 11.5286C12.2107 11.2683 11.7886 11.2683 11.5283 11.5286C11.2679 11.789 11.2679 12.2111 11.5283 12.4714L11.9997 12L12.4711 11.5286ZM15.333 11.3333H14.6663V15.3333H15.333H15.9997V11.3333H15.333ZM15.333 15.3333V14.6667H11.333V15.3333V16H15.333V15.3333ZM15.333 15.3333L15.8044 14.8619L12.4711 11.5286L11.9997 12L11.5283 12.4714L14.8616 15.8047L15.333 15.3333Z" fill="#DD0033"/>
<path d="M4.66699 15.3333H4.00033V16H4.66699V15.3333ZM8.47173 12.4714C8.73208 12.2111 8.73208 11.789 8.47173 11.5286C8.21138 11.2683 7.78927 11.2683 7.52892 11.5286L8.00033 12L8.47173 12.4714ZM4.66699 11.3333H4.00033V15.3333H4.66699H5.33366V11.3333H4.66699ZM4.66699 15.3333V16H8.66699V15.3333V14.6667H4.66699V15.3333ZM4.66699 15.3333L5.1384 15.8047L8.47173 12.4714L8.00033 12L7.52892 11.5286L4.19559 14.8619L4.66699 15.3333Z" fill="#DD0033"/>
<path d="M15.333 4.66666H15.9997V3.99999H15.333V4.66666ZM11.5283 7.52859C11.2679 7.78893 11.2679 8.21104 11.5283 8.47139C11.7886 8.73174 12.2107 8.73174 12.4711 8.47139L11.9997 7.99999L11.5283 7.52859ZM15.333 8.66666H15.9997V4.66666H15.333H14.6663V8.66666H15.333ZM15.333 4.66666V3.99999H11.333V4.66666V5.33332H15.333V4.66666ZM15.333 4.66666L14.8616 4.19525L11.5283 7.52859L11.9997 7.99999L12.4711 8.47139L15.8044 5.13806L15.333 4.66666Z" fill="#DD0033"/>
<path d="M4.66699 4.66666V3.99999H4.00033V4.66666H4.66699ZM7.52892 8.47139C7.78927 8.73174 8.21138 8.73174 8.47173 8.47139C8.73208 8.21104 8.73208 7.78893 8.47173 7.52859L8.00033 7.99999L7.52892 8.47139ZM4.66699 8.66666H5.33366V4.66666H4.66699H4.00033V8.66666H4.66699ZM4.66699 4.66666V5.33332H8.66699V4.66666V3.99999H4.66699V4.66666ZM4.66699 4.66666L4.19559 5.13806L7.52892 8.47139L8.00033 7.99999L8.47173 7.52859L5.1384 4.19525L4.66699 4.66666Z" fill="#DD0033"/>
</svg>
