<svg width="20" height="20" viewBox="0 0 20 20" fill="none" xmlns="http://www.w3.org/2000/svg">
<rect x="0.25" y="0.25" width="19.5" height="19.5" rx="2.75" fill="#FFF4F4" stroke="#FFD9D9" stroke-width="0.5"/>
<path d="M11.3337 6.66666V6.66666C11.3337 6.0454 11.3337 5.73477 11.2322 5.48975C11.0968 5.16304 10.8373 4.90348 10.5106 4.76815C10.2655 4.66666 9.95491 4.66666 9.33366 4.66666H7.33366C6.07658 4.66666 5.44804 4.66666 5.05752 5.05718C4.66699 5.44771 4.66699 6.07624 4.66699 7.33332V9.33332C4.66699 9.95458 4.66699 10.2652 4.76849 10.5102C4.90381 10.8369 5.16338 11.0965 5.49008 11.2318C5.73511 11.3333 6.04574 11.3333 6.66699 11.3333V11.3333" stroke="#DD0033" stroke-width="1.33333"/>
<rect x="8.66699" y="8.66666" width="6.66667" height="6.66667" rx="1.33333" stroke="#DD0033" stroke-width="1.33333"/>
</svg>
