<svg width="18" height="18" viewBox="0 0 18 18" fill="none" xmlns="http://www.w3.org/2000/svg">
<path d="M9.60681 10.8383H8.08154C8.08553 10.4794 8.11344 10.1703 8.16528 9.91113C8.22111 9.64795 8.31482 9.41069 8.44641 9.19934C8.58199 8.988 8.76143 8.77865 8.98474 8.57129C9.17216 8.40381 9.33565 8.2443 9.47522 8.09277C9.61479 7.94124 9.72445 7.78573 9.8042 7.62622C9.88395 7.46273 9.92383 7.28129 9.92383 7.08191C9.92383 6.85063 9.88794 6.65922 9.81616 6.50769C9.74837 6.35217 9.64469 6.23454 9.50513 6.15479C9.36955 6.07503 9.19808 6.03516 8.99072 6.03516C8.81925 6.03516 8.65975 6.07304 8.51221 6.1488C8.36466 6.22058 8.24304 6.33223 8.14734 6.48376C8.05562 6.63529 8.00777 6.83468 8.00378 7.08191H6.26917C6.28113 6.5356 6.40674 6.085 6.646 5.7301C6.88924 5.37122 7.21423 5.10604 7.62097 4.93457C8.02771 4.75911 8.48429 4.67139 8.99072 4.67139C9.54899 4.67139 10.0275 4.7631 10.4263 4.94653C10.825 5.12598 11.1301 5.39115 11.3414 5.74207C11.5528 6.08899 11.6584 6.51168 11.6584 7.01013C11.6584 7.35706 11.5907 7.6661 11.4551 7.93726C11.3195 8.20443 11.142 8.45365 10.9227 8.68494C10.7034 8.91622 10.4622 9.15548 10.199 9.40271C9.97168 9.60608 9.81616 9.81942 9.73242 10.0427C9.65267 10.266 9.6108 10.5312 9.60681 10.8383ZM7.9021 12.6865C7.9021 12.4313 7.98983 12.22 8.16528 12.0525C8.34074 11.881 8.57601 11.7953 8.87109 11.7953C9.16219 11.7953 9.39547 11.881 9.57092 12.0525C9.75037 12.22 9.84009 12.4313 9.84009 12.6865C9.84009 12.9338 9.75037 13.1431 9.57092 13.3146C9.39547 13.486 9.16219 13.5718 8.87109 13.5718C8.57601 13.5718 8.34074 13.486 8.16528 13.3146C7.98983 13.1431 7.9021 12.9338 7.9021 12.6865Z" fill="#1C1C1C"/>
<circle cx="9" cy="9" r="8.25" stroke="#1C1C1C" stroke-width="1.5"/>
</svg>
