<?xml version="1.0" ?>
<!-- Uploaded to: SVG Repo, www.svgrepo.com, Generator: SVG Repo Mixer Tools -->
<svg width="800px" height="800px" viewBox="-17.5 0 117 117" version="1.1" xmlns="http://www.w3.org/2000/svg" xmlns:xlink="http://www.w3.org/1999/xlink">
<title/>
<desc/>
<defs/>
<g fill="none" fill-rule="evenodd" id="Page-1" stroke="none" stroke-width="1">
<g fill-rule="nonzero" id="unlock">
<path d="M40.3,8.6 C58.1,8.6 72.5,23 72.5,40.8 C72.5,43.1 74.3,44.9 76.6,44.9 C78.9,44.9 80.7,43.1 80.7,40.8 C80.7,18.5 62.6,0.4 40.3,0.4 C18,0.4 0,18.6 0,40.8 L0,66.7 L0,112.5 C0,114.8 1.8,116.6 4.1,116.6 L77.6,116.6 C79.9,116.6 81.7,114.8 81.7,112.5 L81.7,66.7 C81.7,64.4 79.9,62.6 77.6,62.6 L8.1,62.6 L8.1,40.8 C8.1,23.1 22.6,8.6 40.3,8.6 Z M73.5,70.8 L73.5,108.4 L8.1,108.4 L8.1,70.8 L73.5,70.8 Z" fill="#4A4A4A" id="Shape"/>
<circle cx="40.9" cy="89.6" fill="#17AB13" id="Oval" r="6.6"/>
</g>
</g>
</svg>