<svg width="20" height="20" viewBox="0 0 20 20" fill="none" xmlns="http://www.w3.org/2000/svg">
<path d="M12.5 5.5H14.1C14.9401 5.5 15.3601 5.5 15.681 5.66349C15.9632 5.8073 16.1927 6.03677 16.3365 6.31901C16.5 6.63988 16.5 7.05992 16.5 7.9V15.5C16.5 16.6046 15.6046 17.5 14.5 17.5V17.5C13.3954 17.5 12.5 16.6046 12.5 15.5V5.7C12.5 4.57989 12.5 4.01984 12.282 3.59202C12.0903 3.21569 11.7843 2.90973 11.408 2.71799C10.9802 2.5 10.4201 2.5 9.3 2.5H5.7C4.57989 2.5 4.01984 2.5 3.59202 2.71799C3.21569 2.90973 2.90973 3.21569 2.71799 3.59202C2.5 4.01984 2.5 4.5799 2.5 5.7V14.3C2.5 15.4201 2.5 15.9802 2.71799 16.408C2.90973 16.7843 3.21569 17.0903 3.59202 17.282C4.01984 17.5 4.5799 17.5 5.7 17.5H14.5" stroke="#222222"/>
<path d="M9 4.5H6C5.53406 4.5 5.30109 4.5 5.11732 4.57612C4.87229 4.67761 4.67761 4.87229 4.57612 5.11732C4.5 5.30109 4.5 5.53406 4.5 6C4.5 6.46594 4.5 6.69891 4.57612 6.88268C4.67761 7.12771 4.87229 7.32239 5.11732 7.42388C5.30109 7.5 5.53406 7.5 6 7.5H9C9.46594 7.5 9.69891 7.5 9.88268 7.42388C10.1277 7.32239 10.3224 7.12771 10.4239 6.88268C10.5 6.69891 10.5 6.46594 10.5 6C10.5 5.53406 10.5 5.30109 10.4239 5.11732C10.3224 4.87229 10.1277 4.67761 9.88268 4.57612C9.69891 4.5 9.46594 4.5 9 4.5Z" stroke="#222222"/>
</svg>
