<svg width="20" height="20" viewBox="0 0 20 20" fill="none" xmlns="http://www.w3.org/2000/svg">
<path d="M11.1562 1.03516L11.3528 0.311366L11.3524 0.311266L11.1562 1.03516ZM11.8291 1.64355L12.5299 1.37633L12.5298 1.37613L11.8291 1.64355ZM11.9219 2.22559L11.1756 2.30004L11.9219 2.22559ZM12.1006 3.26367L11.4382 3.6154L11.4382 3.6154L12.1006 3.26367ZM13.2764 3.75098L13.4958 4.46817L13.4958 4.46816L13.2764 3.75098ZM14.1377 3.14258L13.6629 2.56202L14.1377 3.14258ZM14.6152 2.79688L14.3093 2.1121L14.3091 2.11221L14.6152 2.79688ZM15.5205 2.84277L15.8935 2.19207L15.8932 2.19191L15.5205 2.84277ZM15.9619 3.23438L15.4316 3.76471L15.9619 3.23438ZM16.7656 4.03809L17.296 3.50776L16.7656 4.03809ZM17.1572 4.47949L17.8081 4.10683L17.808 4.10664L17.1572 4.47949ZM17.2021 5.38477L17.8867 5.69124L17.8867 5.69111L17.2021 5.38477ZM16.8564 5.8623L16.276 5.38729L16.8564 5.8623ZM16.249 6.72266L15.5319 6.50298L15.5318 6.50326L16.249 6.72266ZM16.7363 7.89844L16.3843 8.56069L16.3849 8.56099L16.7363 7.89844ZM17.7744 8.07715L17.6996 8.82341L17.7744 8.07715ZM18.3574 8.1709L18.6255 7.47043L18.6254 7.47041L18.3574 8.1709ZM18.9648 8.84277L19.6886 8.64617L19.6886 8.64603L18.9648 8.84277ZM18.9648 11.1572L19.6886 11.354L19.6886 11.3539L18.9648 11.1572ZM18.3574 11.8291L18.6251 12.5297L18.6254 12.5296L18.3574 11.8291ZM17.7744 11.9229L17.6998 11.1766L17.7744 11.9229ZM16.7363 12.1016L16.3846 11.4392L16.3843 11.4393L16.7363 12.1016ZM16.249 13.2764L15.5317 13.4954L15.5318 13.4957L16.249 13.2764ZM16.8574 14.1377L17.4379 13.6628L16.8574 14.1377ZM17.2021 14.6152L17.8868 14.3091L17.8867 14.3087L17.2021 14.6152ZM17.1572 15.5205L17.808 15.8933L17.808 15.8933L17.1572 15.5205ZM15.5205 17.1572L15.8932 17.8081L15.8933 17.808L15.5205 17.1572ZM14.6152 17.2021L14.3087 17.8867L14.3089 17.8867L14.6152 17.2021ZM14.1377 16.8564L14.6127 16.2761L14.1377 16.8564ZM13.2773 16.249L13.4974 15.532L13.4969 15.5319L13.2773 16.249ZM12.1016 16.7354L11.4394 16.3832L11.4393 16.3834L12.1016 16.7354ZM11.9219 17.7744L11.1756 17.6998L11.9219 17.7744ZM11.8291 18.3574L12.5296 18.6254L12.5297 18.6252L11.8291 18.3574ZM11.1572 18.9648L11.3539 19.6886L11.3541 19.6886L11.1572 18.9648ZM10.5684 19V19.75V19ZM8.84277 18.9648L8.64603 19.6886L8.64617 19.6886L8.84277 18.9648ZM8.1709 18.3574L7.47041 18.6254L7.47043 18.6255L8.1709 18.3574ZM8.07715 17.7744L8.82341 17.6996L8.07715 17.7744ZM7.89844 16.7363L8.56099 16.3849L8.56069 16.3843L7.89844 16.7363ZM6.72266 16.249L6.50326 15.5318L6.50298 15.5319L6.72266 16.249ZM5.8623 16.8564L5.38729 16.276L5.8623 16.8564ZM5.38477 17.2021L5.69111 17.8867L5.69124 17.8867L5.38477 17.2021ZM4.47949 17.1572L4.10664 17.808L4.10683 17.8081L4.47949 17.1572ZM3.23438 15.9619L2.70404 16.4922L3.23438 15.9619ZM2.84277 15.5205L2.19191 15.8932L2.19207 15.8935L2.84277 15.5205ZM2.79688 14.6152L2.11221 14.3091L2.1121 14.3093L2.79688 14.6152ZM3.14258 14.1377L2.56202 13.6629L3.14258 14.1377ZM3.75098 13.2764L4.46816 13.4958L4.46817 13.4958L3.75098 13.2764ZM3.26367 12.1006L3.6154 11.4382L3.6154 11.4382L3.26367 12.1006ZM2.22559 11.9219L2.30004 11.1756L2.22559 11.9219ZM1.64355 11.8291L1.37613 12.5298L1.37633 12.5299L1.64355 11.8291ZM1.03516 11.1562L0.311266 11.3524L0.311366 11.3528L1.03516 11.1562ZM1 10.5684H0.25H1ZM1.03516 8.84277L0.311448 8.64593L0.311369 8.64622L1.03516 8.84277ZM1.64258 8.1709L1.37455 7.47043L1.37451 7.47044L1.64258 8.1709ZM2.22559 8.07715L2.30043 8.82341L2.22559 8.07715ZM3.26465 7.89844L3.61651 8.56078L3.61697 8.56053L3.26465 7.89844ZM3.75098 6.72266L4.46822 6.50342L4.4681 6.50302L3.75098 6.72266ZM3.14355 5.86133L3.72403 5.38641L3.14355 5.86133ZM2.79785 5.38379L2.11312 5.6898L2.1133 5.6902L2.79785 5.38379ZM2.84277 4.47852L2.192 4.1057L2.19197 4.10576L2.84277 4.47852ZM3.23438 4.03711L3.7646 4.56754L3.76471 4.56744L3.23438 4.03711ZM4.03809 3.2334L3.50786 2.70297L3.50776 2.70307L4.03809 3.2334ZM4.47949 2.84277L4.10687 2.19189L4.10679 2.19193L4.47949 2.84277ZM5.38477 2.79785L5.69142 2.11341L5.69109 2.11326L5.38477 2.79785ZM5.8623 3.14258L5.38729 3.72298L5.8623 3.14258ZM6.72266 3.75098L6.50305 4.4681L6.50326 4.46817L6.72266 3.75098ZM7.89844 3.26367L8.56066 3.61576L8.56101 3.61509L7.89844 3.26367ZM8.07715 2.22559L8.82341 2.30043L8.07715 2.22559ZM8.1709 1.64258L7.47043 1.37453L7.47041 1.3746L8.1709 1.64258ZM8.84277 1.03516L8.64617 0.311383L8.64603 0.311421L8.84277 1.03516ZM10.5684 1V1.75C10.728 1.75 10.8223 1.75027 10.893 1.75365C10.9589 1.7568 10.9693 1.76154 10.9601 1.75905L11.1562 1.03516L11.3524 0.311266C11.1038 0.243881 10.8286 0.25 10.5684 0.25V1ZM11.1562 1.03516L10.9597 1.75895C11.0377 1.78012 11.1002 1.83716 11.1284 1.91098L11.8291 1.64355L12.5298 1.37613C12.3301 0.852755 11.8917 0.457702 11.3528 0.311366L11.1562 1.03516ZM11.8291 1.64355L11.1283 1.91078C11.1245 1.90077 11.1302 1.90985 11.1398 1.97572C11.1502 2.04638 11.1596 2.14028 11.1756 2.30004L11.9219 2.22559L12.6682 2.15113C12.6426 1.89513 12.622 1.6178 12.5299 1.37633L11.8291 1.64355ZM11.9219 2.22559L11.1756 2.30004C11.2035 2.57944 11.2272 2.82014 11.2572 3.01152C11.2863 3.19706 11.3314 3.41433 11.4382 3.6154L12.1006 3.26367L12.763 2.91194C12.7775 2.93919 12.762 2.9255 12.7391 2.77949C12.7172 2.63933 12.6978 2.44789 12.6682 2.15113L11.9219 2.22559ZM12.1006 3.26367L11.4382 3.6154C11.8313 4.35573 12.6942 4.71336 13.4958 4.46817L13.2764 3.75098L13.057 3.03378C12.9425 3.06881 12.8192 3.0177 12.763 2.91194L12.1006 3.26367ZM13.2764 3.75098L13.4958 4.46816C13.714 4.40141 13.8999 4.27921 14.0515 4.16862C14.208 4.05444 14.3952 3.90089 14.6125 3.72313L14.1377 3.14258L13.6629 2.56202C13.4316 2.75116 13.2823 2.87301 13.1673 2.95691C13.0474 3.0444 13.027 3.04296 13.0569 3.03379L13.2764 3.75098ZM14.1377 3.14258L14.6125 3.72313C14.7367 3.62158 14.8099 3.56192 14.8671 3.51941C14.9204 3.47977 14.931 3.47726 14.9214 3.48154L14.6152 2.79688L14.3091 2.11221C14.0732 2.2177 13.8626 2.39865 13.6629 2.56202L14.1377 3.14258ZM14.6152 2.79688L14.9212 3.48165C14.9929 3.44958 15.0775 3.45339 15.1479 3.49364L15.5205 2.84277L15.8932 2.19191C15.4093 1.91488 14.8206 1.88371 14.3093 2.1121L14.6152 2.79688ZM15.5205 2.84277L15.1476 3.49347C15.1391 3.48864 15.1499 3.49262 15.1989 3.53723C15.2515 3.585 15.3186 3.6517 15.4316 3.76471L15.9619 3.23438L16.4922 2.70404C16.3082 2.52002 16.1173 2.32035 15.8935 2.19207L15.5205 2.84277ZM15.9619 3.23438L15.4316 3.76471L16.2353 4.56842L16.7656 4.03809L17.296 3.50776L16.4922 2.70404L15.9619 3.23438ZM16.7656 4.03809L16.2353 4.56842C16.3483 4.68138 16.415 4.74848 16.4628 4.80106C16.5074 4.85021 16.5114 4.8609 16.5065 4.85234L17.1572 4.47949L17.808 4.10664C17.6797 3.8828 17.4798 3.69165 17.296 3.50776L16.7656 4.03809ZM17.1572 4.47949L16.5064 4.85216C16.546 4.92142 16.5502 5.00546 16.5176 5.07842L17.2021 5.38477L17.8867 5.69111C18.1151 5.1808 18.0859 4.5921 17.8081 4.10683L17.1572 4.47949ZM17.2021 5.38477L16.5176 5.07829C16.5218 5.06902 16.5191 5.0798 16.4795 5.1331C16.4371 5.1902 16.3774 5.26343 16.276 5.38729L16.8564 5.8623L17.4368 6.33732C17.6008 6.13695 17.7812 5.9268 17.8867 5.69124L17.2021 5.38477ZM16.8564 5.8623L16.276 5.38729C16.0983 5.60451 15.945 5.79151 15.8308 5.94809C15.7202 6.09983 15.5986 6.28541 15.5319 6.50298L16.249 6.72266L16.9661 6.94233C16.9571 6.97179 16.9559 6.9511 17.043 6.83165C17.1265 6.71703 17.2481 6.56792 17.4368 6.33732L16.8564 5.8623ZM16.249 6.72266L15.5318 6.50326C15.2866 7.3049 15.6447 8.16757 16.3843 8.56069L16.7363 7.89844L17.0884 7.23618C16.9823 7.1798 16.9313 7.05612 16.9662 6.94206L16.249 6.72266ZM16.7363 7.89844L16.3849 8.56099C16.586 8.66768 16.8034 8.71272 16.9886 8.74169C17.1798 8.7716 17.4205 8.79541 17.6996 8.82341L17.7744 8.07715L17.8493 7.33089C17.5524 7.30112 17.3609 7.28168 17.2204 7.25971C17.0741 7.23682 17.0605 7.22139 17.0878 7.23589L16.7363 7.89844ZM17.7744 8.07715L17.6996 8.82341C17.8591 8.8394 17.9532 8.84906 18.0236 8.8595C18.0893 8.86925 18.0989 8.87499 18.0894 8.87139L18.3574 8.1709L18.6254 7.47041C18.384 7.37806 18.1077 7.35681 17.8493 7.33089L17.7744 8.07715ZM18.3574 8.1709L18.0894 8.87136C18.1634 8.8997 18.22 8.96201 18.2411 9.03952L18.9648 8.84277L19.6886 8.64603C19.5422 8.1075 19.1476 7.67025 18.6255 7.47043L18.3574 8.1709ZM18.9648 8.84277L18.2411 9.03937C18.2385 9.02986 18.2432 9.04006 18.2464 9.10619C18.2498 9.1771 18.25 9.27159 18.25 9.43164H19H19.75C19.75 9.1717 19.7563 8.89538 19.6886 8.64617L18.9648 8.84277ZM19 9.43164H18.25V10.5684H19H19.75V9.43164H19ZM19 10.5684H18.25C18.25 10.7284 18.2498 10.8229 18.2464 10.8938C18.2432 10.96 18.2385 10.9702 18.2411 10.9606L18.9648 11.1572L19.6886 11.3539C19.7563 11.1047 19.75 10.8282 19.75 10.5684H19ZM18.9648 11.1572L18.2411 10.9604C18.22 11.0381 18.1633 11.1003 18.0894 11.1286L18.3574 11.8291L18.6254 12.5296C19.1477 12.3298 19.5422 11.8924 19.6886 11.354L18.9648 11.1572ZM18.3574 11.8291L18.0897 11.1285C18.099 11.125 18.0891 11.1308 18.0234 11.1405C17.9531 11.151 17.8589 11.1607 17.6998 11.1766L17.7744 11.9229L17.8491 12.6691C18.108 12.6432 18.384 12.6218 18.6251 12.5297L18.3574 11.8291ZM17.7744 11.9229L17.6998 11.1766C17.4205 11.2045 17.1799 11.2283 16.9886 11.2582C16.8032 11.2872 16.5858 11.3323 16.3846 11.4392L16.7363 12.1016L17.0881 12.764C17.0607 12.7785 17.0743 12.763 17.2204 12.7402C17.3607 12.7182 17.5521 12.6988 17.8491 12.6691L17.7744 11.9229ZM16.7363 12.1016L16.3843 11.4393C15.6451 11.8322 15.2869 12.6939 15.5317 13.4954L16.249 13.2764L16.9663 13.0573C16.9315 12.9434 16.9822 12.8202 17.0884 12.7638L16.7363 12.1016ZM16.249 13.2764L15.5318 13.4957C15.5986 13.7139 15.7207 13.8999 15.8314 14.0515C15.9456 14.2081 16.0991 14.3953 16.2769 14.6126L16.8574 14.1377L17.4379 13.6628C17.2488 13.4316 17.127 13.2823 17.0431 13.1674C16.9557 13.0476 16.9571 13.0271 16.9662 13.057L16.249 13.2764ZM16.8574 14.1377L16.2769 14.6126C16.3777 14.7358 16.4372 14.809 16.479 14.8656C16.5181 14.9185 16.5213 14.9299 16.5176 14.9218L17.2021 14.6152L17.8867 14.3087C17.7815 14.0739 17.6038 13.8656 17.4379 13.6628L16.8574 14.1377ZM17.2021 14.6152L16.5175 14.9214C16.5502 14.9947 16.5459 15.0788 16.5064 15.1478L17.1572 15.5205L17.808 15.8933C18.0861 15.4078 18.1148 14.819 17.8868 14.3091L17.2021 14.6152ZM17.1572 15.5205L16.5064 15.1477C16.5113 15.1392 16.5074 15.1498 16.4628 15.1989C16.4151 15.2515 16.3484 15.3185 16.2353 15.4316L16.7656 15.9619L17.296 16.4922C17.4799 16.3083 17.6797 16.1173 17.808 15.8933L17.1572 15.5205ZM16.7656 15.9619L16.2353 15.4316L15.4316 16.2353L15.9619 16.7656L16.4922 17.296L17.296 16.4922L16.7656 15.9619ZM15.9619 16.7656L15.4316 16.2353C15.3185 16.3483 15.2515 16.415 15.1989 16.4628C15.1498 16.5074 15.1392 16.5113 15.1477 16.5064L15.5205 17.1572L15.8933 17.808C16.1172 17.6797 16.3083 17.4799 16.4922 17.296L15.9619 16.7656ZM15.5205 17.1572L15.1479 16.5064C15.0786 16.546 14.9945 16.5502 14.9215 16.5175L14.6152 17.2021L14.3089 17.8867C14.8192 18.115 15.4079 18.0859 15.8932 17.8081L15.5205 17.1572ZM14.6152 17.2021L14.9217 16.5176C14.9309 16.5218 14.9201 16.5191 14.8669 16.4795C14.8098 16.4371 14.7366 16.3774 14.6127 16.2761L14.1377 16.8564L13.6627 17.4368C13.8631 17.6009 14.0732 17.7812 14.3087 17.8867L14.6152 17.2021ZM14.1377 16.8564L14.6127 16.2761C14.3954 16.0982 14.2084 15.9449 14.0518 15.8308C13.9 15.7201 13.7147 15.5987 13.4974 15.532L13.2773 16.249L13.0573 16.966C13.0282 16.9571 13.0491 16.9561 13.1684 17.043C13.283 17.1265 13.4321 17.2481 13.6627 17.4368L14.1377 16.8564ZM13.2773 16.249L13.4969 15.5319C12.6961 15.2867 11.8331 15.643 11.4394 16.3832L12.1016 16.7354L12.7637 17.0875C12.8197 16.9823 12.9429 16.931 13.0578 16.9662L13.2773 16.249ZM12.1016 16.7354L11.4393 16.3834C11.3326 16.5841 11.2872 16.8011 11.2578 16.987C11.2276 17.1788 11.2036 17.4197 11.1756 17.6998L11.9219 17.7744L12.6682 17.849C12.6978 17.5524 12.7175 17.3607 12.7395 17.2206C12.7626 17.0747 12.7781 17.0605 12.7638 17.0873L12.1016 16.7354ZM11.9219 17.7744L11.1756 17.6998C11.1596 17.8602 11.1501 17.9543 11.1398 18.0254C11.1301 18.0916 11.1245 18.1003 11.1285 18.0897L11.8291 18.3574L12.5297 18.6252C12.6222 18.3831 12.6427 18.1039 12.6682 17.849L11.9219 17.7744ZM11.8291 18.3574L11.1286 18.0894C11.1003 18.1633 11.0381 18.22 10.9604 18.2411L11.1572 18.9648L11.3541 19.6886C11.8924 19.5421 12.3298 19.1477 12.5296 18.6254L11.8291 18.3574ZM11.1572 18.9648L10.9605 18.2411C10.9701 18.2385 10.96 18.2432 10.8938 18.2464C10.8229 18.2498 10.7284 18.25 10.5684 18.25V19V19.75C10.8282 19.75 11.1046 19.7563 11.3539 19.6886L11.1572 18.9648ZM10.5684 19V18.25H9.43164V19V19.75H10.5684V19ZM9.43164 19V18.25C9.27159 18.25 9.1771 18.2498 9.10619 18.2464C9.04006 18.2432 9.02986 18.2385 9.03937 18.2411L8.84277 18.9648L8.64617 19.6886C8.89538 19.7563 9.1717 19.75 9.43164 19.75V19ZM8.84277 18.9648L9.03952 18.2411C8.96201 18.22 8.8997 18.1634 8.87136 18.0894L8.1709 18.3574L7.47043 18.6255C7.67025 19.1476 8.1075 19.5422 8.64603 19.6886L8.84277 18.9648ZM8.1709 18.3574L8.87139 18.0894C8.87499 18.0989 8.86925 18.0893 8.8595 18.0236C8.84906 17.9532 8.8394 17.8591 8.82341 17.6996L8.07715 17.7744L7.33089 17.8493C7.35681 18.1077 7.37806 18.384 7.47041 18.6254L8.1709 18.3574ZM8.07715 17.7744L8.82341 17.6996C8.79541 17.4205 8.7716 17.1798 8.74169 16.9886C8.71272 16.8034 8.66768 16.586 8.56099 16.3849L7.89844 16.7363L7.23589 17.0878C7.22139 17.0605 7.23682 17.0741 7.25971 17.2204C7.28168 17.3609 7.30112 17.5524 7.33089 17.8493L8.07715 17.7744ZM7.89844 16.7363L8.56069 16.3843C8.16757 15.6447 7.3049 15.2866 6.50326 15.5318L6.72266 16.249L6.94206 16.9662C7.05612 16.9313 7.1798 16.9823 7.23618 17.0884L7.89844 16.7363ZM6.72266 16.249L6.50298 15.5319C6.28541 15.5986 6.09983 15.7202 5.94809 15.8308C5.79151 15.945 5.60451 16.0983 5.38729 16.276L5.8623 16.8564L6.33732 17.4368C6.56792 17.2481 6.71703 17.1265 6.83165 17.043C6.9511 16.9559 6.97179 16.9571 6.94233 16.9661L6.72266 16.249ZM5.8623 16.8564L5.38729 16.276C5.26343 16.3774 5.1902 16.4371 5.1331 16.4795C5.0798 16.5191 5.06902 16.5218 5.07829 16.5176L5.38477 17.2021L5.69124 17.8867C5.9268 17.7812 6.13695 17.6008 6.33732 17.4368L5.8623 16.8564ZM5.38477 17.2021L5.07842 16.5176C5.00546 16.5502 4.92142 16.546 4.85216 16.5064L4.47949 17.1572L4.10683 17.8081C4.5921 18.0859 5.1808 18.1151 5.69111 17.8867L5.38477 17.2021ZM4.47949 17.1572L4.85234 16.5065C4.8609 16.5114 4.85021 16.5074 4.80106 16.4628C4.74848 16.415 4.68138 16.3483 4.56842 16.2353L4.03809 16.7656L3.50776 17.296C3.69165 17.4798 3.8828 17.6797 4.10664 17.808L4.47949 17.1572ZM4.03809 16.7656L4.56842 16.2353L3.76471 15.4316L3.23438 15.9619L2.70404 16.4922L3.50776 17.296L4.03809 16.7656ZM3.23438 15.9619L3.76471 15.4316C3.6517 15.3186 3.585 15.2515 3.53723 15.1989C3.49262 15.1499 3.48864 15.1391 3.49347 15.1476L2.84277 15.5205L2.19207 15.8935C2.32035 16.1173 2.52002 16.3082 2.70404 16.4922L3.23438 15.9619ZM2.84277 15.5205L3.49364 15.1479C3.45339 15.0775 3.44958 14.9929 3.48165 14.9212L2.79688 14.6152L2.1121 14.3093C1.88371 14.8206 1.91488 15.4093 2.19191 15.8932L2.84277 15.5205ZM2.79688 14.6152L3.48154 14.9214C3.47726 14.931 3.47977 14.9204 3.51941 14.8671C3.56192 14.8099 3.62158 14.7367 3.72313 14.6125L3.14258 14.1377L2.56202 13.6629C2.39865 13.8626 2.2177 14.0732 2.11221 14.3091L2.79688 14.6152ZM3.14258 14.1377L3.72313 14.6125C3.90089 14.3952 4.05444 14.208 4.16862 14.0515C4.27921 13.8999 4.40141 13.714 4.46816 13.4958L3.75098 13.2764L3.03379 13.0569C3.04296 13.027 3.0444 13.0474 2.95691 13.1673C2.87301 13.2823 2.75116 13.4316 2.56202 13.6629L3.14258 14.1377ZM3.75098 13.2764L4.46817 13.4958C4.71336 12.6942 4.35573 11.8313 3.6154 11.4382L3.26367 12.1006L2.91194 12.763C3.0177 12.8192 3.06881 12.9425 3.03378 13.057L3.75098 13.2764ZM3.26367 12.1006L3.6154 11.4382C3.41433 11.3314 3.19706 11.2863 3.01152 11.2572C2.82014 11.2272 2.57944 11.2035 2.30004 11.1756L2.22559 11.9219L2.15113 12.6682C2.44789 12.6978 2.63933 12.7172 2.77949 12.7391C2.9255 12.762 2.93919 12.7775 2.91194 12.763L3.26367 12.1006ZM2.22559 11.9219L2.30004 11.1756C2.14028 11.1596 2.04638 11.1502 1.97572 11.1398C1.90985 11.1302 1.90077 11.1245 1.91078 11.1283L1.64355 11.8291L1.37633 12.5299C1.6178 12.622 1.89513 12.6426 2.15113 12.6682L2.22559 11.9219ZM1.64355 11.8291L1.91098 11.1284C1.83716 11.1002 1.78012 11.0377 1.75895 10.9597L1.03516 11.1562L0.311366 11.3528C0.457702 11.8917 0.852755 12.3301 1.37613 12.5298L1.64355 11.8291ZM1.03516 11.1562L1.75905 10.9601C1.76154 10.9693 1.7568 10.9589 1.75365 10.893C1.75027 10.8223 1.75 10.728 1.75 10.5684H1H0.25C0.25 10.8286 0.243881 11.1038 0.311266 11.3524L1.03516 11.1562ZM1 10.5684H1.75V9.43164H1H0.25V10.5684H1ZM1 9.43164H1.75C1.75 9.27156 1.75024 9.17709 1.75361 9.10618C1.75676 9.0401 1.76151 9.02988 1.75894 9.03933L1.03516 8.84277L0.311369 8.64622C0.243694 8.89543 0.25 9.17161 0.25 9.43164H1ZM1.03516 8.84277L1.75886 9.03961C1.77996 8.96205 1.83669 8.89966 1.91065 8.87135L1.64258 8.1709L1.37451 7.47044C0.852363 7.67027 0.457867 8.1076 0.311448 8.64593L1.03516 8.84277ZM1.64258 8.1709L1.91061 8.87137C1.9012 8.87497 1.91073 8.86923 1.97637 8.85949C2.04676 8.84905 2.14086 8.83941 2.30043 8.82341L2.22559 8.07715L2.15075 7.33089C1.89233 7.35681 1.61604 7.37802 1.37455 7.47043L1.64258 8.1709ZM2.22559 8.07715L2.30043 8.82341C2.57957 8.79541 2.82047 8.77164 3.01172 8.7418C3.197 8.71288 3.41492 8.66787 3.61651 8.56078L3.26465 7.89844L2.91279 7.2361C2.94042 7.22142 2.92706 7.23685 2.78043 7.25974C2.63975 7.28169 2.44809 7.30107 2.15075 7.33089L2.22559 8.07715ZM3.26465 7.89844L3.61697 8.56053C4.35691 8.16679 4.71283 7.30369 4.46822 6.50342L3.75098 6.72266L3.03374 6.94189C3.06891 7.05696 3.01735 7.18046 2.91233 7.23634L3.26465 7.89844ZM3.75098 6.72266L4.4681 6.50302C4.40155 6.28576 4.28034 6.10032 4.16959 5.94816C4.05541 5.79127 3.90212 5.60408 3.72403 5.38641L3.14355 5.86133L2.56308 6.33625C2.75181 6.56693 2.87338 6.71622 2.95679 6.83082C3.04363 6.95015 3.04271 6.97119 3.03386 6.94229L3.75098 6.72266ZM3.14355 5.86133L3.72403 5.38641C3.62253 5.26234 3.56287 5.18917 3.52043 5.13203C3.48088 5.07879 3.47825 5.06809 3.4824 5.07737L2.79785 5.38379L2.1133 5.6902C2.21881 5.92591 2.39927 6.13602 2.56308 6.33625L3.14355 5.86133ZM2.79785 5.38379L3.48258 5.07778C3.44977 5.00435 3.45419 4.92005 3.49358 4.85127L2.84277 4.47852L2.19197 4.10576C1.91389 4.59126 1.88531 5.18005 2.11312 5.6898L2.79785 5.38379ZM2.84277 4.47852L3.49355 4.85133C3.48876 4.85969 3.49272 4.849 3.53718 4.80008C3.58485 4.74761 3.65151 4.68059 3.7646 4.56754L3.23438 4.03711L2.70415 3.50668C2.51978 3.69097 2.32033 3.88168 2.192 4.1057L2.84277 4.47852ZM3.23438 4.03711L3.76471 4.56744L4.56842 3.76373L4.03809 3.2334L3.50776 2.70307L2.70404 3.50678L3.23438 4.03711ZM4.03809 3.2334L4.56831 3.76383C4.68081 3.65137 4.74789 3.5849 4.80005 3.53767C4.84871 3.49361 4.85982 3.48925 4.8522 3.49361L4.47949 2.84277L4.10679 2.19193C3.88342 2.31985 3.69368 2.51721 3.50786 2.70297L4.03809 3.2334ZM4.47949 2.84277L4.85211 3.49366C4.9214 3.454 5.00551 3.44981 5.07844 3.48244L5.38477 2.79785L5.69109 2.11326C5.1808 1.88493 4.59209 1.91411 4.10687 2.19189L4.47949 2.84277ZM5.38477 2.79785L5.07811 3.48229C5.07015 3.47873 5.08165 3.48199 5.13442 3.52101C5.19099 3.56283 5.26427 3.62229 5.38729 3.72298L5.8623 3.14258L6.33732 2.56218C6.1342 2.39595 5.92606 2.21854 5.69142 2.11341L5.38477 2.79785ZM5.8623 3.14258L5.38729 3.72298C5.60426 3.90055 5.79127 4.05412 5.94746 4.16826C6.09877 4.27883 6.28468 4.40123 6.50305 4.4681L6.72266 3.75098L6.94226 3.03385C6.97242 3.04308 6.95223 3.04468 6.83247 2.95716C6.71758 2.8732 6.56851 2.7514 6.33732 2.56218L5.8623 3.14258ZM6.72266 3.75098L6.50326 4.46817C7.30494 4.71341 8.16754 4.35515 8.56066 3.61576L7.89844 3.26367L7.23622 2.91159C7.17979 3.01771 7.05604 3.06865 6.94206 3.03378L6.72266 3.75098ZM7.89844 3.26367L8.56101 3.61509C8.66769 3.41396 8.71272 3.19659 8.7417 3.01133C8.7716 2.82015 8.79542 2.57952 8.82341 2.30043L8.07715 2.22559L7.33089 2.15075C7.30112 2.44761 7.28168 2.63911 7.25972 2.77953C7.23683 2.92586 7.22139 2.93955 7.23586 2.91226L7.89844 3.26367ZM8.07715 2.22559L8.82341 2.30043C8.8394 2.14093 8.84906 2.0468 8.8595 1.97639C8.86925 1.91069 8.87499 1.90113 8.87139 1.91056L8.1709 1.64258L7.47041 1.3746C7.37806 1.616 7.35681 1.8923 7.33089 2.15075L8.07715 2.22559ZM8.1709 1.64258L8.87136 1.91062C8.8997 1.83658 8.96201 1.77996 9.03952 1.75889L8.84277 1.03516L8.64603 0.311421C8.1075 0.457818 7.67025 0.852358 7.47043 1.37453L8.1709 1.64258ZM8.84277 1.03516L9.03937 1.75893C9.02986 1.76151 9.04006 1.75676 9.10619 1.75361C9.1771 1.75024 9.27159 1.75 9.43164 1.75V1V0.25C9.1717 0.25 8.89538 0.243689 8.64617 0.311383L8.84277 1.03516ZM9.43164 1V1.75H10.5684V1V0.25H9.43164V1ZM10 6.40039V5.65039C7.59756 5.65039 5.65039 7.59756 5.65039 10H6.40039H7.15039C7.15039 8.42599 8.42599 7.15039 10 7.15039V6.40039ZM6.40039 10H5.65039C5.65039 12.4024 7.59756 14.3496 10 14.3496V13.5996V12.8496C8.42599 12.8496 7.15039 11.574 7.15039 10H6.40039ZM10 13.5996V14.3496C12.4024 14.3496 14.3496 12.4024 14.3496 10H13.5996H12.8496C12.8496 11.574 11.574 12.8496 10 12.8496V13.5996ZM13.5996 10H14.3496C14.3496 7.59756 12.4024 5.65039 10 5.65039V6.40039V7.15039C11.574 7.15039 12.8496 8.42599 12.8496 10H13.5996Z" fill="#1C1C1C"/>
<circle cx="10.0004" cy="9.9999" r="3.6" stroke="#1C1C1C" stroke-width="1.5"/>
</svg>
