<svg width="20" height="20" viewBox="0 0 20 20" fill="none" xmlns="http://www.w3.org/2000/svg">
<g clip-path="url(#clip0_121_2717)">
<path d="M17.1329 3.99787H14.5079V2.87287C14.5079 1.83862 13.6672 0.997871 12.6329 0.997871H2.88291C1.84941 0.997871 1.00791 1.83862 1.00791 2.87287V14.7634C1.00791 15.2194 1.25766 15.6379 1.66041 15.8531C1.84416 15.9514 2.04441 15.9994 2.24466 15.9994C2.48391 15.9994 2.72241 15.9296 2.92941 15.7924L5.50791 14.0734V16.9979H14.0197L17.0872 18.7931C17.2934 18.9311 17.5327 19.0001 17.7719 19.0001C17.9722 19.0001 18.1724 18.9521 18.3554 18.8539C18.7582 18.6379 19.0079 18.2201 19.0079 17.7641V5.87287C19.0079 4.83862 18.1672 3.99787 17.1329 3.99787ZM3.74951 14.0001C3.59801 14.1021 2.54373 14.8846 2.24466 14.7634C1.94559 14.6421 2.00791 14.1801 2.00791 13.9979V2.87287C2.00791 2.25262 2.26266 1.99787 2.88291 1.99787H12.5659C13.1862 1.99787 13.5079 2.25262 13.5079 2.87287V12.9979H5.50791L3.74951 14.0001ZM18.0079 16.9979C18.0079 17.1801 18.0043 17.6786 17.8438 17.7641C17.6429 17.8711 17.1609 17.5984 17.0079 17.4979L14.2462 15.9979H6.50791V14.0734H14.5079V4.99787H17.1329C17.7532 4.99787 18.0079 5.37762 18.0079 5.99787V16.9979Z" fill="#DD0033" stroke="#DD0033" stroke-width="0.4"/>
<path d="M8.43933 9.43396H7.10547C7.10946 9.06311 7.14136 8.75208 7.20117 8.50085C7.26099 8.24565 7.36068 8.01436 7.50024 7.80701C7.6438 7.59965 7.83321 7.38033 8.06848 7.14905C8.25191 6.97359 8.4174 6.80811 8.56494 6.65259C8.71248 6.49308 8.83012 6.3256 8.91785 6.15015C9.00557 5.9707 9.04944 5.76534 9.04944 5.53406C9.04944 5.28284 9.00757 5.0695 8.92383 4.89404C8.84009 4.71859 8.71647 4.585 8.55298 4.49329C8.39347 4.40157 8.19409 4.35571 7.95483 4.35571C7.75545 4.35571 7.56803 4.39559 7.39258 4.47534C7.21712 4.55111 7.07556 4.67074 6.9679 4.83423C6.86023 4.99373 6.80241 5.20508 6.79443 5.46826H5.35291C5.36088 4.96582 5.48051 4.54313 5.71179 4.2002C5.94307 3.85726 6.25411 3.60006 6.6449 3.42859C7.03569 3.25712 7.47233 3.17139 7.95483 3.17139C8.48918 3.17139 8.94576 3.2631 9.32458 3.44653C9.70341 3.62598 9.99251 3.88916 10.1919 4.23608C10.3953 4.57902 10.4969 4.99373 10.4969 5.48022C10.4969 5.83114 10.4272 6.15015 10.2876 6.43726C10.148 6.72038 9.96659 6.98556 9.74329 7.23279C9.51998 7.47603 9.27873 7.71928 9.01953 7.96252C8.79622 8.16589 8.64469 8.38721 8.56494 8.62646C8.48519 8.86174 8.44332 9.1309 8.43933 9.43396ZM6.98584 11.3002C6.98584 11.0848 7.05961 10.9034 7.20715 10.7559C7.3547 10.6043 7.55607 10.5286 7.81128 10.5286C8.06649 10.5286 8.26786 10.6043 8.41541 10.7559C8.56295 10.9034 8.63672 11.0848 8.63672 11.3002C8.63672 11.5155 8.56295 11.6989 8.41541 11.8505C8.26786 11.998 8.06649 12.0718 7.81128 12.0718C7.55607 12.0718 7.3547 11.998 7.20715 11.8505C7.05961 11.6989 6.98584 11.5155 6.98584 11.3002Z" fill="#DD0033"/>
</g>
<defs>
<clipPath id="clip0_121_2717">
<rect width="20" height="20" fill="white"/>
</clipPath>
</defs>
</svg>
