<?xml version="1.0" ?>
<!-- Uploaded to: SVG Repo, www.svgrepo.com, Generator: SVG Repo Mixer Tools -->
<svg width="800px" height="800px" viewBox="0 -18 117 117" version="1.1" xmlns="http://www.w3.org/2000/svg" xmlns:xlink="http://www.w3.org/1999/xlink">
<title/>
<desc/>
<defs/>
<g fill="none" fill-rule="evenodd" id="Page-1" stroke="none" stroke-width="1">
<g fill-rule="nonzero" id="battery">
<path d="M44.2,15.9 C41.9,15.9 40.1,17.7 40.1,20 L40.1,61.5 C40.1,63.8 41.9,65.6 44.2,65.6 C46.5,65.6 48.3,63.8 48.3,61.5 L48.3,20 C48.3,17.7 46.4,15.9 44.2,15.9 Z" fill="#17AB13" id="Shape"/>
<path d="M24.4,15.9 C22.1,15.9 20.3,17.7 20.3,20 L20.3,61.5 C20.3,63.8 22.1,65.6 24.4,65.6 C26.7,65.6 28.5,63.8 28.5,61.5 L28.5,20 C28.5,17.7 26.6,15.9 24.4,15.9 Z" fill="#17AB13" id="Shape"/>
<path d="M4.5,81 L91.2,81 C93.5,81 95.3,79.2 95.3,76.9 L95.3,59.5 L112.5,59.5 C114.8,59.5 116.6,57.7 116.6,55.4 L116.6,25.4 C116.6,23.1 114.8,21.3 112.5,21.3 L95.3,21.3 L95.3,4.1 C95.3,1.8 93.5,7.10542736e-15 91.2,7.10542736e-15 L4.5,7.10542736e-15 C2.2,7.10542736e-15 0.4,1.8 0.4,4.1 L0.4,76.9 C0.4,79.1 2.3,81 4.5,81 Z M95.3,29.5 L108.4,29.5 L108.4,51.4 L95.3,51.4 L95.3,29.5 Z M8.6,8.2 L87.1,8.2 L87.1,25.4 L87.1,55.4 L87.1,72.8 L8.6,72.8 L8.6,8.2 Z" fill="#4A4A4A" id="Shape"/>
</g>
</g>
</svg>