<?xml version="1.0" ?>
<!-- Uploaded to: SVG Repo, www.svgrepo.com, Generator: SVG Repo Mixer Tools -->
<svg width="800px" height="800px" viewBox="0 0 117 117" version="1.1" xmlns="http://www.w3.org/2000/svg" xmlns:xlink="http://www.w3.org/1999/xlink">
<title/>
<desc/>
<defs/>
<g fill="none" fill-rule="evenodd" id="Page-1" stroke="none" stroke-width="1">
<g fill-rule="nonzero" id="camera">
<path d="M4.5,116.6 L112.4,116.6 C114.7,116.6 116.5,114.8 116.5,112.5 L116.5,58.5 L116.5,4.5 C116.5,2.2 114.7,0.4 112.4,0.4 L4.5,0.4 C2.2,0.4 0.4,2.2 0.4,4.5 L0.4,58.5 L0.4,112.5 C0.4,114.7 2.3,116.6 4.5,116.6 Z M36.8,8.6 L108.3,8.6 L108.3,54.4 L88,54.4 C86,39.9 73.5,28.6 58.5,28.6 C50,28.6 42.3,32.2 36.8,38 L36.8,8.6 Z M58.5,36.8 C70.4,36.8 80.2,46.5 80.2,58.5 C80.2,70.5 70.5,80.2 58.5,80.2 C46.5,80.2 36.8,70.5 36.8,58.5 C36.8,46.5 46.6,36.8 58.5,36.8 Z M8.6,8.6 L28.6,8.6 L28.6,54.4 L8.6,54.4 L8.6,8.6 Z M8.6,62.6 L29,62.6 C31,77.1 43.5,88.4 58.5,88.4 C73.5,88.4 86,77.1 88,62.6 L108.3,62.6 L108.3,108.4 L8.6,108.4 L8.6,62.6 Z" fill="#4A4A4A" id="Shape"/>
<path d="M80.3,27.1 L90.9,27.1 C93.2,27.1 95,25.3 95,23 C95,20.7 93.2,18.9 90.9,18.9 L80.3,18.9 C78,18.9 76.2,20.7 76.2,23 C76.2,25.3 78,27.1 80.3,27.1 Z" fill="#17AB13" id="Shape"/>
<path d="M58.5,74 C67.1,74 74,67 74,58.5 C74,50 67.1,43 58.5,43 C49.9,43 43,49.9 43,58.5 C43,67.1 49.9,74 58.5,74 Z M58.5,51.1 C62.6,51.1 65.9,54.4 65.9,58.5 C65.9,62.6 62.6,65.9 58.5,65.9 C54.4,65.9 51.1,62.6 51.1,58.5 C51.1,54.4 54.4,51.1 58.5,51.1 Z" fill="#17AB13" id="Shape"/>
</g>
</g>
</svg>