<?xml version="1.0" ?>
<!-- Uploaded to: SVG Repo, www.svgrepo.com, Generator: SVG Repo Mixer Tools -->
<svg width="800px" height="800px" viewBox="-13 0 117 117" version="1.1" xmlns="http://www.w3.org/2000/svg" xmlns:xlink="http://www.w3.org/1999/xlink">
<title/>
<desc/>
<defs/>
<g fill="none" fill-rule="evenodd" id="Page-1" stroke="none" stroke-width="1">
<g fill-rule="nonzero" id="hand-watch">
<path d="M7.6,112.5 C7.6,114.8 9.4,116.6 11.7,116.6 L79.3,116.6 C81.6,116.6 83.4,114.8 83.4,112.5 L83.4,83 C88,75.9 90.7,67.5 90.7,58.5 C90.7,49.5 88,41.1 83.4,34 L83.4,4.5 C83.4,2.2 81.6,0.4 79.3,0.4 L11.7,0.4 C9.4,0.4 7.6,2.2 7.6,4.5 L7.6,34 C3,41.1 0.3,49.5 0.3,58.5 C0.3,67.5 3,75.9 7.6,83 L7.6,112.5 Z M75.2,108.4 L15.8,108.4 L15.8,92.4 C23.7,99.4 34.1,103.6 45.5,103.6 C56.9,103.6 67.3,99.3 75.2,92.4 L75.2,108.4 Z M15.8,8.6 L75.2,8.6 L75.2,24.6 C67.3,17.6 56.9,13.4 45.5,13.4 C34.1,13.4 23.7,17.7 15.8,24.6 L15.8,8.6 Z M45.5,21.5 C65.9,21.5 82.5,38.1 82.5,58.5 C82.5,78.9 65.9,95.5 45.5,95.5 C25.1,95.5 8.5,78.9 8.5,58.5 C8.5,38.1 25.1,21.5 45.5,21.5 Z" fill="#4A4A4A" id="Shape"/>
<path d="M45.5,62.6 L60.2,62.6 C62.5,62.6 64.3,60.8 64.3,58.5 C64.3,56.2 62.5,54.4 60.2,54.4 L49.6,54.4 L49.6,37.2 C49.6,34.9 47.8,33.1 45.5,33.1 C43.2,33.1 41.4,34.9 41.4,37.2 L41.4,58.5 C41.4,60.8 43.2,62.6 45.5,62.6 Z" fill="#17AB13" id="Shape"/>
</g>
</g>
</svg>