<?xml version="1.0" ?>
<!-- Uploaded to: SVG Repo, www.svgrepo.com, Generator: SVG Repo Mixer Tools -->
<svg width="800px" height="800px" viewBox="-20 0 117 117" version="1.1" xmlns="http://www.w3.org/2000/svg" xmlns:xlink="http://www.w3.org/1999/xlink">
<title/>
<desc/>
<defs/>
<g fill="none" fill-rule="evenodd" id="Page-1" stroke="none" stroke-width="1">
<g fill-rule="nonzero" id="spoonfolk">
<path d="M16.6,0.4 C7.7,0.4 0.7,9.4 0.7,21 C0.7,30.5 5.5,38.4 12.2,40.8 L12.2,112.2 C12.2,114.6 14.2,116.6 16.6,116.6 C19,116.6 21,114.6 21,112.2 L21,40.8 C27.7,38.4 32.5,30.6 32.5,21 C32.5,9.5 25.5,0.4 16.6,0.4 Z M16.6,32.7 C13.3,32.7 9.5,27.9 9.5,21 C9.5,14.1 13.2,9.3 16.6,9.3 C19.9,9.3 23.7,14.1 23.7,21 C23.6,27.9 19.9,32.7 16.6,32.7 Z" fill="#4A4A4A" id="Shape"/>
<path d="M71.9,0.4 C69.5,0.4 67.5,2.4 67.5,4.8 L67.5,32.5 L64.8,32.5 L64.8,4.8 C64.8,2.4 62.8,0.4 60.4,0.4 C58,0.4 56,2.4 56,4.8 L56,32.5 L53.4,32.5 L53.4,4.8 C53.4,2.4 51.4,0.4 49,0.4 C46.6,0.4 44.6,2.4 44.6,4.8 L44.6,36.9 C44.6,39.3 46.6,41.3 49,41.3 L56,41.3 L56,112.1 C56,114.5 58,116.5 60.4,116.5 C62.8,116.5 64.8,114.5 64.8,112.1 L64.8,41.4 L71.9,41.4 C74.3,41.4 76.3,39.4 76.3,37 L76.3,4.8 C76.4,2.4 74.4,0.4 71.9,0.4 Z" fill="#17AB13" id="Shape"/>
</g>
</g>
</svg>