<?xml version="1.0" ?>
<!-- Uploaded to: SVG Repo, www.svgrepo.com, Generator: SVG Repo Mixer Tools -->
<svg width="800px" height="800px" viewBox="0 0 117 117" version="1.1" xmlns="http://www.w3.org/2000/svg" xmlns:xlink="http://www.w3.org/1999/xlink">
<title/>
<desc/>
<defs/>
<g fill="none" fill-rule="evenodd" id="Page-1" stroke="none" stroke-width="1">
<g fill-rule="nonzero" id="layer">
<path d="M112.7,108.3 L8.4,108.3 L8.4,4.5 C8.4,2.2 6.6,0.4 4.3,0.4 C2,0.4 0.2,2.2 0.2,4.5 L0.2,112.4 C0.2,114.7 2,116.5 4.3,116.5 L112.7,116.5 C115,116.5 116.8,114.7 116.8,112.4 C116.8,110.1 115,108.3 112.7,108.3 Z" fill="#4A4A4A" id="Shape"/>
<path d="M112.7,0.4 L23.2,0.4 C20.9,0.4 19.1,2.2 19.1,4.5 L19.1,93.5 C19.1,95.8 20.9,97.6 23.2,97.6 L112.7,97.6 C115,97.6 116.8,95.8 116.8,93.5 L116.8,4.5 C116.8,2.3 115,0.4 112.7,0.4 Z M108.6,89.5 L27.3,89.5 L27.3,8.6 L108.6,8.6 L108.6,89.5 Z" fill="#17AB13" id="Shape"/>
</g>
</g>
</svg>