<?xml version="1.0" ?>
<!-- Uploaded to: SVG Repo, www.svgrepo.com, Generator: SVG Repo Mixer Tools -->
<svg width="800px" height="800px" viewBox="0 0 117 117" version="1.1" xmlns="http://www.w3.org/2000/svg" xmlns:xlink="http://www.w3.org/1999/xlink">
<title/>
<desc/>
<defs/>
<g fill="none" fill-rule="evenodd" id="Page-1" stroke="none" stroke-width="1">
<g fill-rule="nonzero" id="zoomout">
<path d="M45.6,0.5 C20.7,0.5 0.5,20.7 0.5,45.6 C0.5,70.5 20.7,90.7 45.6,90.7 C56.6,90.7 66.6,86.8 74.5,80.2 L109.6,115.3 C110.4,116.1 111.4,116.5 112.5,116.5 C113.5,116.5 114.6,116.1 115.4,115.3 C117,113.7 117,111.1 115.4,109.5 L80.3,74.5 C86.8,66.7 90.8,56.6 90.8,45.6 C90.7,20.7 70.5,0.5 45.6,0.5 Z M45.6,82.6 C25.2,82.6 8.6,66 8.6,45.6 C8.6,25.2 25.2,8.6 45.6,8.6 C66,8.6 82.6,25.2 82.6,45.6 C82.6,66 66,82.6 45.6,82.6 Z" fill="#4A4A4A" id="Shape"/>
<path d="M72.3,41.5 L18.9,41.5 C16.6,41.5 14.8,43.3 14.8,45.6 C14.8,47.9 16.6,49.7 18.9,49.7 L72.3,49.7 C74.6,49.7 76.4,47.9 76.4,45.6 C76.4,43.3 74.6,41.5 72.3,41.5 Z" fill="#17AB13" id="Shape"/>
</g>
</g>
</svg>