<?xml version="1.0" ?>
<!-- Uploaded to: SVG Repo, www.svgrepo.com, Generator: SVG Repo Mixer Tools -->
<svg width="800px" height="800px" viewBox="0 0 117 117" version="1.1" xmlns="http://www.w3.org/2000/svg" xmlns:xlink="http://www.w3.org/1999/xlink">
<title/>
<desc/>
<defs/>
<g fill="none" fill-rule="evenodd" id="Page-1" stroke="none" stroke-width="1">
<g fill-rule="nonzero" id="pricetag">
<path d="M115.3,60.4 L56.6,1.7 C55.7,0.8 54.4,0.4 53.2,0.5 L9.2,5.5 C7.3,5.7 5.7,7.2 5.5,9.2 L0.5,53.2 C0.4,54.5 0.8,55.7 1.7,56.6 L60.4,115.3 C61.2,116.1 62.3,116.5 63.4,116.5 C64.5,116.5 65.5,116.1 66.4,115.3 L115.4,66.3 C116.2,65.5 116.6,64.5 116.6,63.3 C116.5,62.3 116.1,61.2 115.3,60.4 Z M9.1,52.1 L13.5,13.5 L52.1,9.1 L92,49 L49,92 L9.1,52.1 Z M63.4,106.4 L55,98 L98,55 L106.4,63.4 L63.4,106.4 Z" fill="#4A4A4A" id="Shape"/>
<path d="M48.7,26.2 C45.7,23.2 41.7,21.5 37.4,21.5 C33.1,21.5 29.2,23.2 26.1,26.2 C19.9,32.4 19.9,42.5 26.1,48.7 C29.1,51.7 33.1,53.4 37.4,53.4 C41.7,53.4 45.6,51.7 48.7,48.7 C51.7,45.7 53.4,41.7 53.4,37.4 C53.4,33.2 51.7,29.2 48.7,26.2 Z M42.8,42.8 C40,45.6 35,45.6 32.1,42.8 C29.2,39.9 29.2,35.1 32.1,32.1 C33.5,30.7 35.4,29.9 37.4,29.9 C39.4,29.9 41.3,30.7 42.7,32.1 C44.1,33.5 44.9,35.4 44.9,37.4 C45,39.5 44.2,41.3 42.8,42.8 Z" fill="#17AB13" id="Shape"/>
</g>
</g>
</svg>