<svg width="18" height="18" viewBox="0 0 18 18" fill="none" xmlns="http://www.w3.org/2000/svg">
<path d="M14.625 1.5H13.5V0.375C13.5 0.168 13.332 0 13.125 0C12.918 0 12.75 0.168 12.75 0.375V1.5H5.25V0.375C5.25 0.168 5.082 0 4.875 0C4.668 0 4.5 0.168 4.5 0.375V1.5H3.375C1.51425 1.5 0 3.01425 0 4.875V14.625C0 16.4858 1.51425 18 3.375 18H7.875C8.082 18 8.25 17.832 8.25 17.625C8.25 17.418 8.082 17.25 7.875 17.25H3.375C1.9275 17.25 0.75 16.0725 0.75 14.625V6.75H17.25V8.625C17.25 8.832 17.418 9 17.625 9C17.832 9 18 8.832 18 8.625V4.875C18 3.01425 16.4858 1.5 14.625 1.5ZM17.25 6H0.75V4.875C0.75 3.4275 1.9275 2.25 3.375 2.25H14.625C16.0725 2.25 17.25 3.4275 17.25 4.875V6ZM13.5 10.5C12.6727 10.5 12 11.1727 12 12C12 12.8273 12.6727 13.5 13.5 13.5C14.3273 13.5 15 12.8273 15 12C15 11.1727 14.3273 10.5 13.5 10.5ZM13.5 12.75C13.0868 12.75 12.75 12.4132 12.75 12C12.75 11.5868 13.0868 11.25 13.5 11.25C13.9132 11.25 14.25 11.5868 14.25 12C14.25 12.4132 13.9132 12.75 13.5 12.75ZM13.5 9C11.0145 9 9 11.0145 9 13.5C9 15.9855 11.0145 18 13.5 18C15.9855 18 18 15.9855 18 13.5C18 11.0145 15.9855 9 13.5 9ZM15 16.9365C14.5402 17.1383 14.0332 17.25 13.5 17.25C12.9668 17.25 12.4598 17.1383 12 16.9365V16.5C12 15.6727 12.6727 15 13.5 15C14.3273 15 15 15.6727 15 16.5V16.9365ZM15.75 16.4977C15.7493 15.258 14.7405 14.25 13.5 14.25C12.2595 14.25 11.2515 15.258 11.25 16.4977C10.3395 15.813 9.75 14.724 9.75 13.5C9.75 11.4323 11.4323 9.75 13.5 9.75C15.5677 9.75 17.25 11.4323 17.25 13.5C17.25 14.724 16.6605 15.813 15.75 16.4977Z" fill="white"/>
</svg>
