<?xml version="1.0" ?>
<!-- Uploaded to: SVG Repo, www.svgrepo.com, Generator: SVG Repo Mixer Tools -->
<svg width="800px" height="800px" viewBox="-13 0 117 117" version="1.1" xmlns="http://www.w3.org/2000/svg" xmlns:xlink="http://www.w3.org/1999/xlink">
<title/>
<desc/>
<defs/>
<g fill="none" fill-rule="evenodd" id="Page-1" stroke="none" stroke-width="1">
<g fill-rule="nonzero" id="bell">
<path d="M63.2,31.9 C63.2,14.7 49.2,0.6 31.9,0.6 C14.6,0.6 0.6,14.6 0.6,31.9 C0.6,49.2 14.6,63.2 31.9,63.2 C49.2,63.2 63.2,49.1 63.2,31.9 Z M8.9,31.9 C8.9,19.2 19.2,8.9 31.9,8.9 C44.6,8.9 54.9,19.2 54.9,31.9 C54.9,44.6 44.6,54.9 31.9,54.9 C19.2,54.9 8.9,44.6 8.9,31.9 Z" fill="#4A4A4A" id="Shape"/>
<path d="M74.7,43.4 C66.1,43.4 59.1,50.4 59.1,59 C59.1,65.2 62.7,70.5 67.9,73.1 C64.5,81.9 58,89.1 49.6,93.4 L49.6,92.9 C49.6,90.6 47.8,88.8 45.5,88.8 L18.3,88.8 C16,88.8 14.2,90.6 14.2,92.9 L14.2,112.3 C14.2,114.6 16,116.4 18.3,116.4 L45.5,116.4 C47.8,116.4 49.6,114.6 49.6,112.3 L49.6,102.5 C62.1,97.4 71.7,87.3 76.2,74.6 C84.1,73.9 90.4,67.2 90.4,59 C90.3,50.4 83.3,43.4 74.7,43.4 Z M41.4,99.1 C41.3,99.5 41.3,99.9 41.4,100.3 L41.4,108.2 L22.5,108.2 L22.5,97 L41.4,97 L41.4,99.1 Z M74.7,66.4 C70.6,66.4 67.3,63.1 67.3,59 C67.3,54.9 70.6,51.6 74.7,51.6 C78.8,51.6 82.1,54.9 82.1,59 C82.1,63.1 78.8,66.4 74.7,66.4 Z" fill="#17AB13" id="Shape"/>
</g>
</g>
</svg>