<svg width="17" height="21" viewBox="0 0 17 21" fill="none" xmlns="http://www.w3.org/2000/svg">
<path d="M8.12219 9.28338C10.6821 9.28338 12.7639 7.20159 12.7639 4.64169C12.7639 2.0818 10.6821 0 8.12219 0C5.56229 0 3.4805 2.0818 3.4805 4.64169C3.4805 7.20159 5.56229 9.28338 8.12219 9.28338ZM8.12219 0.773615C10.255 0.773615 11.9903 2.50883 11.9903 4.64169C11.9903 6.77455 10.255 8.50977 8.12219 8.50977C5.98933 8.50977 4.25411 6.77455 4.25411 4.64169C4.25411 2.50883 5.98933 0.773615 8.12219 0.773615ZM16.2451 18.5668H15.422L13.9522 13.3549C13.5274 11.8688 12.1504 10.8306 10.6047 10.8306H5.64043C4.09475 10.8306 2.71771 11.8688 2.293 13.3557L0.823127 18.5668H0L1.54955 13.143C2.06865 11.3257 3.75126 10.057 5.6412 10.057H10.6055C12.4947 10.057 14.1773 11.3257 14.6971 13.143L16.2467 18.5668H16.2451Z" fill="white"/>
<path d="M8.12148 13.9219C4.97303 13.9219 2.36699 16.2833 1.98166 19.3282C1.94926 19.5842 1.93359 19.3294 1.93359 19.5941L2.96405 20.1098C2.96405 18.8743 3.41894 17.7542 4.14613 16.8652L6.35042 19.0692C6.16888 19.3755 6.12244 19.998 6.18848 19.998H7.3489C7.3489 19.998 7.34684 19.0795 8.12148 19.0795C8.89613 19.0795 8.89613 19.998 8.89613 19.998H9.89255C9.89255 19.998 10.1224 19.3282 9.89255 19.0692L12.0968 16.8652C12.824 17.7542 13.2789 18.8743 13.2789 20.1098L14.3114 19.5941C14.3114 19.2991 14.2897 19.5245 14.2496 19.2403C13.8257 16.238 11.2396 13.9219 8.12148 13.9219ZM7.07968 18.339L4.87539 16.1351C5.76454 15.408 6.88473 14.9532 8.12045 14.9532C9.35617 14.9532 10.4764 15.408 11.3655 16.1351L9.16122 18.339C8.85487 18.1575 8.50107 18.0471 8.11942 18.0471C7.73777 18.0471 7.385 18.1585 7.07762 18.339H7.07968Z" fill="white"/>
</svg>
