<svg width="20" height="21" viewBox="0 0 20 21" fill="none" xmlns="http://www.w3.org/2000/svg">
<path fill-rule="evenodd" clip-rule="evenodd" d="M10.0003 0C6.49124 0 3.54361 2.63917 3.15731 6.12694L2.86692 8.74872C2.83481 9.03862 2.82 9.17166 2.80084 9.30197C2.67054 10.1883 2.38249 11.0441 1.95036 11.8288C1.88682 11.9442 1.81817 12.0591 1.66846 12.3095L1.00675 13.4158L0.987331 13.4483L0.987321 13.4483C0.641657 14.0262 0.355696 14.5043 0.187475 14.8976C0.0157766 15.299 -0.0887605 15.7348 0.102268 16.1656C0.14225 16.2558 0.191032 16.3418 0.247903 16.4224C0.519619 16.8075 0.94724 16.9415 1.37989 17.0002C1.80378 17.0577 2.36088 17.0577 3.03428 17.0576H3.0721H16.9286H16.9664C17.6398 17.0577 18.1969 17.0577 18.6208 17.0002C19.0534 16.9415 19.481 16.8075 19.7528 16.4224C19.8096 16.3418 19.8584 16.2558 19.8984 16.1656C20.0894 15.7348 19.9849 15.299 19.8132 14.8976C19.645 14.5043 19.359 14.0262 19.0133 13.4483L18.9939 13.4158L18.3322 12.3095C18.1825 12.0591 18.1138 11.9442 18.0503 11.8288C17.6182 11.0441 17.3301 10.1883 17.1998 9.30197C17.1807 9.17166 17.1658 9.03862 17.1337 8.74872L17.128 8.69651C16.8173 8.8171 16.4899 8.90419 16.1503 8.95335C16.1752 9.17797 16.1907 9.31328 16.2104 9.44743C16.3581 10.4519 16.6846 11.4218 17.1743 12.3112C17.2475 12.444 17.3257 12.5748 17.4682 12.8131L17.4683 12.8132L17.474 12.8228L18.1357 13.9291C18.5057 14.5477 18.7554 14.9675 18.8938 15.2908C19.0317 15.6134 19.0033 15.7174 18.9842 15.7603C18.9709 15.7904 18.9546 15.819 18.9357 15.8459C18.9086 15.8843 18.834 15.9621 18.4863 16.0093C18.1378 16.0565 17.6494 16.0576 16.9286 16.0576H3.0721C2.35125 16.0576 1.86284 16.0565 1.51433 16.0093C1.16666 15.9621 1.09207 15.8843 1.06499 15.8459C1.04603 15.819 1.02977 15.7904 1.01645 15.7603C0.997405 15.7174 0.968929 15.6134 1.1069 15.2908C1.24521 14.9675 1.49496 14.5477 1.86497 13.9291L2.52667 12.8228L2.53233 12.8133L2.53235 12.8133C2.67497 12.5748 2.75319 12.444 2.82632 12.3112C3.31608 11.4218 3.64253 10.4519 3.79021 9.44743C3.81226 9.29741 3.82904 9.14594 3.85963 8.86975L3.86084 8.8588L4.15123 6.23702C4.48142 3.25585 7.00092 1 10.0003 1C10.7793 1 11.5259 1.15215 12.2102 1.42964C12.4631 1.15873 12.7491 0.91909 13.0618 0.717156C12.1366 0.257212 11.0958 0 10.0003 0ZM14.9195 2.06776C14.564 2.15228 14.238 2.31269 13.9595 2.53092C14.9872 3.46536 15.6861 4.76246 15.8494 6.23702L15.9299 6.96318C16.2816 6.90223 16.6082 6.76776 16.8931 6.57618L16.8433 6.12694C16.6679 4.54293 15.9642 3.13396 14.9195 2.06776Z" fill="white"/>
<path d="M6.68747 17.0226C6.88289 17.8762 7.31352 18.6305 7.91255 19.1685C8.51159 19.7064 9.24556 19.998 10.0006 19.998C10.7557 19.998 11.4897 19.7065 12.0887 19.1685C12.6877 18.6305 13.1184 17.8762 13.3138 17.0226" stroke="white" stroke-linecap="round"/>
<circle cx="15.5" cy="4.5" r="2.5" fill="white"/>
</svg>
