<svg width="19" height="20" viewBox="0 0 19 20" fill="none" xmlns="http://www.w3.org/2000/svg">
<path d="M2.7773 4.00802C3.87044 4.00802 4.76051 3.10942 4.76051 2.00401C4.76051 0.898597 3.87044 0 2.7773 0C1.68415 0 0.79408 0.898597 0.79408 2.00401C0.79408 3.10942 1.68415 4.00802 2.7773 4.00802ZM2.7773 0.801603C3.43334 0.801603 3.96723 1.34108 3.96723 2.00401C3.96723 2.66693 3.43334 3.20641 2.7773 3.20641C2.12125 3.20641 1.58737 2.66693 1.58737 2.00401C1.58737 1.34108 2.12125 0.801603 2.7773 0.801603ZM19 14.3591L18.8207 13.5776L11.6272 15.2625L9.11883 4.33026L8.34537 4.51222L9.33301 8.81764H6.19477L4.97866 6.36072C4.50507 5.40441 3.55392 4.80962 2.49568 4.80962H1.58657C0.711578 4.80962 0 5.52866 0 6.41283V11.3515C0 11.9126 0.28241 12.4232 0.760762 12.7198L3.96643 14.6557L3.95592 19.6794L4.75 20L4.75972 14.202L1.17248 12.0353C0.935285 11.8878 0.793286 11.6321 0.793286 11.3515V6.41283C0.793286 5.97034 1.14947 5.61122 1.58657 5.61122H2.49568C2.73128 5.61122 2.96054 5.65291 3.17315 5.72986V11.6273L3.96643 12.1066V6.27014C4.08463 6.40321 4.18696 6.55391 4.26947 6.71904L5.70452 9.61924H9.51706L10.8046 15.2321C10.78 15.2313 10.7546 15.2305 10.7292 15.2305C9.63605 15.2305 8.74598 16.1291 8.74598 17.2345C8.74598 18.3399 9.63605 19.2385 10.7292 19.2385C11.8223 19.2385 12.7124 18.3399 12.7124 17.2345C12.7124 16.7423 12.5355 16.291 12.2428 15.9415L18.9984 14.3591H19ZM10.7308 18.4369C10.0747 18.4369 9.54086 17.8974 9.54086 17.2345C9.54086 16.5715 10.0747 16.0321 10.7308 16.0321C11.3868 16.0321 11.9207 16.5715 11.9207 17.2345C11.9207 17.8974 11.3868 18.4369 10.7308 18.4369ZM0.79408 14.4289L1.58737 14.9082L1.58333 18.2365L0.756729 17.5311L0.79408 14.4289ZM12.3396 11.7339C12.4467 12.194 12.7243 12.5852 13.1225 12.8337C13.4026 13.0084 13.7167 13.0974 14.0372 13.0974C14.1729 13.0974 14.3101 13.0814 14.4457 13.0485L16.9113 12.4569C17.8458 12.2333 18.428 11.281 18.2091 10.3359L17.6157 7.77715C17.5086 7.31623 17.2302 6.92585 16.8319 6.67735C16.4337 6.42806 15.9633 6.3519 15.5095 6.46172L13.0448 7.05331C12.1095 7.27695 11.5272 8.22926 11.747 9.17435L12.3404 11.7331L12.3396 11.7339ZM13.2273 7.83327L15.692 7.24168C15.7666 7.22405 15.8411 7.21523 15.9149 7.21523C16.0894 7.21523 16.2616 7.26493 16.4139 7.35952C16.6312 7.49579 16.7836 7.70902 16.8423 7.96072L17.4356 10.5194C17.5554 11.0357 17.2373 11.5551 16.7264 11.6778L14.2609 12.2693C14.011 12.3295 13.7564 12.287 13.5382 12.1523C13.3209 12.016 13.1693 11.8028 13.1106 11.5511L12.5173 8.99238C12.3975 8.47535 12.7156 7.95671 13.2265 7.83407L13.2273 7.83327Z" fill="white"/>
</svg>
