<svg width="20" height="20" viewBox="0 0 20 20" fill="none" xmlns="http://www.w3.org/2000/svg">
<mask id="mask0_2097_57444" style="mask-type:luminance" maskUnits="userSpaceOnUse" x="0" y="0" width="20" height="20">
<path d="M0 0H20V20H0V0Z" fill="white"/>
</mask>
<g mask="url(#mask0_2097_57444)">
<path d="M14.167 0.00130248V16.668" stroke="white" stroke-width="0.8" stroke-miterlimit="10"/>
<path d="M14.1663 0.00130248C14.1663 2.76214 11.9272 5.0013 9.16634 5.0013H2.49967C1.57967 5.0013 0.833008 5.74797 0.833008 6.66797V10.0013C0.833008 10.9213 1.57967 11.668 2.49967 11.668H9.16634C11.9272 11.668 14.1663 13.9071 14.1663 16.668" stroke="white" stroke-width="0.8" stroke-miterlimit="10"/>
<path d="M5.83301 11.668L8.25467 17.1163C8.68301 18.0813 7.97717 19.168 6.92134 19.168H5.41634L2.08301 11.668" stroke="white" stroke-width="0.8" stroke-miterlimit="10"/>
<path d="M17.2598 10.5933L19.1664 12.5" stroke="white" stroke-width="0.8" stroke-miterlimit="10"/>
<path d="M17.292 6.04297L19.167 4.16797" stroke="white" stroke-width="0.8" stroke-miterlimit="10"/>
<path d="M17.5 8.33594H20" stroke="white" stroke-width="0.8" stroke-miterlimit="10"/>
</g>
</svg>
