<svg width="20" height="20" viewBox="0 0 20 20" fill="none" xmlns="http://www.w3.org/2000/svg">
<g clip-path="url(#clip0_2845_2254)">
<path d="M4.16667 18.5333H19.1667C19.3346 18.5333 19.4957 18.6001 19.6145 18.7188C19.7333 18.8376 19.8 18.9987 19.8 19.1667C19.8 19.3346 19.7333 19.4957 19.6145 19.6145C19.4957 19.7333 19.3346 19.8 19.1667 19.8H4.16691C3.1152 19.7987 2.10694 19.3804 1.36327 18.6367C0.619634 17.8931 0.201292 16.8849 0.2 15.8332V0.833333C0.2 0.665363 0.266726 0.504272 0.385499 0.385499C0.504272 0.266726 0.665363 0.2 0.833333 0.2C1.0013 0.2 1.16239 0.266726 1.28117 0.385499C1.39994 0.504272 1.46667 0.665363 1.46667 0.833333V15.8333C1.46667 16.5494 1.75113 17.2362 2.25748 17.7425L2.3989 17.6011L2.25748 17.7425C2.76383 18.2489 3.45058 18.5333 4.16667 18.5333Z" fill="white" stroke="#555555" stroke-width="0.4"/>
<path d="M5.44816 16.2825C5.32939 16.4012 5.1683 16.468 5.00033 16.468C4.83235 16.468 4.67126 16.4012 4.55249 16.2825C4.43372 16.1637 4.36699 16.0026 4.36699 15.8346V10.0013C4.36699 9.83333 4.43372 9.67224 4.55249 9.55347C4.67126 9.43469 4.83236 9.36797 5.00033 9.36797C5.1683 9.36797 5.32939 9.43469 5.44816 9.55347C5.56693 9.67224 5.63366 9.83333 5.63366 10.0013V15.8346C5.63366 16.0026 5.56693 16.1637 5.44816 16.2825Z" fill="white" stroke="#555555" stroke-width="0.4"/>
<path d="M8.53301 15.8333V8.33333C8.53301 8.16536 8.59973 8.00427 8.71851 7.8855C8.83728 7.76673 8.99837 7.7 9.16634 7.7C9.33431 7.7 9.4954 7.76673 9.61418 7.8855C9.73295 8.00427 9.79967 8.16536 9.79967 8.33333V15.8333C9.79967 16.0013 9.73295 16.1624 9.61418 16.2812C9.4954 16.3999 9.33431 16.4667 9.16634 16.4667C8.99837 16.4667 8.83728 16.3999 8.71851 16.2812C8.59973 16.1624 8.53301 16.0013 8.53301 15.8333Z" fill="white" stroke="#555555" stroke-width="0.4"/>
<path d="M12.7 15.8333V10.8333C12.7 10.6654 12.7667 10.5043 12.8855 10.3855C13.0043 10.2667 13.1654 10.2 13.3333 10.2C13.5013 10.2 13.6624 10.2667 13.7812 10.3855C13.8999 10.5043 13.9667 10.6654 13.9667 10.8333V15.8333C13.9667 16.0013 13.8999 16.1624 13.7812 16.2812C13.6624 16.3999 13.5013 16.4667 13.3333 16.4667C13.1654 16.4667 13.0043 16.3999 12.8855 16.2812C12.7667 16.1624 12.7 16.0013 12.7 15.8333Z" fill="white" stroke="#555555" stroke-width="0.4"/>
<path d="M16.867 15.8346V7.5013C16.867 7.33333 16.9337 7.17224 17.0525 7.05347C17.1713 6.93469 17.3324 6.86797 17.5003 6.86797C17.6683 6.86797 17.8294 6.93469 17.9482 7.05347C18.0669 7.17224 18.1337 7.33333 18.1337 7.5013V15.8346C18.1337 16.0026 18.0669 16.1637 17.9482 16.2825C17.8294 16.4012 17.6683 16.468 17.5003 16.468C17.3324 16.468 17.1713 16.4012 17.0525 16.2825C16.9337 16.1637 16.867 16.0026 16.867 15.8346Z" fill="white" stroke="#555555" stroke-width="0.4"/>
<path d="M5.44787 7.11591L5.44789 7.11589L8.43623 4.12756L8.43966 4.12413L8.4397 4.12417C8.63572 3.93743 8.89608 3.83326 9.16681 3.83326C9.43755 3.83326 9.69791 3.93743 9.89393 4.12417L9.89744 4.12752L9.8974 4.12756L11.7074 5.93754C11.7074 5.93754 11.7074 5.93755 11.7074 5.93756C12.1387 6.36873 12.7236 6.61095 13.3335 6.61095C13.9434 6.61095 14.5283 6.36872 14.9596 5.93754L19.6132 1.28388C19.7279 1.16455 19.7913 1.00507 19.7899 0.839548C19.7884 0.673491 19.7218 0.514643 19.6044 0.397218C19.487 0.279793 19.3281 0.213186 19.1621 0.211743C18.9966 0.210304 18.8371 0.273725 18.7177 0.388388L14.0641 5.04125L14.064 5.04125C13.8703 5.23497 13.6075 5.3438 13.3335 5.3438C13.0595 5.3438 12.7967 5.23498 12.6029 5.04127C12.6029 5.04126 12.6029 5.04126 12.6029 5.04126L10.7929 3.2321L10.7929 3.23209C10.3616 2.8009 9.77669 2.55868 9.16681 2.55868C8.55694 2.55868 7.97203 2.8009 7.54071 3.23209L4.55242 6.22038C4.55242 6.22039 4.55241 6.22039 4.5524 6.2204C4.46387 6.30897 4.40358 6.4218 4.37915 6.54463C4.35473 6.66746 4.36727 6.79478 4.41519 6.91049C4.46312 7.0262 4.54427 7.12511 4.6484 7.1947C4.7525 7.26428 4.87489 7.30144 5.00011 7.30148L5.44787 7.11591ZM5.44787 7.11591C5.32915 7.23467 5.16812 7.30142 5.00019 7.30148L5.44787 7.11591Z" fill="white" stroke="#555555" stroke-width="0.4"/>
</g>
<defs>
<clipPath id="clip0_2845_2254">
<rect width="20" height="20" fill="white"/>
</clipPath>
</defs>
</svg>
