<svg width="20" height="20" viewBox="0 0 20 20" fill="none" xmlns="http://www.w3.org/2000/svg">
<g clip-path="url(#clip0_2097_57407)">
<path d="M15 10C12.2425 10 10 12.2425 10 15C10 17.7575 12.2425 20 15 20C17.7575 20 20 17.7575 20 15C20 12.2425 17.7575 10 15 10ZM18.3333 15C18.3333 15.6167 18.1533 16.1867 17.8608 16.6825L13.3175 12.1383C13.8133 11.8458 14.3833 11.6658 15 11.6658C16.8383 11.6658 18.3333 13.1617 18.3333 15ZM11.6667 15C11.6667 14.3833 11.8467 13.8133 12.1392 13.3175L16.6825 17.8617C16.1867 18.1542 15.6167 18.3342 15 18.3342C13.1617 18.3342 11.6667 16.8383 11.6667 15ZM7.5 10C10.2575 10 12.5 7.7575 12.5 5C12.5 2.2425 10.2575 0 7.5 0C4.7425 0 2.5 2.2425 2.5 5C2.5 7.7575 4.7425 10 7.5 10ZM7.5 1.66667C9.33833 1.66667 10.8333 3.16167 10.8333 5C10.8333 6.83833 9.33833 8.33333 7.5 8.33333C5.66167 8.33333 4.16667 6.83833 4.16667 5C4.16667 3.16167 5.66167 1.66667 7.5 1.66667ZM9.2325 11.6667C8.93417 12.1817 8.70833 12.7433 8.55667 13.3333H4.16667C2.78833 13.3333 1.66667 14.455 1.66667 15.8333V20H0V15.8333C0 13.5358 1.86917 11.6667 4.16667 11.6667H9.2325Z" fill="white" stroke="#555555" stroke-width="0.8"/>
</g>
<defs>
<clipPath id="clip0_2097_57407">
<rect width="20" height="20" fill="white"/>
</clipPath>
</defs>
</svg>
