<svg width="20" height="20" viewBox="0 0 20 20" fill="none" xmlns="http://www.w3.org/2000/svg">
<path d="M15.3469 9.99764L18.0472 7.35622C18.7691 6.63514 19.1663 5.67574 19.1663 4.65522C19.1663 3.63471 18.7691 2.67607 18.0472 1.95422C17.3261 1.23314 16.3667 0.835938 15.3469 0.835938C14.3271 0.835938 13.3677 1.23314 12.6458 1.95422C11.1562 3.44375 11.1562 5.8667 12.6488 7.35851L15.3469 9.99764ZM13.1859 2.49504C13.7634 1.91832 14.5303 1.60056 15.3469 1.60056C16.1635 1.60056 16.9304 1.91832 17.5072 2.49504C18.0847 3.07175 18.4025 3.83942 18.4025 4.65599C18.4025 5.47255 18.0847 6.23946 17.5102 6.81388L15.3469 8.92977L13.1859 6.81694C11.9942 5.62532 11.9942 3.68589 13.1859 2.49504ZM2.36079 16.1138C1.51822 16.1138 0.833008 16.799 0.833008 17.6416C0.833008 18.4841 1.51822 19.1693 2.36079 19.1693C3.20336 19.1693 3.88856 18.4841 3.88856 17.6416C3.88856 16.799 3.20336 16.1138 2.36079 16.1138ZM2.36079 18.4054C1.93988 18.4054 1.5969 18.0624 1.5969 17.6416C1.5969 17.2207 1.93988 16.8777 2.36079 16.8777C2.78169 16.8777 3.12467 17.2207 3.12467 17.6416C3.12467 18.0624 2.78169 18.4054 2.36079 18.4054ZM8.85384 13.0584C8.85384 13.9009 9.53905 14.5861 10.3816 14.5861C11.2242 14.5861 11.9094 13.9009 11.9094 13.0584C11.9094 12.2159 11.2242 11.5307 10.3816 11.5307C9.53905 11.5307 8.85384 12.2159 8.85384 13.0584ZM11.1455 13.0584C11.1455 13.4793 10.8025 13.8223 10.3816 13.8223C9.96072 13.8223 9.61773 13.4793 9.61773 13.0584C9.61773 12.6375 9.96072 12.2946 10.3816 12.2946C10.8025 12.2946 11.1455 12.6375 11.1455 13.0584ZM19.1663 15.7319C19.1663 17.2062 17.967 18.4054 16.4927 18.4054H5.32009C5.38273 18.161 5.41634 17.9051 5.41634 17.6416H16.4927C17.5454 17.6416 18.4025 16.7845 18.4025 15.7319C18.4025 14.6793 17.5454 13.8223 16.4927 13.8223H13.3409C13.4036 13.5778 13.4372 13.3219 13.4372 13.0584H16.4927C17.967 13.0584 19.1663 14.2577 19.1663 15.7319ZM7.42231 13.8223H5.0344C3.56009 13.8223 2.36079 12.623 2.36079 11.1488C2.36079 9.67453 3.56009 8.47527 5.0344 8.47527H11.6046L12.3861 9.23913H5.0344C3.98176 9.23913 3.12467 10.0962 3.12467 11.1488C3.12467 12.2014 3.98176 13.0584 5.0344 13.0584H7.32606C7.32606 13.3219 7.35968 13.5778 7.42231 13.8223Z" fill="white"/>
</svg>
