<svg width="20" height="20" viewBox="0 0 20 20" fill="none" xmlns="http://www.w3.org/2000/svg">
<g clip-path="url(#clip0_2097_57410)">
<path d="M3.75 2.5H4.20833C4.4 3.45 5.24167 4.16667 6.25 4.16667H8.75C9.75833 4.16667 10.6 3.45 10.7917 2.5H11.25C12.8583 2.5 14.1667 3.80833 14.1667 5.41667C14.1667 5.65 14.35 5.83333 14.5833 5.83333C14.8167 5.83333 15 5.65 15 5.41667C15 3.35 13.3167 1.66667 11.25 1.66667H10.7917C10.6 0.716667 9.75833 0 8.75 0H6.25C5.24167 0 4.4 0.716667 4.20833 1.66667H3.75C1.68333 1.66667 0 3.35 0 5.41667V16.25C0 18.3167 1.68333 20 3.75 20H7.91667C8.15 20 8.33333 19.8167 8.33333 19.5833C8.33333 19.35 8.15 19.1667 7.91667 19.1667H3.75C2.14167 19.1667 0.833333 17.8583 0.833333 16.25V5.41667C0.833333 3.80833 2.14167 2.5 3.75 2.5ZM6.25 0.833333H8.75C9.44167 0.833333 10 1.39167 10 2.08333C10 2.775 9.44167 3.33333 8.75 3.33333H6.25C5.55833 3.33333 5 2.775 5 2.08333C5 1.39167 5.55833 0.833333 6.25 0.833333ZM17.0833 7.5H12.9167C11.3083 7.5 10 8.80833 10 10.4167V17.0833C10 18.6917 11.3083 20 12.9167 20H17.0833C18.6917 20 20 18.6917 20 17.0833V10.4167C20 8.80833 18.6917 7.5 17.0833 7.5ZM19.1667 17.0833C19.1667 18.2333 18.2333 19.1667 17.0833 19.1667H12.9167C11.7667 19.1667 10.8333 18.2333 10.8333 17.0833V10.4167C10.8333 9.26667 11.7667 8.33333 12.9167 8.33333H17.0833C18.2333 8.33333 19.1667 9.26667 19.1667 10.4167V17.0833ZM17.5 11.25C17.5 11.4833 17.3167 11.6667 17.0833 11.6667H12.9167C12.6833 11.6667 12.5 11.4833 12.5 11.25C12.5 11.0167 12.6833 10.8333 12.9167 10.8333H17.0833C17.3167 10.8333 17.5 11.0167 17.5 11.25ZM17.5 14.5833C17.5 14.8167 17.3167 15 17.0833 15H12.9167C12.6833 15 12.5 14.8167 12.5 14.5833C12.5 14.35 12.6833 14.1667 12.9167 14.1667H17.0833C17.3167 14.1667 17.5 14.35 17.5 14.5833Z" fill="white"/>
</g>
<defs>
<clipPath id="clip0_2097_57410">
<rect width="20" height="20" fill="white"/>
</clipPath>
</defs>
</svg>
