<svg width="20" height="20" viewBox="0 0 20 20" fill="none" xmlns="http://www.w3.org/2000/svg">
<path d="M10.0001 6.25057C10.9193 6.25057 11.6668 5.5031 11.6668 4.58398C11.6668 3.66485 10.9193 2.91738 10.0001 2.91738C9.08097 2.91738 8.33345 3.66485 8.33345 4.58398C8.33345 5.5031 9.08097 6.25057 10.0001 6.25057ZM10.0001 3.75068C10.4593 3.75068 10.8335 4.12399 10.8335 4.58398C10.8335 5.04396 10.4593 5.41727 10.0001 5.41727C9.54097 5.41727 9.1668 5.04396 9.1668 4.58398C9.1668 4.12399 9.54097 3.75068 10.0001 3.75068ZM8.41429 9.31711C8.84013 9.73209 9.40347 9.96042 10.0001 9.96042C10.5968 9.96042 11.1602 9.73209 11.5768 9.32461L13.2402 7.79468C14.1061 6.93221 14.5827 5.78559 14.5827 4.56564C14.5827 3.34569 14.1061 2.19908 13.2402 1.33661C12.3744 0.47498 11.2243 0 10.0001 0C8.77596 0 7.62594 0.474147 6.75926 1.33661C5.89341 2.19908 5.41674 3.34569 5.41674 4.56564C5.41674 5.78559 5.89341 6.93221 6.77176 7.80634L8.41429 9.31628V9.31711ZM7.3476 1.92825C8.05678 1.22245 8.99846 0.834965 10.0001 0.834965C11.0018 0.834965 11.9443 1.22328 12.6527 1.92825C13.3602 2.63322 13.7502 3.56985 13.7502 4.56648C13.7502 5.5631 13.3602 6.49973 12.6644 7.19303L11.0043 8.71964C10.466 9.24545 9.54514 9.25378 8.98763 8.7113L7.34844 7.20387C6.64009 6.4989 6.25092 5.56227 6.25092 4.56564C6.25092 3.56902 6.64092 2.63239 7.34844 1.92742L7.3476 1.92825ZM19.9753 15.9377L19.1228 8.69047C18.9686 7.38553 17.8461 5.86142 16.3003 5.6781C16.0728 5.64227 15.8644 5.81392 15.8369 6.04225C15.8094 6.27057 15.9727 6.47806 16.2019 6.50556C17.2928 6.63556 18.1811 7.81301 18.2953 8.7888L18.402 9.6971L8.66263 14.3344L1.85418 8.22966C2.16585 7.40969 2.9117 6.60972 3.79921 6.50306C4.02755 6.4764 4.19088 6.26891 4.16422 6.03975C4.13672 5.81226 3.93005 5.63893 3.70088 5.6756C2.15502 5.85976 1.03166 7.38303 0.878328 8.68797L0.02498 15.9368C-0.0966887 16.9676 0.229983 18.0034 0.919995 18.7792C1.61001 19.555 2.60086 20 3.63837 20H16.3619C17.3994 20 18.3911 19.555 19.0803 18.7792C19.7695 18.0034 20.0962 16.9685 19.9753 15.9377ZM1.54334 18.2259C1.01166 17.6276 0.759992 16.8285 0.853327 16.0343L1.66084 9.17462L12.806 19.1667H3.63837C2.83836 19.1667 2.07501 18.8242 1.54251 18.2259H1.54334ZM18.4578 18.2259C17.9261 18.8242 17.1619 19.1667 16.3619 19.1667H14.0535L9.3343 14.9352L18.5045 10.5687L19.1478 16.0343C19.2411 16.8285 18.9895 17.6276 18.4578 18.2259Z" fill="white"/>
</svg>
