<svg width="18" height="22" viewBox="0 0 18 22" fill="none" xmlns="http://www.w3.org/2000/svg">
<path d="M9.12219 10.2834C11.6821 10.2834 13.7639 8.20159 13.7639 5.64169C13.7639 3.0818 11.6821 1 9.12219 1C6.56229 1 4.4805 3.0818 4.4805 5.64169C4.4805 8.20159 6.56229 10.2834 9.12219 10.2834ZM9.12219 1.77362C11.255 1.77362 12.9903 3.50883 12.9903 5.64169C12.9903 7.77455 11.255 9.50977 9.12219 9.50977C6.98933 9.50977 5.25411 7.77455 5.25411 5.64169C5.25411 3.50883 6.98933 1.77362 9.12219 1.77362ZM17.2451 19.5668H16.422L14.9522 14.3549C14.5274 12.8688 13.1504 11.8306 11.6047 11.8306H6.64043C5.09475 11.8306 3.71771 12.8688 3.293 14.3557L1.82313 19.5668H1L2.54955 14.143C3.06865 12.3257 4.75126 11.057 6.6412 11.057H11.6055C13.4947 11.057 15.1773 12.3257 15.6971 14.143L17.2467 19.5668H17.2451Z" fill="#E41936" stroke="#E41936" stroke-width="0.4"/>
<path d="M9.12148 14.9219C5.97303 14.9219 3.36699 17.2833 2.98166 20.3282C2.94926 20.5842 2.93359 20.3294 2.93359 20.5941L3.96405 21.1098C3.96405 19.8743 4.41894 18.7542 5.14613 17.8652L7.35042 20.0692C7.16888 20.3755 7.12244 20.998 7.18848 20.998H8.3489C8.3489 20.998 8.34684 20.0795 9.12148 20.0795C9.89613 20.0795 9.89613 20.998 9.89613 20.998H10.8925C10.8925 20.998 11.1224 20.3282 10.8925 20.0692L13.0968 17.8652C13.824 18.7542 14.2789 19.8743 14.2789 21.1098L15.3114 20.5941C15.3114 20.2991 15.2897 20.5245 15.2496 20.2403C14.8257 17.238 12.2396 14.9219 9.12148 14.9219ZM8.07968 19.339L5.87539 17.1351C6.76454 16.408 7.88473 15.9532 9.12045 15.9532C10.3562 15.9532 11.4764 16.408 12.3655 17.1351L10.1612 19.339C9.85487 19.1575 9.50107 19.0471 9.11942 19.0471C8.73777 19.0471 8.385 19.1585 8.07762 19.339H8.07968Z" fill="#E41936" stroke="#E41936" stroke-width="0.4"/>
</svg>
