<svg width="20" height="20" viewBox="0 0 20 20" fill="none" xmlns="http://www.w3.org/2000/svg">
<g clip-path="url(#clip0_3388_5697)">
<path d="M15.8333 1.66667H15V0.833333C15 0.3725 14.6267 0 14.1667 0C13.7067 0 13.3333 0.3725 13.3333 0.833333V1.66667H6.66667V0.833333C6.66667 0.3725 6.29333 0 5.83333 0C5.37333 0 5 0.3725 5 0.833333V1.66667H4.16667C1.86917 1.66667 0 3.53583 0 5.83333V15.8333C0 18.1308 1.86917 20 4.16667 20H15.8333C18.1308 20 20 18.1308 20 15.8333V5.83333C20 3.53583 18.1308 1.66667 15.8333 1.66667ZM4.16667 3.33333H15.8333C17.2117 3.33333 18.3333 4.455 18.3333 5.83333V6.66667H1.66667V5.83333C1.66667 4.455 2.78833 3.33333 4.16667 3.33333ZM1.66667 8.33333H18.3333V8.82417C18.3208 8.835 13.3125 13.8417 13.3125 13.8417C12.8783 14.2758 12.1217 14.2758 11.6867 13.8417L11.1583 13.3125C10.0942 12.2483 8.23917 12.2483 7.175 13.3125L2.66083 17.8267C2.0575 17.37 1.66667 16.6458 1.66667 15.8325V8.3325V8.33333ZM15.8333 18.3333H4.51167L8.35417 14.4917C8.78833 14.0575 9.545 14.0575 9.98 14.4917L10.5083 15.0208C11.5725 16.085 13.4275 16.085 14.4917 15.0208L18.3333 11.1792V15.8342C18.3333 17.2125 17.2117 18.3333 15.8333 18.3333ZM3.33333 11.25C3.33333 10.56 3.89333 10 4.58333 10C5.27333 10 5.83333 10.56 5.83333 11.25C5.83333 11.94 5.27333 12.5 4.58333 12.5C3.89333 12.5 3.33333 11.94 3.33333 11.25Z" fill="#CC0001"/>
</g>
<defs>
<clipPath id="clip0_3388_5697">
<rect width="20" height="20" fill="white"/>
</clipPath>
</defs>
</svg>
