<svg width="20" height="20" viewBox="0 0 20 20" fill="none" xmlns="http://www.w3.org/2000/svg">
<g clip-path="url(#clip0_2851_3874)">
<path d="M7.08333 0H2.08333C0.933333 0 0 0.933333 0 2.08333V9.16667H9.16667V2.08333C9.16667 0.933333 8.23333 0 7.08333 0ZM8.33333 8.33333H0.833333V2.08333C0.833333 1.39167 1.39167 0.833333 2.08333 0.833333H7.08333C7.775 0.833333 8.33333 1.39167 8.33333 2.08333V8.33333ZM17.9167 10.8333H12.9167C11.7667 10.8333 10.8333 11.7667 10.8333 12.9167V20H20V12.9167C20 11.7667 19.0667 10.8333 17.9167 10.8333ZM19.1667 19.1667H11.6667V12.9167C11.6667 12.225 12.225 11.6667 12.9167 11.6667H17.9167C18.6083 11.6667 19.1667 12.225 19.1667 12.9167V19.1667ZM11.2 4.63333C10.7167 4.15 10.7167 3.35 11.2 2.86667L13.9417 0.125L14.5333 0.716667L11.9083 3.34167H15.4167C17.025 3.34167 18.3333 4.65 18.3333 6.25833V9.175H17.5V6.25833C17.5 5.10833 16.5667 4.175 15.4167 4.175H11.9083L14.5333 6.8L13.9417 7.39167L11.2 4.65V4.63333ZM8.8 15.3667C9.28333 15.85 9.28333 16.65 8.8 17.1333L6.05833 19.875L5.46667 19.2833L8.09167 16.6583H4.58333C2.975 16.6583 1.66667 15.35 1.66667 13.7417V10.825H2.5V13.7417C2.5 14.8917 3.43333 15.825 4.58333 15.825H8.09167L5.46667 13.2L6.05833 12.6083L8.8 15.35V15.3667Z" fill="#E41936" stroke="#E41936" stroke-width="0.4"/>
</g>
<defs>
<clipPath id="clip0_2851_3874">
<rect width="20" height="20" fill="white"/>
</clipPath>
</defs>
</svg>
