<svg width="22" height="22" viewBox="0 0 22 22" fill="none" xmlns="http://www.w3.org/2000/svg">
<path fill-rule="evenodd" clip-rule="evenodd" d="M11.0005 0.5C7.23655 0.5 4.07486 3.33084 3.6605 7.0719L3.37011 9.69367C3.33763 9.98695 3.32388 10.1098 3.30631 10.2292C3.1847 11.0565 2.91585 11.8552 2.51253 12.5877C2.45428 12.6934 2.39096 12.7996 2.23951 13.0528L1.5778 14.1592L1.54416 14.2154C1.21091 14.7724 0.909707 15.2759 0.727914 15.7009C0.539355 16.1418 0.368311 16.7435 0.645333 17.3683C0.698643 17.4885 0.763685 17.6032 0.839513 17.7107C1.23355 18.2691 1.83768 18.4312 2.31282 18.4956C2.7709 18.5578 3.35759 18.5577 4.00672 18.5577L4.07225 18.5576H17.9287L17.9943 18.5577C18.6434 18.5577 19.2301 18.5578 19.6881 18.4956C20.1633 18.4312 20.7674 18.2691 21.1615 17.7107C21.2373 17.6032 21.3023 17.4885 21.3556 17.3683C21.6327 16.7435 21.4616 16.1418 21.2731 15.7009C21.0913 15.2759 20.7901 14.7725 20.4568 14.2154L20.4568 14.2154L20.4232 14.1592L19.7615 13.0528C19.61 12.7996 19.5467 12.6934 19.4884 12.5877C19.0851 11.8552 18.8163 11.0565 18.6947 10.2292C18.6771 10.1098 18.6633 9.98695 18.6309 9.69367L18.6069 9.4774C18.0204 9.7887 17.3568 9.97407 16.6523 9.99747C16.6778 10.2277 16.6945 10.3743 16.7159 10.5202C16.8723 11.5837 17.2179 12.6107 17.7365 13.5524C17.814 13.6932 17.8966 13.8312 18.0349 14.0625L18.045 14.0794L18.7067 15.1857C19.0846 15.8175 19.3124 16.2027 19.4342 16.4875L19.4438 16.5103L19.4193 16.5138C19.1124 16.5554 18.6648 16.5576 17.9287 16.5576H4.07225C3.33617 16.5576 2.88858 16.5554 2.58171 16.5138L2.55715 16.5103L2.56677 16.4875C2.68856 16.2027 2.9164 15.8175 3.29423 15.1857L3.95593 14.0794L3.96611 14.0624C4.10443 13.8311 4.18696 13.6931 4.26446 13.5524C4.78302 12.6107 5.12868 11.5837 5.28504 10.5202C5.30841 10.3612 5.32611 10.2014 5.35576 9.93368L5.35576 9.93366L5.35796 9.91385L5.64834 7.29207C5.95048 4.56418 8.25591 2.5 11.0005 2.5C11.6571 2.5 12.2886 2.61816 12.8736 2.83529C13.3156 2.23477 13.9031 1.74801 14.5842 1.42706C13.5192 0.835095 12.2955 0.5 11.0005 0.5ZM16.5395 3.0003C16.5264 3.0001 16.5133 3 16.5002 3C15.7385 3 15.0564 3.34063 14.5978 3.87787C15.5521 4.73457 16.2018 5.93066 16.3526 7.29207L16.4309 7.99906C16.4539 7.99969 16.477 8 16.5002 8C17.2345 8 17.895 7.68335 18.3523 7.17913L18.3405 7.07189C18.1674 5.50922 17.5149 4.10537 16.5395 3.0003ZM19.501 16.6854L19.5006 16.6815C19.501 16.6842 19.5011 16.6854 19.501 16.6854ZM19.621 16.4706C19.6207 16.4708 19.6203 16.471 19.6199 16.4712C19.6224 16.4701 19.6235 16.4696 19.6234 16.4696C19.6234 16.4695 19.6225 16.4699 19.621 16.4706ZM2.37754 16.4696C2.3776 16.4695 2.37891 16.4701 2.38123 16.4712C2.37863 16.4702 2.37747 16.4696 2.37754 16.4696ZM2.5004 16.6814C2.50021 16.684 2.49999 16.6853 2.49993 16.6854C2.49987 16.6854 2.49996 16.6841 2.5004 16.6814Z" fill="#CC0001"/>
<path d="M7.68844 18.0246C7.88387 18.8782 8.31449 19.6325 8.91353 20.1704C9.51257 20.7084 10.2465 21 11.0016 21C11.7567 21 12.4906 20.7084 13.0897 20.1704C13.6887 19.6325 14.1193 18.8782 14.3148 18.0246" stroke="#CC0001" stroke-width="2" stroke-linecap="round"/>
<circle cx="16.5" cy="5.5" r="2.5" fill="#CC0001"/>
</svg>
