<svg width="21" height="22" viewBox="0 0 21 22" fill="none" xmlns="http://www.w3.org/2000/svg">
<path d="M3.7773 5.00802C4.87044 5.00802 5.76051 4.10942 5.76051 3.00401C5.76051 1.8986 4.87044 1 3.7773 1C2.68415 1 1.79408 1.8986 1.79408 3.00401C1.79408 4.10942 2.68415 5.00802 3.7773 5.00802ZM3.7773 1.8016C4.43334 1.8016 4.96723 2.34108 4.96723 3.00401C4.96723 3.66693 4.43334 4.20641 3.7773 4.20641C3.12125 4.20641 2.58737 3.66693 2.58737 3.00401C2.58737 2.34108 3.12125 1.8016 3.7773 1.8016ZM20 15.3591L19.8207 14.5776L12.6272 16.2625L10.1188 5.33026L9.34537 5.51222L10.333 9.81764H7.19477L5.97866 7.36072C5.50507 6.40441 4.55392 5.80962 3.49568 5.80962H2.58657C1.71158 5.80962 1 6.52866 1 7.41283V12.3515C1 12.9126 1.28241 13.4232 1.76076 13.7198L4.96643 15.6557L4.95592 20.6794L5.75 21L5.75972 15.202L2.17248 13.0353C1.93528 12.8878 1.79329 12.6321 1.79329 12.3515V7.41283C1.79329 6.97034 2.14947 6.61122 2.58657 6.61122H3.49568C3.73128 6.61122 3.96054 6.65291 4.17315 6.72986V12.6273L4.96643 13.1066V7.27014C5.08463 7.40321 5.18696 7.55391 5.26947 7.71904L6.70452 10.6192H10.5171L11.8046 16.2321C11.78 16.2313 11.7546 16.2305 11.7292 16.2305C10.6361 16.2305 9.74598 17.1291 9.74598 18.2345C9.74598 19.3399 10.6361 20.2385 11.7292 20.2385C12.8223 20.2385 13.7124 19.3399 13.7124 18.2345C13.7124 17.7423 13.5355 17.291 13.2428 16.9415L19.9984 15.3591H20ZM11.7308 19.4369C11.0747 19.4369 10.5409 18.8974 10.5409 18.2345C10.5409 17.5715 11.0747 17.0321 11.7308 17.0321C12.3868 17.0321 12.9207 17.5715 12.9207 18.2345C12.9207 18.8974 12.3868 19.4369 11.7308 19.4369ZM1.79408 15.4289L2.58737 15.9082L2.58333 19.2365L1.75673 18.5311L1.79408 15.4289ZM13.3396 12.7339C13.4467 13.194 13.7243 13.5852 14.1225 13.8337C14.4026 14.0084 14.7167 14.0974 15.0372 14.0974C15.1729 14.0974 15.3101 14.0814 15.4457 14.0485L17.9113 13.4569C18.8458 13.2333 19.428 12.281 19.2091 11.3359L18.6157 8.77715C18.5086 8.31623 18.2302 7.92585 17.8319 7.67735C17.4337 7.42806 16.9633 7.3519 16.5095 7.46172L14.0448 8.05331C13.1095 8.27695 12.5272 9.22926 12.747 10.1743L13.3404 12.7331L13.3396 12.7339ZM14.2273 8.83327L16.692 8.24168C16.7666 8.22405 16.8411 8.21523 16.9149 8.21523C17.0894 8.21523 17.2616 8.26493 17.4139 8.35952C17.6312 8.49579 17.7836 8.70902 17.8423 8.96072L18.4356 11.5194C18.5554 12.0357 18.2373 12.5551 17.7264 12.6778L15.2609 13.2693C15.011 13.3295 14.7564 13.287 14.5382 13.1523C14.3209 13.016 14.1693 12.8028 14.1106 12.5511L13.5173 9.99238C13.3975 9.47535 13.7156 8.95671 14.2265 8.83407L14.2273 8.83327Z" fill="#E41936" stroke="#E41936" stroke-width="0.4"/>
</svg>
