<svg width="14" height="16" viewBox="0 0 14 16" fill="none" xmlns="http://www.w3.org/2000/svg">
<path d="M9.00995 6.19141C8.91666 6.19141 8.82719 6.22847 8.76123 6.29443C8.69526 6.3604 8.6582 6.44987 8.6582 6.54315V13.1903C8.6582 13.2836 8.69526 13.373 8.76123 13.439C8.82719 13.505 8.91666 13.542 9.00995 13.542C9.10324 13.542 9.19271 13.505 9.25867 13.439C9.32464 13.373 9.3617 13.2836 9.3617 13.1903V6.54315C9.3617 6.44987 9.32464 6.3604 9.25867 6.29443C9.19271 6.22847 9.10324 6.19141 9.00995 6.19141Z" fill="#CC0001"/>
<path d="M4.85955 6.19141C4.76627 6.19141 4.6768 6.22847 4.61084 6.29443C4.54487 6.3604 4.50781 6.44987 4.50781 6.54315V13.1903C4.50781 13.2836 4.54487 13.373 4.61084 13.439C4.6768 13.505 4.76627 13.542 4.85955 13.542C4.95284 13.542 5.04231 13.505 5.10828 13.439C5.17424 13.373 5.2113 13.2836 5.2113 13.1903V6.54315C5.2113 6.44987 5.17424 6.3604 5.10828 6.29443C5.04231 6.22847 4.95284 6.19141 4.85955 6.19141Z" fill="#CC0001"/>
<path d="M1.83524 5.22368V13.8886C1.82967 14.3841 2.01383 14.8629 2.34999 15.227C2.51159 15.3981 2.70638 15.5346 2.92248 15.6279C3.13857 15.7213 3.37143 15.7697 3.60683 15.77H10.2617C10.4971 15.7697 10.73 15.7214 10.9461 15.628C11.1622 15.5346 11.3569 15.3982 11.5185 15.227C11.8547 14.8629 12.0388 14.3841 12.0333 13.8886V5.22368C12.3487 5.14029 12.6231 4.94493 12.8051 4.67407C12.9871 4.40321 13.0643 4.07538 13.0222 3.75177C12.9802 3.42817 12.8218 3.13093 12.5767 2.91554C12.3316 2.70016 12.0164 2.58135 11.6901 2.58131H9.88848V2.14206C9.88939 1.95922 9.854 1.77803 9.78435 1.60898C9.7147 1.43993 9.61218 1.28639 9.48273 1.15726C9.35329 1.02814 9.1995 0.925999 9.03028 0.856766C8.86105 0.787534 8.67977 0.752586 8.49694 0.753951H5.37328C5.19037 0.752472 5.009 0.787335 4.83968 0.856517C4.67036 0.925698 4.51646 1.02782 4.38693 1.15696C4.25739 1.28609 4.1548 1.43967 4.08509 1.60878C4.01539 1.77788 3.97997 1.95915 3.98088 2.14206V2.58131H2.17926C1.85294 2.58135 1.5378 2.70016 1.29266 2.91554C1.04752 3.13093 0.889155 3.42817 0.847129 3.75177C0.805103 4.07538 0.88229 4.40321 1.06428 4.67407C1.24627 4.94493 1.51976 5.14029 1.83524 5.22368ZM10.2625 15.0674H3.60769C3.45974 15.0615 3.31446 15.0262 3.1803 14.9635C3.04615 14.9009 2.92581 14.8121 2.82631 14.7025C2.72681 14.5928 2.65013 14.4645 2.60076 14.3249C2.55138 14.1853 2.5303 14.0373 2.53873 13.8895V5.25457H11.3315V13.8895C11.3399 14.0373 11.3188 14.1853 11.2695 14.3249C11.2201 14.4645 11.1434 14.5928 11.0439 14.7025C10.9444 14.8121 10.8241 14.9009 10.6899 14.9635C10.5558 15.0262 10.4105 15.0615 10.2625 15.0674ZM4.68437 2.14206C4.68322 2.05161 4.70018 1.96184 4.73427 1.87805C4.76835 1.79426 4.81886 1.71814 4.88283 1.65418C4.94679 1.59022 5.02291 1.5397 5.1067 1.50562C5.19049 1.47154 5.28025 1.45457 5.3707 1.45573H8.49351C8.58396 1.45457 8.67372 1.47154 8.75751 1.50562C8.8413 1.5397 8.91742 1.59022 8.98139 1.65418C9.04535 1.71814 9.09586 1.79426 9.12994 1.87805C9.16403 1.96184 9.18099 2.05161 9.17984 2.14206V2.58131H4.68437V2.14206ZM2.18012 3.2848H11.6901C11.858 3.2848 12.0191 3.3515 12.1378 3.47024C12.2565 3.58898 12.3232 3.75002 12.3232 3.91794C12.3232 4.08586 12.2565 4.2469 12.1378 4.36564C12.0191 4.48437 11.858 4.55108 11.6901 4.55108H2.18012C2.0122 4.55108 1.85116 4.48437 1.73242 4.36564C1.61369 4.2469 1.54698 4.08586 1.54698 3.91794C1.54698 3.75002 1.61369 3.58898 1.73242 3.47024C1.85116 3.3515 2.0122 3.2848 2.18012 3.2848Z" fill="#CC0001"/>
<path d="M6.93573 6.19141C6.84244 6.19141 6.75297 6.22847 6.68701 6.29443C6.62104 6.3604 6.58398 6.44987 6.58398 6.54315V13.1903C6.58398 13.2836 6.62104 13.373 6.68701 13.439C6.75297 13.505 6.84244 13.542 6.93573 13.542C7.02902 13.542 7.11849 13.505 7.18446 13.439C7.25042 13.373 7.28748 13.2836 7.28748 13.1903V6.54315C7.28748 6.44987 7.25042 6.3604 7.18446 6.29443C7.11849 6.22847 7.02902 6.19141 6.93573 6.19141Z" fill="#CC0001"/>
</svg>
