<svg width="22" height="22" viewBox="0 0 22 22" fill="none" xmlns="http://www.w3.org/2000/svg">
<g clip-path="url(#clip0_2851_3937)">
<path d="M4.75 3.5H5.20833C5.4 4.45 6.24167 5.16667 7.25 5.16667H9.75C10.7583 5.16667 11.6 4.45 11.7917 3.5H12.25C13.8583 3.5 15.1667 4.80833 15.1667 6.41667C15.1667 6.65 15.35 6.83333 15.5833 6.83333C15.8167 6.83333 16 6.65 16 6.41667C16 4.35 14.3167 2.66667 12.25 2.66667H11.7917C11.6 1.71667 10.7583 1 9.75 1H7.25C6.24167 1 5.4 1.71667 5.20833 2.66667H4.75C2.68333 2.66667 1 4.35 1 6.41667V17.25C1 19.3167 2.68333 21 4.75 21H8.91667C9.15 21 9.33333 20.8167 9.33333 20.5833C9.33333 20.35 9.15 20.1667 8.91667 20.1667H4.75C3.14167 20.1667 1.83333 18.8583 1.83333 17.25V6.41667C1.83333 4.80833 3.14167 3.5 4.75 3.5ZM7.25 1.83333H9.75C10.4417 1.83333 11 2.39167 11 3.08333C11 3.775 10.4417 4.33333 9.75 4.33333H7.25C6.55833 4.33333 6 3.775 6 3.08333C6 2.39167 6.55833 1.83333 7.25 1.83333ZM18.0833 8.5H13.9167C12.3083 8.5 11 9.80833 11 11.4167V18.0833C11 19.6917 12.3083 21 13.9167 21H18.0833C19.6917 21 21 19.6917 21 18.0833V11.4167C21 9.80833 19.6917 8.5 18.0833 8.5ZM20.1667 18.0833C20.1667 19.2333 19.2333 20.1667 18.0833 20.1667H13.9167C12.7667 20.1667 11.8333 19.2333 11.8333 18.0833V11.4167C11.8333 10.2667 12.7667 9.33333 13.9167 9.33333H18.0833C19.2333 9.33333 20.1667 10.2667 20.1667 11.4167V18.0833ZM18.5 12.25C18.5 12.4833 18.3167 12.6667 18.0833 12.6667H13.9167C13.6833 12.6667 13.5 12.4833 13.5 12.25C13.5 12.0167 13.6833 11.8333 13.9167 11.8333H18.0833C18.3167 11.8333 18.5 12.0167 18.5 12.25ZM18.5 15.5833C18.5 15.8167 18.3167 16 18.0833 16H13.9167C13.6833 16 13.5 15.8167 13.5 15.5833C13.5 15.35 13.6833 15.1667 13.9167 15.1667H18.0833C18.3167 15.1667 18.5 15.35 18.5 15.5833Z" fill="#E41936" stroke="#E41936" stroke-width="0.4"/>
</g>
<defs>
<clipPath id="clip0_2851_3937">
<rect width="22" height="22" fill="white"/>
</clipPath>
</defs>
</svg>
