<svg width="21" height="14" viewBox="0 0 21 14" fill="none" xmlns="http://www.w3.org/2000/svg">
<path d="M3.64645 13.3536C3.84171 13.5488 4.15829 13.5488 4.35355 13.3536L7.53553 10.1716C7.7308 9.97631 7.7308 9.65973 7.53553 9.46447C7.34027 9.2692 7.02369 9.2692 6.82843 9.46447L4 12.2929L1.17157 9.46447C0.976311 9.2692 0.659729 9.2692 0.464467 9.46447C0.269204 9.65973 0.269204 9.97631 0.464467 10.1716L3.64645 13.3536ZM3.5 2.18557e-08L3.5 13L4.5 13L4.5 -2.18557e-08L3.5 2.18557e-08Z" fill="black"/>
<path fill-rule="evenodd" clip-rule="evenodd" d="M11.6583 3.75H17.5417C18.0704 3.74999 18.5024 3.74998 18.8435 3.79584C19.2 3.84377 19.5091 3.9475 19.7558 4.19422C20.0025 4.44095 20.1062 4.75004 20.1542 5.10655C20.2 5.44762 20.2 5.87962 20.2 6.40828V7.36667H9L9 6.40828C8.99999 5.87962 8.99998 5.44762 9.04584 5.10655C9.09377 4.75004 9.1975 4.44095 9.44422 4.19422C9.69095 3.9475 10 3.84377 10.3565 3.79584C10.6976 3.74998 11.1296 3.74999 11.6583 3.75ZM10.4498 4.48959C10.1709 4.52709 10.0342 4.59421 9.9392 4.6892C9.84421 4.78418 9.77709 4.92093 9.73959 5.19982C9.70074 5.48878 9.7 5.87347 9.7 6.43333V6.66667H19.5V6.43333C19.5 5.87347 19.4993 5.48878 19.4604 5.19982C19.4229 4.92093 19.3558 4.78418 19.2608 4.6892C19.1658 4.59421 19.0291 4.52709 18.7502 4.48959C18.4612 4.45074 18.0765 4.45 17.5167 4.45H11.6833C11.1235 4.45 10.7388 4.45074 10.4498 4.48959Z" fill="#7E869E" fill-opacity="0.25"/>
<path fill-rule="evenodd" clip-rule="evenodd" d="M11.6583 3.75H17.5417C18.0704 3.74999 18.5024 3.74998 18.8435 3.79584C19.2 3.84377 19.5091 3.9475 19.7558 4.19422C20.0025 4.44095 20.1062 4.75004 20.1542 5.10655C20.2 5.44762 20.2 5.87962 20.2 6.40828V10.5417C20.2 11.0704 20.2 11.5024 20.1542 11.8435C20.1062 12.2 20.0025 12.5091 19.7558 12.7558C19.5091 13.0025 19.2 13.1062 18.8435 13.1542C18.5024 13.2 18.0704 13.2 17.5417 13.2H11.6583C11.1296 13.2 10.6976 13.2 10.3565 13.1542C10 13.1062 9.69095 13.0025 9.44422 12.7558C9.1975 12.5091 9.09377 12.2 9.04584 11.8435C8.99998 11.5024 8.99999 11.0704 9 10.5417V6.40828C8.99999 5.87962 8.99998 5.44762 9.04584 5.10655C9.09377 4.75004 9.1975 4.44095 9.44422 4.19422C9.69095 3.9475 10 3.84377 10.3565 3.79584C10.6976 3.74998 11.1296 3.74999 11.6583 3.75ZM10.4498 4.48959C10.1709 4.52709 10.0342 4.59421 9.9392 4.6892C9.84421 4.78418 9.77709 4.92093 9.73959 5.19982C9.70074 5.48878 9.7 5.87347 9.7 6.43333V10.5167C9.7 11.0765 9.70074 11.4612 9.73959 11.7502C9.77709 12.0291 9.84421 12.1658 9.9392 12.2608C10.0342 12.3558 10.1709 12.4229 10.4498 12.4604C10.7388 12.4993 11.1235 12.5 11.6833 12.5H17.5167C18.0765 12.5 18.4612 12.4993 18.7502 12.4604C19.0291 12.4229 19.1658 12.3558 19.2608 12.2608C19.3558 12.1658 19.4229 12.0291 19.4604 11.7502C19.4993 11.4612 19.5 11.0765 19.5 10.5167V6.43333C19.5 5.87347 19.4993 5.48878 19.4604 5.19982C19.4229 4.92093 19.3558 4.78418 19.2608 4.6892C19.1658 4.59421 19.0291 4.52709 18.7502 4.48959C18.4612 4.45074 18.0765 4.45 17.5167 4.45H11.6833C11.1235 4.45 10.7388 4.45074 10.4498 4.48959Z" fill="#222222"/>
<path fill-rule="evenodd" clip-rule="evenodd" d="M11.6834 2C11.8767 2 12.0334 2.1567 12.0334 2.35L12.0334 5.26667C12.0334 5.45997 11.8767 5.61667 11.6834 5.61667C11.4901 5.61667 11.3334 5.45997 11.3334 5.26667L11.3334 2.35C11.3334 2.1567 11.4901 2 11.6834 2Z" fill="#222222"/>
<path fill-rule="evenodd" clip-rule="evenodd" d="M17.5167 2C17.71 2 17.8667 2.1567 17.8667 2.35L17.8667 5.26667C17.8667 5.45997 17.71 5.61667 17.5167 5.61667C17.3234 5.61667 17.1667 5.45997 17.1667 5.26667L17.1667 2.35C17.1667 2.1567 17.3234 2 17.5167 2Z" fill="#222222"/>
</svg>
