<svg width="21" height="15" viewBox="0 0 21 15" fill="none" xmlns="http://www.w3.org/2000/svg">
<path d="M4.35355 0.646446C4.15829 0.451184 3.84171 0.451184 3.64645 0.646446L0.464466 3.82843C0.269204 4.02369 0.269204 4.34027 0.464466 4.53553C0.659728 4.7308 0.976311 4.7308 1.17157 4.53553L4 1.70711L6.82843 4.53553C7.02369 4.7308 7.34027 4.7308 7.53553 4.53553C7.7308 4.34027 7.7308 4.02369 7.53553 3.82843L4.35355 0.646446ZM4.5 14L4.5 1L3.5 1L3.5 14L4.5 14Z" fill="black"/>
<path fill-rule="evenodd" clip-rule="evenodd" d="M11.6583 4.75H17.5417C18.0704 4.74999 18.5024 4.74998 18.8435 4.79584C19.2 4.84377 19.5091 4.9475 19.7558 5.19422C20.0025 5.44095 20.1062 5.75004 20.1542 6.10655C20.2 6.44762 20.2 6.87962 20.2 7.40828V8.36667H9L9 7.40828C8.99999 6.87962 8.99998 6.44762 9.04584 6.10655C9.09377 5.75004 9.1975 5.44095 9.44422 5.19422C9.69095 4.9475 10 4.84377 10.3565 4.79584C10.6976 4.74998 11.1296 4.74999 11.6583 4.75ZM10.4498 5.48959C10.1709 5.52709 10.0342 5.59421 9.9392 5.6892C9.84421 5.78418 9.77709 5.92093 9.73959 6.19982C9.70074 6.48878 9.7 6.87347 9.7 7.43333V7.66667H19.5V7.43333C19.5 6.87347 19.4993 6.48878 19.4604 6.19982C19.4229 5.92093 19.3558 5.78418 19.2608 5.6892C19.1658 5.59421 19.0291 5.52709 18.7502 5.48959C18.4612 5.45074 18.0765 5.45 17.5167 5.45H11.6833C11.1235 5.45 10.7388 5.45074 10.4498 5.48959Z" fill="#7E869E" fill-opacity="0.25"/>
<path fill-rule="evenodd" clip-rule="evenodd" d="M11.6583 4.75H17.5417C18.0704 4.74999 18.5024 4.74998 18.8435 4.79584C19.2 4.84377 19.5091 4.9475 19.7558 5.19422C20.0025 5.44095 20.1062 5.75004 20.1542 6.10655C20.2 6.44762 20.2 6.87962 20.2 7.40828V11.5417C20.2 12.0704 20.2 12.5024 20.1542 12.8435C20.1062 13.2 20.0025 13.5091 19.7558 13.7558C19.5091 14.0025 19.2 14.1062 18.8435 14.1542C18.5024 14.2 18.0704 14.2 17.5417 14.2H11.6583C11.1296 14.2 10.6976 14.2 10.3565 14.1542C10 14.1062 9.69095 14.0025 9.44422 13.7558C9.1975 13.5091 9.09377 13.2 9.04584 12.8435C8.99998 12.5024 8.99999 12.0704 9 11.5417V7.40828C8.99999 6.87962 8.99998 6.44762 9.04584 6.10655C9.09377 5.75004 9.1975 5.44095 9.44422 5.19422C9.69095 4.9475 10 4.84377 10.3565 4.79584C10.6976 4.74998 11.1296 4.74999 11.6583 4.75ZM10.4498 5.48959C10.1709 5.52709 10.0342 5.59421 9.9392 5.6892C9.84421 5.78418 9.77709 5.92093 9.73959 6.19982C9.70074 6.48878 9.7 6.87347 9.7 7.43333V11.5167C9.7 12.0765 9.70074 12.4612 9.73959 12.7502C9.77709 13.0291 9.84421 13.1658 9.9392 13.2608C10.0342 13.3558 10.1709 13.4229 10.4498 13.4604C10.7388 13.4993 11.1235 13.5 11.6833 13.5H17.5167C18.0765 13.5 18.4612 13.4993 18.7502 13.4604C19.0291 13.4229 19.1658 13.3558 19.2608 13.2608C19.3558 13.1658 19.4229 13.0291 19.4604 12.7502C19.4993 12.4612 19.5 12.0765 19.5 11.5167V7.43333C19.5 6.87347 19.4993 6.48878 19.4604 6.19982C19.4229 5.92093 19.3558 5.78418 19.2608 5.6892C19.1658 5.59421 19.0291 5.52709 18.7502 5.48959C18.4612 5.45074 18.0765 5.45 17.5167 5.45H11.6833C11.1235 5.45 10.7388 5.45074 10.4498 5.48959Z" fill="#222222"/>
<path fill-rule="evenodd" clip-rule="evenodd" d="M11.6834 3C11.8767 3 12.0334 3.1567 12.0334 3.35L12.0334 6.26667C12.0334 6.45997 11.8767 6.61667 11.6834 6.61667C11.4901 6.61667 11.3334 6.45997 11.3334 6.26667L11.3334 3.35C11.3334 3.1567 11.4901 3 11.6834 3Z" fill="#222222"/>
<path fill-rule="evenodd" clip-rule="evenodd" d="M17.5167 3C17.71 3 17.8667 3.1567 17.8667 3.35L17.8667 6.26667C17.8667 6.45997 17.71 6.61667 17.5167 6.61667C17.3234 6.61667 17.1667 6.45997 17.1667 6.26667L17.1667 3.35C17.1667 3.1567 17.3234 3 17.5167 3Z" fill="#222222"/>
</svg>
