<svg width="18" height="18" viewBox="0 0 18 18" fill="none" xmlns="http://www.w3.org/2000/svg">
<path d="M6.75 9C9.23175 9 11.25 6.98175 11.25 4.5C11.25 2.01825 9.23175 0 6.75 0C4.26825 0 2.25 2.01825 2.25 4.5C2.25 6.98175 4.26825 9 6.75 9ZM6.75 1.5C8.4045 1.5 9.75 2.8455 9.75 4.5C9.75 6.1545 8.4045 7.5 6.75 7.5C5.0955 7.5 3.75 6.1545 3.75 4.5C3.75 2.8455 5.0955 1.5 6.75 1.5ZM15.75 14.25H17.25V18H9V14.25H10.5V16.5H15.75V14.25ZM3.75 10.5H7.269L6.57675 12H3.75C2.5095 12 1.5 13.0095 1.5 14.25V18H0V14.25C0 12.1823 1.68225 10.5 3.75 10.5ZM18 12C18 12.8287 17.3767 13.5 16.6073 13.5H16.143C15.3735 13.5 14.7502 12.8287 14.7502 12C14.7502 12.8287 14.127 13.5 13.3575 13.5H12.8932C12.1237 13.5 11.5005 12.8287 11.5005 12C11.5005 12.8287 10.8773 13.5 10.1077 13.5H9.6435C8.874 13.5 8.25075 12.8287 8.25075 12L9.17925 9.75H17.0723L18 12Z" fill="#CC0001"/>
</svg>
