<svg width="25" height="25" viewBox="0 0 25 25" fill="none" xmlns="http://www.w3.org/2000/svg">
<g clip-path="url(#clip0_286_44455)">
<path d="M12.5 25.0014C13.3288 25.0014 14.1237 24.6721 14.7097 24.0861C15.2958 23.5 15.625 22.7052 15.625 21.8764H9.375C9.375 22.7052 9.70424 23.5 10.2903 24.0861C10.8763 24.6721 11.6712 25.0014 12.5 25.0014ZM12.5 2.99824L11.2547 3.2498C9.84212 3.53762 8.57239 4.30465 7.66039 5.42109C6.7484 6.53752 6.25015 7.93478 6.25 9.37637C6.25 10.3576 6.04062 12.8092 5.53281 15.2232C5.28281 16.4217 4.94531 17.6701 4.49688 18.7514H20.5031C20.0547 17.6701 19.7188 16.4232 19.4672 15.2232C18.9594 12.8092 18.75 10.3576 18.75 9.37637C18.7495 7.93505 18.2511 6.53816 17.3391 5.42205C16.4271 4.30593 15.1576 3.53913 13.7453 3.25137L12.5 2.99668V2.99824ZM22.2188 18.7514C22.5672 19.4498 22.9703 20.0029 23.4375 20.3139H1.5625C2.02969 20.0029 2.43281 19.4498 2.78125 18.7514C4.1875 15.9389 4.6875 10.7514 4.6875 9.37637C4.6875 5.59512 7.375 2.43887 10.9453 1.71855C10.9235 1.50129 10.9475 1.28188 11.0157 1.07445C11.0839 0.867024 11.1948 0.676195 11.3413 0.51427C11.4878 0.352346 11.6666 0.222921 11.8661 0.134343C12.0657 0.0457648 12.2816 0 12.5 0C12.7184 0 12.9343 0.0457648 13.1339 0.134343C13.3334 0.222921 13.5122 0.352346 13.6587 0.51427C13.8052 0.676195 13.9161 0.867024 13.9843 1.07445C14.0525 1.28188 14.0765 1.50129 14.0547 1.71855C15.8208 2.07777 17.4084 3.0363 18.5488 4.43184C19.6892 5.82737 20.3123 7.57414 20.3125 9.37637C20.3125 10.7514 20.8125 15.9389 22.2188 18.7514Z" fill="#828282"/>
<circle cx="19.5" cy="6.5" r="3.5" fill="#EB5757"/>
</g>
<defs>
<clipPath id="clip0_286_44455">
<rect width="25" height="25" fill="white"/>
</clipPath>
</defs>
</svg>
