<svg width="20" height="20" viewBox="0 0 22 22" fill="none" xmlns="http://www.w3.org/2000/svg">
<path d="M20.3046 13.7381C20.1593 13.7381 20.02 13.7958 19.9173 13.8985C19.8146 14.0012 19.7569 14.1406 19.7569 14.2858V19.1513C19.7572 19.3674 19.715 19.5814 19.6326 19.7812C19.5502 19.981 19.4293 20.1626 19.2767 20.3156C19.1241 20.4686 18.9429 20.5901 18.7434 20.6731C18.5439 20.7561 18.3299 20.799 18.1138 20.7993H2.73971C2.5234 20.7992 2.30924 20.7564 2.10949 20.6734C1.90974 20.5904 1.72831 20.4688 1.57559 20.3156C1.42287 20.1624 1.30185 19.9806 1.21945 19.7806C1.13705 19.5806 1.09489 19.3663 1.09538 19.15V4.87252C1.09571 4.43652 1.26906 4.01847 1.57736 3.71017C1.88566 3.40188 2.30371 3.22853 2.73971 3.22819H7.60391C7.74917 3.22819 7.88847 3.17049 7.99119 3.06778C8.0939 2.96507 8.1516 2.82576 8.1516 2.6805C8.1516 2.53525 8.0939 2.39594 7.99119 2.29322C7.88847 2.19051 7.74917 2.13281 7.60391 2.13281H2.73971C2.0133 2.13347 1.31682 2.42234 0.803173 2.93599C0.289522 3.44964 0.000662181 4.14611 0 4.87252L0 19.1513C0.000662181 19.8777 0.289522 20.5741 0.803173 21.0878C1.31682 21.6014 2.0133 21.8903 2.73971 21.891H18.1138C18.8402 21.8903 19.5367 21.6014 20.0504 21.0878C20.564 20.5741 20.8529 19.8777 20.8535 19.1513V14.2858C20.8535 14.1406 20.7958 14.0012 20.6931 13.8985C20.5904 13.7958 20.4499 13.7381 20.3046 13.7381Z" fill="#CC0001"/>
<path d="M20.6362 0.722341C20.4072 0.493333 20.1354 0.311672 19.8362 0.187732C19.537 0.0637914 19.2163 0 18.8925 0C18.5686 0 18.248 0.0637914 17.9488 0.187732C17.6496 0.311672 17.3777 0.493333 17.1487 0.722341L7.37407 10.497C7.30733 10.564 7.25909 10.6472 7.23402 10.7383L5.94857 15.3787C5.92271 15.4721 5.92209 15.5707 5.94679 15.6644C5.97148 15.7581 6.0206 15.8436 6.08913 15.9121C6.15765 15.9807 6.24314 16.0298 6.33685 16.0545C6.43057 16.0792 6.52916 16.0786 6.62256 16.0527L11.2629 14.7673C11.3541 14.7422 11.4373 14.6939 11.5043 14.6272L21.2789 4.85128C21.7408 4.38851 22.0002 3.76139 22.0002 3.10755C22.0002 2.45371 21.7408 1.82659 21.2789 1.36382L20.6362 0.722341ZM8.56574 10.8534L16.5685 2.85059L19.1482 5.43024L11.1454 13.433L8.56574 10.8534ZM8.05056 11.8875L10.1113 13.9495L7.26028 14.7397L8.05056 11.8875ZM20.5024 4.07726L19.921 4.65872L17.3401 2.07782L17.9215 1.49636C18.1791 1.24094 18.5272 1.09762 18.89 1.09762C19.2527 1.09762 19.6008 1.24094 19.8584 1.49636L20.5012 2.13909C20.7573 2.39642 20.9013 2.74458 20.9018 3.10766C20.9022 3.47074 20.7579 3.81927 20.5024 4.07726Z" fill="#CC0001"/>
</svg>
