<svg width="24" height="24" viewBox="0 0 24 24" fill="none" xmlns="http://www.w3.org/2000/svg">
<path d="M15.2083 6.5H15.2056L8.78892 6.50458C7.02067 6.50458 5.58333 7.94467 5.58333 9.71292V13.3778C5.58333 14.2348 5.917 15.0406 6.52292 15.6456C7.12792 16.2497 7.93275 16.5824 8.78983 16.5824H15.2102C16.9784 16.5824 18.4167 15.1423 18.4167 13.3741V9.70742C18.4167 8.84942 18.083 8.04367 17.4762 7.43775C16.8703 6.83275 16.0654 6.5 15.2083 6.5ZM15.2056 7.41667H15.2083C15.7767 7.41667 16.3138 7.62292 16.7337 7.99875L13.2375 11.4958C12.5803 12.1531 11.4353 12.1531 10.7781 11.4958L7.27733 7.99508C7.68067 7.63942 8.20958 7.42217 8.78892 7.42217L15.2056 7.41667ZM17.5 13.375C17.5 14.6382 16.4724 15.6658 15.2102 15.6667H8.78983C8.17842 15.6667 7.60275 15.4293 7.17008 14.9975C6.73742 14.5658 6.5 13.9901 6.5 13.3778V9.71292C6.5 9.36275 6.57883 9.03092 6.72 8.73392L10.13 12.1439C10.6323 12.6453 11.2987 12.9222 12.0083 12.9222C12.7178 12.9222 13.3842 12.6462 13.8856 12.1439L17.2873 8.74217C17.4267 9.041 17.5 9.36917 17.5 9.70925V13.3759V13.375ZM12 1C5.93442 1 1 5.93442 1 12C1 18.0656 5.93442 23 12 23C18.0656 23 23 18.0656 23 12C23 5.93442 18.0656 1 12 1ZM12 22.0833C6.44042 22.0833 1.91667 17.5596 1.91667 12C1.91667 6.44042 6.44042 1.91667 12 1.91667C17.5596 1.91667 22.0833 6.44042 22.0833 12C22.0833 17.5596 17.5596 22.0833 12 22.0833Z" fill="#CC0001" stroke="#CC0001" stroke-width="0.3"/>
</svg>
