<svg width="23" height="21" viewBox="0 0 23 21" fill="none" xmlns="http://www.w3.org/2000/svg">
<path d="M19.8125 4.16627H16.75V2.97892C16.75 1.88735 15.7691 1 14.5625 1H3.1875C1.98175 1 1 1.88735 1 2.97892V15.5284C1 16.0097 1.29137 16.4514 1.76125 16.6786C1.97562 16.7823 2.20925 16.8329 2.44288 16.8329C2.722 16.8329 3.00025 16.7593 3.24175 16.6145L6.25 14.8002V17.6229H16.1804L19.7591 19.7815C19.9997 19.9272 20.2789 20 20.558 20C20.7916 20 21.0252 19.9493 21.2387 19.8456C21.7086 19.6177 22 19.1768 22 18.6955V6.14519C22 5.05362 21.0191 4.16627 19.8125 4.16627ZM2.75612 15.9567C2.57937 16.0643 2.3615 16.073 2.17425 15.9812C1.987 15.891 1.875 15.7216 1.875 15.5292V2.97892C1.875 2.32429 2.46387 1.79157 3.1875 1.79157H14.5625C15.2861 1.79157 15.875 2.32429 15.875 2.97892V13.6651H6.55537L2.75612 15.9567ZM21.125 18.6955C21.125 18.8878 21.013 19.0572 20.8258 19.1475C20.6359 19.2393 20.4215 19.229 20.243 19.1229L16.4446 16.8314H7.125V14.4567H16.75V4.95784H19.8125C20.5361 4.95784 21.125 5.49056 21.125 6.14519V18.6955ZM9.75 11.2912C9.75 11.7281 9.358 12.0827 8.875 12.0827C8.392 12.0827 8 11.7281 8 11.2912C8 10.8542 8.392 10.4996 8.875 10.4996C9.358 10.4996 9.75 10.8542 9.75 11.2912ZM7.125 5.7502H6.25C6.25 5.04649 6.59212 4.38316 7.18712 3.93118C7.783 3.4784 8.56962 3.28921 9.34662 3.41349C10.4045 3.5813 11.2725 4.36654 11.458 5.32354C11.654 6.33121 11.1246 7.33967 10.1403 7.83123C9.70975 8.04574 9.31162 8.37345 9.31162 9.31225V9.70804H8.43662V9.31225C8.43662 8.26422 8.8435 7.57318 9.71762 7.13782C10.3844 6.80536 10.7291 6.14677 10.5952 5.46048C10.4727 4.82565 9.897 4.3048 9.19437 4.19239C8.66675 4.11007 8.15225 4.23118 7.74887 4.53752C7.35162 4.8391 7.125 5.2808 7.125 5.7502Z" fill="#CC0001" stroke="#CC0001" stroke-width="0.4"/>
</svg>
