<svg width="25" height="26" viewBox="0 0 25 26" fill="none" xmlns="http://www.w3.org/2000/svg">
<path d="M0 6.58787V22.9538L12.0394 25.0927V4.44897L0 6.58787ZM6.91876 18.2166L5.90795 15.5648L4.91666 18.0775H3.53655L5.1499 14.5715L3.65319 11.1352H5.0722L5.98579 13.5089L7.07429 10.9365L8.43498 10.867L6.73417 14.5418L8.50306 18.3357L6.91876 18.2166Z" fill="#4A4A4A"/>
<path d="M20.5816 6.5686H12.4473V7.76387H15.5094V9.91923H12.4473V10.5674H15.5094V12.7227H12.4473V13.3709H15.5094V15.5263H12.4473V16.1744H15.5094V18.3298H12.4473V18.9914H15.5094V21.1468H12.4473V22.5299H20.5816C20.8119 22.5299 21.0002 22.3359 21.0002 22.0986V6.99989C21.0002 6.76265 20.8119 6.5686 20.5816 6.5686ZM19.5902 21.1468H16.1403V18.9914H19.5902V21.1468ZM19.5902 18.3298H16.1403V16.1744H19.5902V18.3298ZM19.5902 15.5263H16.1403V13.3709H19.5902V15.5263ZM19.5902 12.7227H16.1403V10.5674H19.5902V12.7227ZM19.5902 9.91923H16.1403V7.76387H19.5902V9.91923Z" fill="#4A4A4A"/>
<mask id="path-3-outside-1_2097_71956" maskUnits="userSpaceOnUse" x="13" y="-0.25" width="12" height="14" fill="#fff">
<rect fill="white" x="13" y="-0.25" width="12" height="14"/>
<path fill-rule="evenodd" clip-rule="evenodd" d="M19.0105 11.75C18.4724 11.7507 17.934 11.5455 17.5237 11.1346L15.2139 8.77331C14.9242 8.47721 14.9294 8.00236 15.2255 7.71272C15.5216 7.42307 15.9965 7.4283 16.2861 7.7244L18.2581 9.74029L18.2581 2.75C18.2581 2.33579 18.5939 2 19.0081 2C19.4223 2 19.7581 2.33579 19.7581 2.75L19.7581 9.73986L21.7305 7.72429C22.0203 7.42825 22.4951 7.42311 22.7911 7.71282C23.0872 8.00253 23.0923 8.47738 22.8026 8.77342L20.4972 11.1293L20.492 11.1346C20.0831 11.5442 19.5469 11.7493 19.0105 11.75Z"/>
</mask>
<path fill-rule="evenodd" clip-rule="evenodd" d="M19.0105 11.75C18.4724 11.7507 17.934 11.5455 17.5237 11.1346L15.2139 8.77331C14.9242 8.47721 14.9294 8.00236 15.2255 7.71272C15.5216 7.42307 15.9965 7.4283 16.2861 7.7244L18.2581 9.74029L18.2581 2.75C18.2581 2.33579 18.5939 2 19.0081 2C19.4223 2 19.7581 2.33579 19.7581 2.75L19.7581 9.73986L21.7305 7.72429C22.0203 7.42825 22.4951 7.42311 22.7911 7.71282C23.0872 8.00253 23.0923 8.47738 22.8026 8.77342L20.4972 11.1293L20.492 11.1346C20.0831 11.5442 19.5469 11.7493 19.0105 11.75Z" fill="#4A4A4A"/>
<path d="M17.5237 11.1346L16.4621 12.1943C16.4585 12.1907 16.455 12.1871 16.4514 12.1835L17.5237 11.1346ZM19.0105 11.75L19.0086 10.25L19.0105 11.75ZM15.2139 8.77331L14.1416 9.82224L14.1416 9.82222L15.2139 8.77331ZM15.2255 7.71272L16.2745 8.78499L16.2745 8.78499L15.2255 7.71272ZM16.2861 7.7244L15.2139 8.77331L15.2139 8.77331L16.2861 7.7244ZM18.2581 9.74029L19.7581 9.7403C19.7581 10.35 19.3891 10.899 18.8245 11.1293C18.2599 11.3595 17.6122 11.2251 17.1858 10.7892L18.2581 9.74029ZM18.2581 2.75L16.7581 2.75L18.2581 2.75ZM19.7581 2.75L18.2581 2.75L19.7581 2.75ZM19.7581 9.73986L20.8302 10.789C20.4038 11.2247 19.7561 11.359 19.1916 11.1288C18.6271 10.8985 18.2581 10.3495 18.2581 9.73986L19.7581 9.73986ZM21.7305 7.72429L20.6585 6.67517L20.6585 6.67516L21.7305 7.72429ZM22.7911 7.71282L21.742 8.78489L21.742 8.78489L22.7911 7.71282ZM22.8026 8.77342L21.7305 7.7243L21.7306 7.72429L22.8026 8.77342ZM20.4972 11.1293L21.5693 12.1784C21.5658 12.1819 21.5624 12.1855 21.5588 12.189L20.4972 11.1293ZM20.492 11.1346L21.5536 12.1943L21.5535 12.1943L20.492 11.1346ZM18.5853 10.0748C18.7023 10.192 18.8529 10.2502 19.0086 10.25L19.0125 13.25C18.0918 13.2512 17.1657 12.899 16.4621 12.1943L18.5853 10.0748ZM16.2861 7.72439L18.596 10.0856L16.4514 12.1835L14.1416 9.82224L16.2861 7.72439ZM16.2745 8.78499C16.5706 8.49534 16.5758 8.0205 16.2861 7.7244L14.1416 9.82222C13.2726 8.93392 13.2883 7.50938 14.1766 6.64044L16.2745 8.78499ZM15.2139 8.77331C15.5035 9.06941 15.9784 9.07464 16.2745 8.78499L14.1766 6.64044C15.0649 5.77149 16.4895 5.78718 17.3584 6.67548L15.2139 8.77331ZM17.1858 10.7892L15.2139 8.77331L17.3584 6.67548L19.3304 8.69138L17.1858 10.7892ZM19.7581 2.75L19.7581 9.7403L16.7581 9.74029L16.7581 2.75L19.7581 2.75ZM19.0081 3.5C19.4223 3.5 19.7581 3.16421 19.7581 2.75L16.7581 2.75C16.7581 1.50736 17.7655 0.5 19.0081 0.500001L19.0081 3.5ZM18.2581 2.75C18.2581 3.16421 18.5939 3.5 19.0081 3.5L19.0081 0.500001C20.2508 0.500001 21.2581 1.50736 21.2581 2.75L18.2581 2.75ZM18.2581 9.73986L18.2581 2.75L21.2581 2.75L21.2581 9.73986L18.2581 9.73986ZM22.8026 8.77342L20.8302 10.789L18.686 8.69074L20.6585 6.67517L22.8026 8.77342ZM21.742 8.78489C22.0381 9.0746 22.5129 9.06946 22.8026 8.77342L20.6585 6.67516C21.5276 5.78703 22.9521 5.77163 23.8403 6.64075L21.742 8.78489ZM21.7306 7.72429C21.4408 8.02034 21.446 8.49518 21.742 8.78489L23.8403 6.64075C24.7284 7.50988 24.7438 8.93441 23.8747 9.82255L21.7306 7.72429ZM19.4251 10.0802L21.7305 7.7243L23.8747 9.82253L21.5693 12.1784L19.4251 10.0802ZM19.4303 10.0749L19.4356 10.0696L21.5588 12.189L21.5536 12.1943L19.4303 10.0749ZM19.0086 10.25C19.1637 10.2498 19.3137 10.1917 19.4304 10.0748L21.5535 12.1943C20.8524 12.8967 19.9301 13.2488 19.0125 13.25L19.0086 10.25Z" fill="#FFECEF" mask="url(#path-3-outside-1_2097_71956)"/>
</svg>
