<svg width="41" height="42" viewBox="0 0 41 42" fill="none" xmlns="http://www.w3.org/2000/svg">
<path d="M0 11.5C0 5.42487 4.92487 0.5 11 0.5H30C36.0751 0.5 41 5.42487 41 11.5V30.5C41 36.5751 36.0751 41.5 30 41.5H11C4.92487 41.5 0 36.5751 0 30.5V11.5Z" fill="#49454F" fill-opacity="0.12"/>
<path d="M21.7071 10.2929C21.3166 9.90237 20.6834 9.90237 20.2929 10.2929L13.9289 16.6569C13.5384 17.0474 13.5384 17.6805 13.9289 18.0711C14.3195 18.4616 14.9526 18.4616 15.3431 18.0711L21 12.4142L26.6569 18.0711C27.0474 18.4616 27.6805 18.4616 28.0711 18.0711C28.4616 17.6805 28.4616 17.0474 28.0711 16.6569L21.7071 10.2929ZM22 24.5L22 11L20 11L20 24.5L22 24.5Z" fill="#49454F"/>
<path d="M11 24V30H31V24" stroke="#49454F" stroke-width="2"/>
</svg>
