<svg width="25" height="26" viewBox="0 0 25 26" fill="none" xmlns="http://www.w3.org/2000/svg">
<path d="M0 6.58811V22.9541L12.0394 25.093V4.44922L0 6.58811ZM6.91876 18.2169L5.90795 15.565L4.91666 18.0778H3.53655L5.1499 14.5718L3.65319 11.1354H5.0722L5.98579 13.5091L7.07429 10.9368L8.43498 10.8672L6.73417 14.5421L8.50306 18.3359L6.91876 18.2169Z" fill="#4A4A4A"/>
<path d="M20.5816 6.56885H12.4473V7.76411H15.5094V9.91947H12.4473V10.5676H15.5094V12.723H12.4473V13.3712H15.5094V15.5265H12.4473V16.1746H15.5094V18.33H12.4473V18.9917H15.5094V21.147H12.4473V22.5301H20.5816C20.8119 22.5301 21.0002 22.3361 21.0002 22.0989V7.00013C21.0002 6.76289 20.8119 6.56885 20.5816 6.56885ZM19.5902 21.147H16.1403V18.9917H19.5902V21.147ZM19.5902 18.33H16.1403V16.1746H19.5902V18.33ZM19.5902 15.5265H16.1403V13.3712H19.5902V15.5265ZM19.5902 12.723H16.1403V10.5676H19.5902V12.723ZM19.5902 9.91947H16.1403V7.76411H19.5902V9.91947Z" fill="#4A4A4A"/>
<mask id="path-3-outside-1_2097_71947" maskUnits="userSpaceOnUse" x="13.0166" y="-8.74228e-07" width="12" height="14" fill="black">
<rect fill="white" x="13.0166" y="-8.74228e-07" width="12" height="14"/>
<path fill-rule="evenodd" clip-rule="evenodd" d="M19.0061 2C19.5442 1.99931 20.0826 2.20446 20.4929 2.61544L22.8027 4.97669C23.0924 5.27279 23.0872 5.74764 22.7911 6.03728C22.495 6.32693 22.0201 6.3217 21.7305 6.0256L19.7585 4.00971L19.7585 11C19.7585 11.4142 19.4227 11.75 19.0085 11.75C18.5943 11.75 18.2585 11.4142 18.2585 11L18.2585 4.01014L16.2861 6.02571C15.9963 6.32175 15.5215 6.32689 15.2255 6.03718C14.9294 5.74747 14.9243 5.27263 15.214 4.97658L17.5194 2.62072L17.5246 2.61544C17.9335 2.20584 18.4697 2.00069 19.0061 2Z"/>
</mask>
<path fill-rule="evenodd" clip-rule="evenodd" d="M19.0061 2C19.5442 1.99931 20.0826 2.20446 20.4929 2.61544L22.8027 4.97669C23.0924 5.27279 23.0872 5.74764 22.7911 6.03728C22.495 6.32693 22.0201 6.3217 21.7305 6.0256L19.7585 4.00971L19.7585 11C19.7585 11.4142 19.4227 11.75 19.0085 11.75C18.5943 11.75 18.2585 11.4142 18.2585 11L18.2585 4.01014L16.2861 6.02571C15.9963 6.32175 15.5215 6.32689 15.2255 6.03718C14.9294 5.74747 14.9243 5.27263 15.214 4.97658L17.5194 2.62072L17.5246 2.61544C17.9335 2.20584 18.4697 2.00069 19.0061 2Z" fill="#4A4A4A"/>
<path d="M20.4929 2.61544L21.5545 1.55571C21.5581 1.55929 21.5616 1.5629 21.5652 1.56652L20.4929 2.61544ZM19.0061 2L19.008 3.5L19.0061 2ZM22.8027 4.97669L23.875 3.92776L23.875 3.92778L22.8027 4.97669ZM22.7911 6.03728L21.7421 4.96501L21.7421 4.96501L22.7911 6.03728ZM21.7305 6.0256L22.8027 4.97669L22.8027 4.97669L21.7305 6.0256ZM19.7585 4.00971L18.2585 4.00971C18.2585 3.4 18.6275 2.85096 19.1921 2.62075C19.7567 2.39053 20.4044 2.52495 20.8308 2.96079L19.7585 4.00971ZM18.2585 4.01014L17.1864 2.96101C17.6128 2.52529 18.2605 2.39098 18.825 2.62123C19.3895 2.85149 19.7585 3.40049 19.7585 4.01014L18.2585 4.01014ZM16.2861 6.02571L17.3581 7.07484L17.3581 7.07484L16.2861 6.02571ZM15.2255 6.03718L16.2746 4.96511L16.2746 4.96511L15.2255 6.03718ZM15.214 4.97658L16.2861 6.0257L16.2861 6.02571L15.214 4.97658ZM17.5194 2.62072L16.4473 1.57161C16.4508 1.56806 16.4543 1.56453 16.4578 1.56102L17.5194 2.62072ZM17.5246 2.61544L16.463 1.55574L16.4631 1.55571L17.5246 2.61544ZM19.4313 3.67518C19.3143 3.55797 19.1637 3.4998 19.008 3.5L19.0041 0.500003C19.9248 0.498824 20.8509 0.850954 21.5545 1.55571L19.4313 3.67518ZM21.7305 6.02561L19.4206 3.66437L21.5652 1.56652L23.875 3.92776L21.7305 6.02561ZM21.7421 4.96501C21.446 5.25466 21.4408 5.7295 21.7305 6.0256L23.875 3.92778C24.744 4.81608 24.7283 6.24062 23.84 7.10956L21.7421 4.96501ZM22.8027 4.97669C22.5131 4.68059 22.0382 4.67536 21.7421 4.96501L23.84 7.10956C22.9517 7.97851 21.5271 7.96282 20.6582 7.07452L22.8027 4.97669ZM20.8308 2.96079L22.8027 4.97669L20.6582 7.07452L18.6862 5.05862L20.8308 2.96079ZM18.2585 11L18.2585 4.00971L21.2585 4.00971L21.2585 11L18.2585 11ZM19.0085 10.25C18.5943 10.25 18.2585 10.5858 18.2585 11L21.2585 11C21.2585 12.2426 20.2511 13.25 19.0085 13.25L19.0085 10.25ZM19.7585 11C19.7585 10.5858 19.4227 10.25 19.0085 10.25L19.0085 13.25C17.7659 13.25 16.7585 12.2426 16.7585 11L19.7585 11ZM19.7585 4.01014L19.7585 11L16.7585 11L16.7585 4.01014L19.7585 4.01014ZM15.214 4.97658L17.1864 2.96101L19.3306 5.05926L17.3581 7.07484L15.214 4.97658ZM16.2746 4.96511C15.9785 4.6754 15.5037 4.68054 15.214 4.97658L17.3581 7.07484C16.489 7.96297 15.0645 7.97838 14.1763 7.10925L16.2746 4.96511ZM16.2861 6.02571C16.5758 5.72966 16.5706 5.25482 16.2746 4.96511L14.1763 7.10925C13.2882 6.24013 13.2728 4.81559 14.1419 3.92745L16.2861 6.02571ZM18.5915 3.66984L16.2861 6.0257L14.1419 3.92747L16.4473 1.57161L18.5915 3.66984ZM18.5863 3.67514L18.581 3.68042L16.4578 1.56102L16.463 1.55574L18.5863 3.67514ZM19.008 3.5C18.8529 3.5002 18.7029 3.55834 18.5862 3.67518L16.4631 1.55571C17.1642 0.853333 18.0865 0.501178 19.0041 0.500003L19.008 3.5Z" fill="#FFECEF" mask="url(#path-3-outside-1_2097_71947)"/>
</svg>
