<svg width="18" height="18" viewBox="0 0 18 18" fill="none" xmlns="http://www.w3.org/2000/svg">
<path d="M14.55 13.5C14.55 14.079 14.079 14.55 13.5 14.55C12.921 14.55 12.45 14.079 12.45 13.5C12.45 12.921 12.921 12.45 13.5 12.45C14.079 12.45 14.55 12.921 14.55 13.5ZM18 13.5C18 15.9855 15.9855 18 13.5 18C11.0145 18 9 15.9855 9 13.5C9 11.0145 11.0145 9 13.5 9C15.9855 9 18 11.0145 18 13.5ZM15.45 12.3983L16.362 11.4862L15.513 10.638L14.601 11.55C14.274 11.3647 13.902 11.25 13.4993 11.25C13.0965 11.25 12.7245 11.3647 12.3975 11.55L11.4855 10.638L10.6365 11.4862L11.5485 12.3983C11.3632 12.7253 11.2485 13.0972 11.2485 13.5C11.2485 13.9028 11.3632 14.2747 11.5485 14.6017L10.6365 15.5138L11.4855 16.362L12.3975 15.45C12.7245 15.6353 13.0965 15.75 13.4993 15.75C13.902 15.75 14.274 15.6353 14.601 15.45L15.513 16.362L16.362 15.5138L15.45 14.6017C15.6353 14.2747 15.75 13.9028 15.75 13.5C15.75 13.0972 15.6353 12.7253 15.45 12.3983ZM18 6.75V7.5H10.5V0H11.25C14.9722 0 18 3.0285 18 6.75ZM16.4468 6C16.1175 3.70425 14.2965 1.88325 12 1.55325V6H16.4468ZM8.25 16.5C4.52775 16.5 1.5 13.4722 1.5 9.75C1.5 6.28125 4.1295 3.4155 7.5 3.04125V10.5H8.30925C8.50575 10.161 8.7435 9.852 9 9.5595V1.5H8.25C3.70125 1.5 0 5.20125 0 9.75C0 14.2987 3.70125 18 8.25 18C8.6535 18 9.04725 17.961 9.435 17.904C8.9925 17.4953 8.6115 17.022 8.30775 16.497C8.28825 16.497 8.2695 16.5 8.25 16.5Z" fill="#CC0001"/>
</svg>
