<svg width="18" height="18" viewBox="0 0 18 18" fill="none" xmlns="http://www.w3.org/2000/svg">
<path d="M14.25 1.5H13.5V0.75C13.5 0.33525 13.164 0 12.75 0C12.336 0 12 0.33525 12 0.75V1.5H6V0.75C6 0.33525 5.664 0 5.25 0C4.836 0 4.5 0.33525 4.5 0.75V1.5H3.75C1.68225 1.5 0 3.18225 0 5.25V14.25C0 16.3177 1.68225 18 3.75 18H14.25C16.3177 18 18 16.3177 18 14.25V5.25C18 3.18225 16.3177 1.5 14.25 1.5ZM3.75 3H14.25C15.4905 3 16.5 4.0095 16.5 5.25V6H1.5V5.25C1.5 4.0095 2.5095 3 3.75 3ZM1.5 7.5H16.5V7.94175C16.4888 7.9515 11.9813 12.4575 11.9813 12.4575C11.5905 12.8483 10.9095 12.8483 10.518 12.4575L10.0425 11.9813C9.08475 11.0235 7.41525 11.0235 6.4575 11.9813L2.39475 16.044C1.85175 15.633 1.5 14.9813 1.5 14.2493V7.49925V7.5ZM14.25 16.5H4.0605L7.51875 13.0425C7.9095 12.6517 8.5905 12.6517 8.982 13.0425L9.4575 13.5187C10.4152 14.4765 12.0847 14.4765 13.0425 13.5187L16.5 10.0612V14.2507C16.5 15.4913 15.4905 16.5 14.25 16.5ZM3 10.125C3 9.504 3.504 9 4.125 9C4.746 9 5.25 9.504 5.25 10.125C5.25 10.746 4.746 11.25 4.125 11.25C3.504 11.25 3 10.746 3 10.125Z" fill="#CC0001"/>
</svg>
