<svg id="interface_1_" data-name="interface (1)" xmlns="http://www.w3.org/2000/svg" width="16.875" height="18" viewBox="0 0 16.875 18">
  <g id="Group_1036" data-name="Group 1036" transform="translate(3.937)">
    <g id="Group_1035" data-name="Group 1035">
      <path id="Path_933" data-name="Path 933" d="M136.859,4.692l-3.937-4.5a.561.561,0,0,0-.846,0l-3.938,4.5a.562.562,0,0,0,.423.933h2.25v7.312a.563.563,0,0,0,.563.563h2.25a.563.563,0,0,0,.563-.563V5.625h2.25a.562.562,0,0,0,.423-.933Z" transform="translate(-127.998 0)" fill="#000"/>
    </g>
  </g>
  <g id="Group_1038" data-name="Group 1038" transform="translate(0 12.375)">
    <g id="Group_1037" data-name="Group 1037">
      <path id="Path_934" data-name="Path 934" d="M30.625,352v3.375H18.25V352H16v4.5a1.125,1.125,0,0,0,1.125,1.125H31.75a1.124,1.124,0,0,0,1.125-1.125V352Z" transform="translate(-16 -352)" fill="#000"/>
    </g>
  </g>
</svg>
