<svg width="33" height="27" viewBox="0 0 33 27" fill="none" xmlns="http://www.w3.org/2000/svg">
<g clip-path="url(#clip0_286_44446)">
<path d="M23.8839 3.09995C23.8803 3.02511 23.8611 2.95185 23.8275 2.88486C23.7939 2.81787 23.7467 2.75864 23.6889 2.71095C21.8817 1.21313 19.6679 0.289922 17.3319 0.0599556C16.9449 0.0219556 16.5509 0.00195312 16.1579 0.00195312H16.1409C15.7469 0.00195312 15.3539 0.0219556 14.9669 0.0599556C13.2117 0.232173 11.5175 0.795937 10.0091 1.70972C8.50062 2.62351 7.21638 3.86404 6.25093 5.33995V5.34595C4.86319 7.46119 4.18907 9.96515 4.32726 12.4912C4.46546 15.0173 5.40872 17.4327 7.01893 19.384C7.06615 19.4427 7.12517 19.4908 7.19219 19.5253C7.2592 19.5597 7.3327 19.5797 7.40793 19.584H7.43393C7.50471 19.584 7.5748 19.57 7.64018 19.5429C7.70556 19.5158 7.76494 19.4761 7.81494 19.426L23.7269 3.50496C23.7798 3.45207 23.8211 3.38874 23.8481 3.319C23.8752 3.24927 23.8874 3.17466 23.8839 3.09995ZM14.4069 11.305H11.1069C11.1527 9.93069 11.3773 8.56823 11.7749 7.25195C13.0503 7.41721 14.334 7.51036 15.6199 7.53095V10.1L14.4069 11.305ZM5.40093 11.305C5.48654 9.52386 6.01591 7.79241 6.94094 6.26796C8.17499 6.61446 9.42766 6.8909 10.6929 7.09595C10.2938 8.46519 10.0693 9.87941 10.0249 11.305H5.40093ZM15.2779 1.11195C15.3899 1.10295 15.5019 1.09495 15.6139 1.08995V6.45496C14.4468 6.43554 13.2815 6.35442 12.1229 6.21196C12.837 4.32494 13.9082 2.59332 15.2779 1.11195ZM13.3269 12.382L11.2989 14.41C11.1891 13.7386 11.1223 13.0609 11.0989 12.381L13.3269 12.382ZM16.6879 7.53196C17.2039 7.52396 17.7203 7.50395 18.2369 7.47195L16.6879 9.02096V7.53196ZM19.4069 6.29995C18.5069 6.38995 17.5929 6.44295 16.6829 6.45795V1.08995C16.7959 1.09595 16.9079 1.10295 17.0189 1.11195C18.2675 2.46454 19.2693 4.02549 19.9789 5.72395L19.4069 6.29995ZM13.6349 1.37395C12.5175 2.78574 11.6354 4.36881 11.0229 6.06195C9.86105 5.87997 8.70974 5.63596 7.57393 5.33096C9.07364 3.34833 11.2165 1.94934 13.6349 1.37395ZM7.47993 18.229C6.2278 16.5261 5.50348 14.4929 5.39693 12.382H10.0219C10.0535 13.3741 10.172 14.3615 10.3759 15.333L7.47993 18.229ZM20.8069 4.89996C20.2404 3.63769 19.52 2.45034 18.6619 1.36496C20.062 1.69785 21.3803 2.31009 22.5379 3.16496L20.8069 4.89996Z" fill="black"/>
<path d="M26.0518 5.3485C25.8149 4.98781 25.5585 4.64029 25.2838 4.3075C25.2361 4.24893 25.1766 4.20107 25.1091 4.16703C25.0416 4.133 24.9678 4.11357 24.8923 4.10998C24.8168 4.1064 24.7414 4.11874 24.6711 4.14623C24.6007 4.17371 24.5369 4.21572 24.4838 4.2695L8.56881 20.1845C8.51503 20.2376 8.47304 20.3014 8.44555 20.3717C8.41807 20.4421 8.40571 20.5175 8.4093 20.593C8.41288 20.6684 8.43232 20.7423 8.46635 20.8098C8.50038 20.8772 8.54824 20.9368 8.60681 20.9845C10.414 22.4823 12.6279 23.4055 14.9638 23.6355C15.7148 23.7095 16.4712 23.7129 17.2228 23.6455V26.3855C17.2227 26.4939 17.2552 26.5998 17.3163 26.6894C17.3773 26.7789 17.464 26.848 17.565 26.8874C17.6659 26.9269 17.7765 26.9349 17.8821 26.9105C17.9877 26.886 18.0834 26.8303 18.1568 26.7505L22.9848 21.5205C25.4908 19.7477 27.2108 17.0713 27.7824 14.0554C28.354 11.0394 27.7324 7.91926 26.0488 5.3525L26.0518 5.3485ZM22.3218 20.6685C22.2902 20.6906 22.261 20.7161 22.2348 20.7445L18.3018 25.0055V23.0375C18.3019 22.9603 18.2854 22.884 18.2533 22.8137C18.2213 22.7435 18.1745 22.681 18.1162 22.6304C18.0578 22.5798 17.9893 22.5424 17.9152 22.5207C17.8411 22.499 17.7632 22.4934 17.6868 22.5045C17.5238 22.5275 17.3728 22.5465 17.2238 22.5615C16.5082 22.6322 15.7874 22.6322 15.0718 22.5615C13.15 22.3722 11.3154 21.6659 9.76281 20.5175L24.8178 5.4625C24.9338 5.61983 25.0448 5.77916 25.1508 5.94049C26.6853 8.2813 27.2481 11.1276 26.72 13.8762C26.1919 16.6249 24.6145 19.06 22.3218 20.6655V20.6685Z" fill="black"/>
<path d="M16.499 18.332C16.7752 18.332 16.999 17.8843 16.999 17.332C16.999 16.7797 16.7752 16.332 16.499 16.332C16.2229 16.332 15.999 16.7797 15.999 17.332C15.999 17.8843 16.2229 18.332 16.499 18.332Z" fill="black"/>
<path d="M18.999 18.332C19.5513 18.332 19.999 17.8843 19.999 17.332C19.999 16.7797 19.5513 16.332 18.999 16.332C18.4467 16.332 17.999 16.7797 17.999 17.332C17.999 17.8843 18.4467 18.332 18.999 18.332Z" fill="black"/>
<path d="M22.499 18.332C23.3275 18.332 23.999 17.8843 23.999 17.332C23.999 16.7797 23.3275 16.332 22.499 16.332C21.6706 16.332 20.999 16.7797 20.999 17.332C20.999 17.8843 21.6706 18.332 22.499 18.332Z" fill="black"/>
<path d="M4.30302 19.1145C4.16155 19.097 4.0189 19.1363 3.9064 19.2239C3.7939 19.3115 3.72075 19.4401 3.70302 19.5815L3.65802 19.9445C1.7381 17.2388 0.841429 13.9393 1.12787 10.634C1.41432 7.32872 2.86525 4.23259 5.22202 1.89754C5.27225 1.84776 5.31219 1.78858 5.33955 1.72338C5.36691 1.65817 5.38116 1.58822 5.38148 1.51751C5.38181 1.4468 5.3682 1.37672 5.34144 1.31126C5.31468 1.24581 5.27529 1.18626 5.22552 1.13603C5.17575 1.0858 5.11658 1.04587 5.05137 1.01851C4.98617 0.991146 4.91621 0.976893 4.8455 0.976568C4.77479 0.976243 4.7047 0.989855 4.63925 1.01661C4.5738 1.04337 4.51425 1.08276 4.46402 1.13254C1.93029 3.64134 0.367914 6.96709 0.054472 10.5189C-0.25897 14.0708 0.696815 17.6188 2.75202 20.5325L2.29702 20.4655C2.1558 20.4446 2.01203 20.4806 1.89735 20.5656C1.78267 20.6507 1.70648 20.7778 1.68552 20.919C1.66457 21.0603 1.70058 21.204 1.78563 21.3187C1.87068 21.4334 1.9978 21.5096 2.13902 21.5305L3.95602 21.7995C4.02699 21.8101 4.09936 21.8063 4.16885 21.7885C4.23835 21.7707 4.30358 21.7391 4.36069 21.6957C4.41781 21.6522 4.46567 21.5978 4.50145 21.5357C4.53722 21.4735 4.5602 21.4047 4.56902 21.3335L4.76902 19.7185C4.78656 19.5771 4.74723 19.4344 4.65967 19.3219C4.5721 19.2094 4.44347 19.1363 4.30202 19.1185L4.30302 19.1145Z" fill="black"/>
<path d="M29.51 2.69224C29.6528 2.69224 29.7898 2.6355 29.8908 2.53451C29.9917 2.43352 30.0485 2.29655 30.0485 2.15373C30.0485 2.01091 29.9917 1.87395 29.8908 1.77296C29.7898 1.67197 29.6528 1.61523 29.51 1.61523H27.895C27.7523 1.61523 27.6154 1.67192 27.5145 1.77281C27.4136 1.87371 27.357 2.01055 27.357 2.15324V3.76823C27.357 3.91105 27.4137 4.04802 27.5147 4.14901C27.6157 4.25 27.7526 4.30673 27.8955 4.30673C28.0383 4.30673 28.1753 4.25 28.2763 4.14901C28.3772 4.04802 28.434 3.91105 28.434 3.76823V3.59023C30.394 6.27718 31.3335 9.57416 31.0841 12.8907C30.8347 16.2072 29.4128 19.3266 27.073 21.6902C26.9725 21.7917 26.9163 21.9289 26.917 22.0717C26.9177 22.2145 26.975 22.3512 27.0765 22.4517C27.1779 22.5523 27.3151 22.6084 27.458 22.6077C27.6008 22.607 27.7374 22.5497 27.838 22.4482C30.399 19.8627 31.9382 16.4379 32.1712 12.8061C32.4043 9.17437 31.3155 5.58091 29.106 2.68923L29.51 2.69224Z" fill="black"/>
</g>
<defs>
<clipPath id="clip0_286_44446">
<rect width="32.202" height="26.917" fill="white"/>
</clipPath>
</defs>
</svg>
