<svg width="13" height="14" viewBox="0 0 13 14" fill="none" xmlns="http://www.w3.org/2000/svg">
<g clip-path="url(#clip0_286_56828)">
<path d="M11.3847 5.83322H8.46405L9.51355 2.42235C9.7345 1.71117 9.15451 1 8.35358 1C7.95311 1 7.56645 1.16571 7.30408 1.4488L3.25798 5.83322H0.496136V12.7378H3.25798H3.94844H10.4595C11.1914 12.7378 11.8266 12.2752 11.9716 11.6262L12.8968 7.48343C13.0832 6.62725 12.3582 5.83322 11.3847 5.83322ZM3.25798 12.0474H1.1866V6.52368H3.25798V12.0474ZM12.2202 7.33152L11.2949 11.4743C11.2259 11.8057 10.8738 12.0474 10.4595 12.0474H3.94844V6.1025L7.81502 1.91831C7.9462 1.77332 8.14644 1.69046 8.35358 1.69046C8.5331 1.69046 8.69881 1.76641 8.78857 1.8976C8.8369 1.96664 8.89214 2.07712 8.85071 2.22212L7.80121 5.63299L7.52502 6.52368H8.45715H11.3778C11.6609 6.52368 11.9302 6.64106 12.089 6.8413C12.1787 6.94487 12.2685 7.11748 12.2202 7.33152Z" fill="#DD0033"/>
</g>
<defs>
<clipPath id="clip0_286_56828">
<rect width="12.6316" height="12.6316" fill="white" transform="translate(0.36842 0.683594)"/>
</clipPath>
</defs>
</svg>
