<svg width="24" height="24" viewBox="0 0 24 24" fill="none" xmlns="http://www.w3.org/2000/svg">
<g clip-path="url(#clip0_2097_61588)">
<path d="M20.5 0H3.5C1.57 0 0 1.59236 0 3.54985V16.735C0 18.6925 1.57 20.2848 3.5 20.2848H7.106L11.003 23.6146C11.289 23.8722 11.648 24 12.004 24C12.357 24 12.707 23.8752 12.983 23.6268L16.968 20.2848H20.5C22.43 20.2848 24 18.6925 24 16.735V3.54985C24 1.59236 22.43 0 20.5 0ZM23 16.735C23 18.1336 21.879 19.2706 20.5 19.2706H16.788C16.672 19.2706 16.559 19.3122 16.47 19.3862L12.333 22.8559C12.143 23.0294 11.857 23.0273 11.658 22.8468L7.611 19.3893C7.521 19.3132 7.406 19.2706 7.289 19.2706H3.5C2.122 19.2706 1 18.1336 1 16.735V3.54985C1 2.15121 2.122 1.01424 3.5 1.01424H20.5C21.879 1.01424 23 2.15121 23 3.54985V16.735ZM5.5 6.59257C5.5 6.31264 5.724 6.08545 6 6.08545H13C13.276 6.08545 13.5 6.31264 13.5 6.59257C13.5 6.8725 13.276 7.09969 13 7.09969H6C5.724 7.09969 5.5 6.8725 5.5 6.59257ZM19.5 10.6495C19.5 10.9295 19.276 11.1567 19 11.1567H6C5.724 11.1567 5.5 10.9295 5.5 10.6495C5.5 10.3696 5.724 10.1424 6 10.1424H19C19.276 10.1424 19.5 10.3696 19.5 10.6495ZM19.5 14.7065C19.5 14.9864 19.276 15.2136 19 15.2136H6C5.724 15.2136 5.5 14.9864 5.5 14.7065C5.5 14.4266 5.724 14.1994 6 14.1994H19C19.276 14.1994 19.5 14.4266 19.5 14.7065Z" fill="#CC0001"/>
</g>
<defs>
<clipPath id="clip0_2097_61588">
<rect width="24" height="24" fill="white"/>
</clipPath>
</defs>
</svg>
