<svg width="32" height="32" viewBox="0 0 32 32" fill="none" xmlns="http://www.w3.org/2000/svg">
<path d="M3.33301 8.66699V18.0005M11.4998 8.66699V18.0005M19.6666 8.66699V11.0004C19.6666 11.6192 19.4208 12.2127 18.9832 12.6503C18.5456 13.0879 17.9521 13.3337 17.3333 13.3337H3.33301" stroke="#CC0001" stroke-width="1.75003" stroke-linecap="round" stroke-linejoin="round"/>
<circle cx="23.5" cy="21.5" r="7" fill="#CC0001" stroke="#CC0001"/>
<path d="M1 6.33337C1 6.95222 1.24584 7.54573 1.68343 7.98332C2.12102 8.42091 2.71452 8.66675 3.33337 8.66675C3.95222 8.66675 4.54573 8.42091 4.98332 7.98332C5.42091 7.54573 5.66675 6.95222 5.66675 6.33337C5.66675 5.71452 5.42091 5.12102 4.98332 4.68343C4.54573 4.24584 3.95222 4 3.33337 4C2.71452 4 2.12102 4.24584 1.68343 4.68343C1.24584 5.12102 1 5.71452 1 6.33337Z" stroke="#CC0001" stroke-width="1.75003" stroke-linecap="round" stroke-linejoin="round"/>
<path d="M9.16681 6.33337C9.16681 6.95222 9.41265 7.54573 9.85024 7.98332C10.2878 8.42091 10.8813 8.66675 11.5002 8.66675C12.119 8.66675 12.7125 8.42091 13.1501 7.98332C13.5877 7.54573 13.8336 6.95222 13.8336 6.33337C13.8336 5.71452 13.5877 5.12102 13.1501 4.68343C12.7125 4.24584 12.119 4 11.5002 4C10.8813 4 10.2878 4.24584 9.85024 4.68343C9.41265 5.12102 9.16681 5.71452 9.16681 6.33337Z" stroke="#CC0001" stroke-width="1.75003" stroke-linecap="round" stroke-linejoin="round"/>
<path d="M17.3336 6.33337C17.3336 6.95222 17.5795 7.54573 18.017 7.98332C18.4546 8.42091 19.0481 8.66675 19.667 8.66675C20.2858 8.66675 20.8793 8.42091 21.3169 7.98332C21.7545 7.54573 22.0004 6.95222 22.0004 6.33337C22.0004 5.71452 21.7545 5.12102 21.3169 4.68343C20.8793 4.24584 20.2858 4 19.667 4C19.0481 4 18.4546 4.24584 18.017 4.68343C17.5795 5.12102 17.3336 5.71452 17.3336 6.33337Z" stroke="#CC0001" stroke-width="1.75003" stroke-linecap="round" stroke-linejoin="round"/>
<path d="M1 20.3336C1 20.9525 1.24584 21.546 1.68343 21.9836C2.12102 22.4212 2.71452 22.667 3.33337 22.667C3.95222 22.667 4.54573 22.4212 4.98332 21.9836C5.42091 21.546 5.66675 20.9525 5.66675 20.3336C5.66675 19.7148 5.42091 19.1213 4.98332 18.6837C4.54573 18.2461 3.95222 18.0002 3.33337 18.0002C2.71452 18.0002 2.12102 18.2461 1.68343 18.6837C1.24584 19.1213 1 19.7148 1 20.3336Z" stroke="#CC0001" stroke-width="1.75003" stroke-linecap="round" stroke-linejoin="round"/>
<path d="M9.16681 20.3336C9.16681 20.9525 9.41265 21.546 9.85024 21.9836C10.2878 22.4212 10.8813 22.667 11.5002 22.667C12.119 22.667 12.7125 22.4212 13.1501 21.9836C13.5877 21.546 13.8336 20.9525 13.8336 20.3336C13.8336 19.7148 13.5877 19.1213 13.1501 18.6837C12.7125 18.2461 12.119 18.0002 11.5002 18.0002C10.8813 18.0002 10.2878 18.2461 9.85024 18.6837C9.41265 19.1213 9.16681 19.7148 9.16681 20.3336Z" stroke="#CC0001" stroke-width="1.75003" stroke-linecap="round" stroke-linejoin="round"/>
<mask id="mask0_2097_65246" style="mask-type:luminance" maskUnits="userSpaceOnUse" x="18" y="16" width="11" height="11">
<path d="M28.3797 26.3799V16.6203H18.6201V26.3799H28.3797Z" fill="white" stroke="white" stroke-width="0.625"/>
</mask>
<g mask="url(#mask0_2097_65246)">
<path d="M25.6631 16.3066V24.9604" stroke="white" stroke-width="0.625" stroke-miterlimit="10"/>
<path d="M25.6633 16.3066C25.6633 17.7401 24.5007 18.9028 23.0672 18.9028H19.6056C19.1279 18.9028 18.7402 19.2904 18.7402 19.7681V21.4989C18.7402 21.9766 19.1279 22.3643 19.6056 22.3643H23.0672C24.5007 22.3643 25.6633 23.5269 25.6633 24.9604" stroke="white" stroke-width="0.625" stroke-miterlimit="10"/>
<path d="M21.3368 22.3636L22.5942 25.1925C22.8166 25.6936 22.4501 26.2578 21.9019 26.2578H21.1204L19.3896 22.3636" stroke="white" stroke-width="0.625" stroke-miterlimit="10"/>
<path d="M27.2695 21.8079L28.2595 22.7979" stroke="white" stroke-width="0.625" stroke-miterlimit="10"/>
<path d="M27.2861 19.4434L28.2597 18.4698" stroke="white" stroke-width="0.625" stroke-miterlimit="10"/>
<path d="M27.3945 20.6343H28.6926" stroke="white" stroke-width="0.625" stroke-miterlimit="10"/>
</g>
</svg>
