<svg width="20" height="20" viewBox="0 0 20 20" fill="none" xmlns="http://www.w3.org/2000/svg">
<path d="M17.3333 10H18C18 14.4113 14.4113 18 10 18C6.80667 18 3.92867 16.0913 2.66667 13.1967V16H2V13.006C2 12.4513 2.45133 12 3.00533 12H6V12.6667H3.17267C4.26667 15.4667 6.97733 17.3333 10 17.3333C14.0433 17.3333 17.3333 14.0433 17.3333 10ZM17.3333 4V6.802C16.0707 3.908 13.1933 2 10 2C5.58867 2 2 5.58867 2 10H2.66667C2.66667 5.95667 5.95667 2.66667 10 2.66667C13.0227 2.66667 15.734 4.53333 16.8273 7.33333H14V8H16.994C17.5487 8 18 7.54867 18 6.994V4H17.3333Z" fill="black" stroke="black" stroke-width="0.6"/>
</svg>
