<svg width="20" height="20" viewBox="0 0 20 20" fill="none" xmlns="http://www.w3.org/2000/svg">
<path d="M15.7371 19.1654C15.0505 19.1654 14.5921 18.498 14.5921 17.4989V2.49853C14.5921 1.49936 15.0505 0.832031 15.7371 0.832031H18.0287C18.7171 0.832031 19.1755 1.49936 19.1755 2.49853V17.4989C19.1755 18.498 18.7171 19.1654 18.0296 19.1654H15.7371ZM1.98706 19.1654C1.82428 19.165 1.66341 19.1303 1.515 19.0635C1.36658 18.9966 1.23397 18.8991 1.12587 18.7774C1.01776 18.6557 0.936598 18.5126 0.887702 18.3573C0.838806 18.2021 0.823279 18.0382 0.842141 17.8765V12.7203C0.823271 12.5585 0.838821 12.3946 0.887771 12.2393C0.936722 12.084 1.01797 11.9407 1.12617 11.819C1.23438 11.6973 1.3671 11.5999 1.51562 11.5331C1.66415 11.4663 1.82512 11.4316 1.98797 11.4314H11.4416C11.6044 11.4318 11.7653 11.4665 11.9137 11.5334C12.0622 11.6002 12.1948 11.6977 12.303 11.8193C12.4112 11.941 12.4924 12.0842 12.5415 12.2394C12.5905 12.3947 12.6061 12.5586 12.5874 12.7203V17.8765C12.6061 18.0383 12.5905 18.2021 12.5415 18.3574C12.4924 18.5126 12.4112 18.6558 12.303 18.7775C12.1948 18.8992 12.0622 18.9966 11.9137 19.0635C11.7653 19.1303 11.6044 19.165 11.4416 19.1654H1.98706ZM8.86297 8.85286C8.17547 8.85286 7.71714 8.65211 7.71714 8.3487V1.33345C7.71714 1.03278 8.17547 0.832031 8.86297 0.832031H11.1546C11.8421 0.832031 12.3005 1.03278 12.3005 1.33345V8.3487C12.3005 8.64845 11.8421 8.85011 11.1546 8.85011L8.86297 8.85286ZM1.98797 8.85286C1.82194 8.84913 1.65854 8.81047 1.50844 8.73939C1.35834 8.66831 1.2249 8.56641 1.1168 8.44033C1.0087 8.31424 0.928373 8.1668 0.88105 8.0076C0.833728 7.8484 0.82047 7.68103 0.842141 7.51636V2.16853C0.82047 2.00387 0.833728 1.83649 0.88105 1.6773C0.928373 1.5181 1.0087 1.37066 1.1168 1.24457C1.2249 1.11849 1.35834 1.01658 1.50844 0.945504C1.65854 0.874425 1.82194 0.835761 1.98797 0.832031L4.27964 0.832031C4.44568 0.835761 4.60907 0.874425 4.75917 0.945504C4.90928 1.01658 5.04272 1.11849 5.15082 1.24457C5.25892 1.37066 5.33924 1.5181 5.38657 1.6773C5.43389 1.83649 5.44715 2.00387 5.42547 2.16853V7.51636C5.44715 7.68103 5.43389 7.8484 5.38657 8.0076C5.33924 8.1668 5.25892 8.31424 5.15082 8.44033C5.04272 8.56641 4.90928 8.66831 4.75917 8.73939C4.60907 8.81047 4.44568 8.84913 4.27964 8.85286H1.98797Z" stroke="white"/>
</svg>
