<svg width="21" height="22" viewBox="0 0 21 22" fill="none" xmlns="http://www.w3.org/2000/svg">
<path d="M19.8079 21.2372C19.6379 21.2387 19.4736 21.1758 19.3479 21.0612L15.1769 16.9262C13.5168 18.3576 11.3959 19.1416 9.20392 19.1342C6.77244 19.1304 4.43916 18.1745 2.70392 16.4712C1.84768 15.6299 1.16759 14.6265 0.703344 13.5195C0.2391 12.4125 0 11.2241 0 10.0237C0 8.82334 0.2391 7.63497 0.703344 6.52798C1.16759 5.42099 1.84768 4.41755 2.70392 3.57624C3.98928 2.31301 5.61455 1.45124 7.3814 1.0961C9.14825 0.740953 10.9803 0.907786 12.6539 1.57624C13.7884 2.02737 14.8173 2.70831 15.6759 3.57624C17.3219 5.1979 18.2876 7.38626 18.3759 9.69524C18.467 11.983 17.6799 14.219 16.1759 15.9452L20.3469 20.0452C20.4754 20.1927 20.5402 20.3851 20.5269 20.5802C20.5225 20.6651 20.5012 20.7483 20.4643 20.8249C20.4274 20.9014 20.3756 20.9699 20.3119 21.0262C20.2463 21.0934 20.1679 21.1467 20.0814 21.1829C19.9948 21.2192 19.9018 21.2377 19.8079 21.2372ZM9.20492 2.31324C8.18619 2.30198 7.17538 2.49323 6.23118 2.87588C5.28698 3.25853 4.42822 3.82497 3.70476 4.54228C2.98131 5.2596 2.40757 6.1135 2.01688 7.05441C1.6262 7.99531 1.42634 9.00445 1.42892 10.0232C1.41916 11.0344 1.61459 12.037 2.00339 12.9705C2.39218 13.904 2.96626 14.749 3.69092 15.4542C4.41511 16.1779 5.27487 16.7517 6.22102 17.1427C7.16717 17.5338 8.18114 17.7344 9.20492 17.7332C11.2649 17.7334 13.2435 16.9289 14.7189 15.4912C16.1678 14.0407 16.9816 12.0744 16.9816 10.0242C16.9816 7.97408 16.1678 6.00776 14.7189 4.55724C13.2439 3.11884 11.2652 2.31361 9.20492 2.31324Z" fill="#E41936"/>
</svg>
