<svg width="18" height="22" viewBox="0 0 18 22" fill="none" xmlns="http://www.w3.org/2000/svg">
<path d="M11.9753 7.96631C11.8386 7.96631 11.7075 8.0206 11.6109 8.11725C11.5143 8.21389 11.46 8.34498 11.46 8.48165V18.2203C11.46 18.357 11.5143 18.4881 11.6109 18.5847C11.7075 18.6813 11.8386 18.7356 11.9753 18.7356C12.112 18.7356 12.2431 18.6813 12.3397 18.5847C12.4364 18.4881 12.4906 18.357 12.4906 18.2203V8.48165C12.4906 8.34498 12.4364 8.21389 12.3397 8.11725C12.2431 8.0206 12.112 7.96631 11.9753 7.96631Z" fill="#CC0001"/>
<path d="M5.89619 7.96631C5.75952 7.96631 5.62844 8.0206 5.5318 8.11725C5.43515 8.21389 5.38086 8.34498 5.38086 8.48165V18.2203C5.38086 18.357 5.43515 18.4881 5.5318 18.5847C5.62844 18.6813 5.75952 18.7356 5.89619 18.7356C6.03287 18.7356 6.16395 18.6813 6.2606 18.5847C6.35724 18.4881 6.41154 18.357 6.41154 18.2203V8.48165C6.41154 8.34498 6.35724 8.21389 6.2606 8.11725C6.16395 8.0206 6.03287 7.96631 5.89619 7.96631Z" fill="#CC0001"/>
<path d="M1.46407 6.54864V19.2436C1.4559 19.9695 1.72573 20.671 2.21822 21.2044C2.45498 21.4552 2.74037 21.655 3.05697 21.7918C3.37357 21.9286 3.71473 21.9995 4.05962 22H13.8096C14.1545 21.9995 14.4957 21.9287 14.8123 21.7919C15.1289 21.6551 15.4143 21.4552 15.651 21.2044C16.1435 20.671 16.4133 19.9695 16.4051 19.2436V6.54864C16.8673 6.42646 17.2693 6.14023 17.5359 5.7434C17.8025 5.34657 17.9156 4.86626 17.854 4.39216C17.7925 3.91805 17.5605 3.48256 17.2013 3.167C16.8422 2.85144 16.3804 2.67737 15.9024 2.67731H13.2628V2.03377C13.2642 1.7659 13.2123 1.50043 13.1102 1.25276C13.0082 1.00509 12.858 0.780136 12.6684 0.590957C12.4787 0.401777 12.2534 0.252132 12.0055 0.1507C11.7575 0.0492672 11.4919 -0.00193372 11.2241 6.61802e-05H6.64762C6.37965 -0.00210097 6.11392 0.0489764 5.86585 0.150334C5.61778 0.251691 5.39231 0.40131 5.20253 0.590507C5.01275 0.779703 4.86244 1.00471 4.76031 1.25247C4.65819 1.50022 4.6063 1.76579 4.60764 2.03377V2.67731H1.9681C1.49001 2.67737 1.02829 2.85144 0.669138 3.167C0.30999 3.48256 0.0779691 3.91805 0.016397 4.39216C-0.0451751 4.86626 0.067911 5.34657 0.33454 5.7434C0.60117 6.14023 1.00186 6.42646 1.46407 6.54864ZM13.8108 20.9706H4.06087C3.84412 20.9619 3.63126 20.9102 3.43471 20.8184C3.23816 20.7266 3.06186 20.5966 2.91608 20.436C2.7703 20.2753 2.65796 20.0873 2.58562 19.8828C2.51329 19.6783 2.48239 19.4614 2.49475 19.2448V6.59389H15.377V19.2448C15.3893 19.4614 15.3584 19.6783 15.2861 19.8828C15.2137 20.0873 15.1014 20.2753 14.9556 20.436C14.8098 20.5966 14.6335 20.7266 14.437 20.8184C14.2404 20.9102 14.0276 20.9619 13.8108 20.9706ZM5.63831 2.03377C5.63662 1.90125 5.66148 1.76974 5.71142 1.64698C5.76135 1.52422 5.83535 1.41269 5.92907 1.31898C6.02278 1.22527 6.1343 1.15127 6.25706 1.10133C6.37982 1.0514 6.51133 1.02654 6.64385 1.02823H11.2191C11.3516 1.02654 11.4831 1.0514 11.6058 1.10133C11.7286 1.15127 11.8401 1.22527 11.9338 1.31898C12.0276 1.41269 12.1016 1.52422 12.1515 1.64698C12.2014 1.76974 12.2263 1.90125 12.2246 2.03377V2.67731H5.63831V2.03377ZM1.96935 3.70799H15.9024C16.1484 3.70799 16.3843 3.80572 16.5583 3.97968C16.7322 4.15364 16.83 4.38958 16.83 4.6356C16.83 4.88162 16.7322 5.11756 16.5583 5.29152C16.3843 5.46548 16.1484 5.56321 15.9024 5.56321H1.96935C1.72334 5.56321 1.48739 5.46548 1.31343 5.29152C1.13947 5.11756 1.04174 4.88162 1.04174 4.6356C1.04174 4.38958 1.13947 4.15364 1.31343 3.97968C1.48739 3.80572 1.72334 3.70799 1.96935 3.70799Z" fill="#CC0001"/>
<path d="M8.93624 7.96631C8.79957 7.96631 8.66848 8.0206 8.57184 8.11725C8.47519 8.21389 8.4209 8.34498 8.4209 8.48165V18.2203C8.4209 18.357 8.47519 18.4881 8.57184 18.5847C8.66848 18.6813 8.79957 18.7356 8.93624 18.7356C9.07292 18.7356 9.204 18.6813 9.30065 18.5847C9.39729 18.4881 9.45158 18.357 9.45158 18.2203V8.48165C9.45158 8.34498 9.39729 8.21389 9.30065 8.11725C9.204 8.0206 9.07292 7.96631 8.93624 7.96631Z" fill="#CC0001"/>
</svg>
